<?xml version="1.0" encoding="UTF-8"?>
<svg id="Layer_2" data-name="Layer 2" xmlns="http://www.w3.org/2000/svg" viewBox="0 0 126.58 110.39">
  <defs>
    <style>
      .cls-1 {
        fill: currentColor;
        stroke-width: 0px;
      }
    </style>
  </defs>
  <g id="Layer_1-2" data-name="Layer 1">
    <g>
      <path class="cls-1" d="m61.71,85.65s-.05,0-.07.03c0,0,0,.02,0,.03.01,0,.02,0,.03,0,.01-.02.03-.04.04-.06Z"/>
      <path class="cls-1" d="m12.78,67.73s0-.02,0-.03c0,0-.02,0-.02.01l.02.02Z"/>
      <path class="cls-1" d="m11.82,67.69s-.02,0-.03,0c0,.02,0,.03,0,.05l.02-.04Z"/>
      <path class="cls-1" d="m68.58,89.24c-.04-.09-.06-.17-.1-.26-.01.12.01.22.1.26Z"/>
      <path class="cls-1" d="m73.29,80.63c-.08-.04-.15-.06-.21-.07.03.07.09.1.21.07Z"/>
      <path class="cls-1" d="m126.38,100.03c-.93.37-2.21.63-1.54-1.4.46-1.42-.95-2.36-1.9-3.17-.17-.15-.76,1.2-.86,1.99-.04.32.31.77-.19.93-.45.14-.72-.26-.98-.55-.95-1.06-1.26-2.36-1.39-3.74-.08-.89-.17-1.82-1.03-2.4.08.48.16.96.24,1.45.01,0,.01.01.02.01.01,0,.02.01.03.02.04,0,.07-.02.11-.03,0,.04,0,.07,0,.11-.04-.03-.07-.05-.11-.08-.02,0-.03,0-.05.01,0-.02,0-.03,0-.05-.3-.07-.17-.49-.56-.62-.52-.18-.91-.69-1.36-1.06.51-.62.98.35,1.49.03-.47-.98-1.53-1.19-2.29-1.79-.15-.11-.36-.1-.29.13.36,1.28-1.05,2.4-.26,3.74.33.56-.12.68-.6.56-2.03-.53-3.86-1.41-4.93-3.3-.65-1.15-.99-2.34.92-2.82,1.02-.26,2.27-3.07,1.88-3.96-.05-.11-.36-.23-.44-.18-1.15.82-2.58,1.33-3.16,2.8-.11.28-.23.55-.34.82-.23-.27-.55-.5-.66-.81-.56-1.6-1.2-3.27-2.7-4.11-4.35-2.45-6.81-7.28-11.62-9.13-.16-.06-.26-.26-.39-.4.37-.21.72-.55,1.12-.61.92-.13,1.92.31,2.77-.37.24-.19.59-.43.62-.68.06-.54-.5-.13-.7-.33-.18-.19-.44-.35-.5-.58-.04-.14.23-.52.35-.52.33,0,.67.15.98.27.12.05.19.2.29.31.01-.15.09-.41.04-.45-.64-.38-.39-2.57-2.03-.96-.5.49-.38-.54-.75-.55-.15.53-.31,1.06-.46,1.59-.25-.49-.97-.75-.79-1.44.06-.22.43-.33.6-.55.3-.39-.13-.61-.29-.48-.81.67-1.97,1-2.29,2.16-.06.23.1.53.17.8.11.44,1.1.4.69,1.03-.39.61-1.13.63-1.83.67-2.12.11-3.63-1.4-5.47-2.04-.55-.19.02-.45.18-.5.72-.24,1.44-.52,2.18-.6,2.47-.24,3.94-1.64,4.27-4.11.09-.7-.29-.53-.62-.44-2.14.59-4.15,1.34-5.44,3.38-1.17,1.86-2.8,3.15-5.11,3.33-.28.02-.54.19-.81.29.3.08.59.16,1.04.29-2.26.33-4.39.65-6.51.96-.02-.07-.03-.14-.05-.21-.79.5-1.3.52-1.81.26.47-.11.97-.22,1.78-.4,0,0,0,0,0,0,1.34-.31,2.69-.62,3.87-.89-.65.04-.83-.17-.38-1.04.88-1.67-.28-2.95-1.11-4.25-.32-.49-.63-.99-.95-1.49-.19.55-.37,1.1-.59,1.64-.2.48-.47.93-.65,1.41-.07.19-.03.58.08.64.35.18.3-.2.4-.38.07-.11.21-.19.32-.28.06.14.19.29.16.4-.11.37.29,1-.35,1.09-.7.1-.65.59-.54.95.44,1.43-.34,1.84-1.52,1.99-3.78.5-6.84,2.78-10.28,4.13-1.01.39-1.25.26-1.06-.81.22-1.28.05-2.59,2.23-1.89,1.19.38,2.83.17,3.7-1.27.14-.23.69-.42.36-.71-.22-.19-.59.1-.83.45-.96,1.43-3.66,1.66-4.69.41-.16-.19-.32-.5-.27-.71.11-.42.41-.2.66-.07.42.22.57.27.77-.36.26-.8,1.17-.32,1.8-.39.51-.05,1.28.65,1.21-.76-.04-.79,1.27-.44,1.92-.75.2-.1.67-.06.73.06.23.44-.4.51-.48.84-.04.16,0,.34,0,.51.2-.17.56-.31.59-.5.23-1.68,1.36-3.22.85-5.09-.55.48-.13,1.01-.22,1.47-.08.37-.11.95-.64.76-.27-.1-.63-.85-.52-1,.66-.91,0-1.38-.5-1.93-.39-.42-1.2-.94-.77-1.4.52-.56,1.24.01,1.72.54.13.15.26.3.51.31-1.03-1.5-2.82-2.11-4.14-3.26,0,.01.02.02.02.04,0,0,.01,0,.02,0,0,0-.01,0-.02,0l.58.9c-.18-.01-.44.05-.53-.05-.52-.56-1.68.15-1.79-.67-.05-.33,1.1-.24,1.74-.18,0,0,0,0,0,0-2.41-.86-4.93-1.78-7.29-.4-1.03.6-2.82.19-3.14,1.94-.25,1.36-1.42,2.17-1.98,3.35.42-.32.74-1.03,1.29-.72.5.28.4,1.06.49,1.64.11.71.21,1.48.8,1.99.29.25.23.38-.04.49-.34.14-.82.78-1.03.31-1.26-2.85-3-.81-4.55-.52-.25.05-.53.27-.66.5-.43.76-1.89,1.55.33,2.13,1.52.4,2.93,1,4.53.63.2-.05.6,0,.64.11.12.35-.2.48-.47.55-1.86.46-1.52,2.23-2.06,3.47-.04.09.09.25.14.37,1.29-.66,3.11.04,4.03-1.4.47-.73.95-1.72-.38-2.4-.61-.31-.88-1.02-.72-1.77.12-.53.49-.85,1-.88.64-.03,1.29-.1,1.69.69.21.42.82.63,1.12,1.03.6.81.89,1.61-.64,1.68-.15,0-.28.14-.43.22.23.14.44.31.68.41.66.28,1.54-1.03,1.84-.14.4,1.18-.22,2.53-1.05,3.41-.94,1.01-2.16,1.83-3.71,1.76-.31.61-.1,1.6-1.52,1.11-.69-.24-1.26,1.38-2.38,1.55-.39.06-.64.42-.62-.26.07-1.89,2.63-3.42,4.32-2.6-.45-.67-1.17-1.07-1.88-.9-.91.22-1.81.61-2.13,1.56-.28.84-.45,2-1.28,2.13-1.28.2-2.65-.1-3.98-.21-.08,0-.15-.13-.23-.21.16-.09.31-.22.49-.27.91-.28,1.67-.77,2.17-1.59.13-.21.22-.69.15-.73-.35-.2-.41.22-.6.39-.37.32-.6,1.23-1.04.91-.44-.31.39-.91.43-1.39.06-.64,1.74-.84.44-1.89-.34-.28.22-.73.77-.52.46.18.92.25,1.36-.05.03-.02-.09-.34-.11-.34-.71.09-1.39-1.09-2.04-.18-.4.56-.51,1.06-1.42,1.21-.81.13-1.13,1.25-1.47,2.07-.31.74-.54,1.45-1.6,1.48-1.31.03-2.39-.49-3.5-1.03-.07-.03-.07-.38,0-.52,1.76-3.26,1.07-6.62.26-9.91-.74-2.96-.72-6.11-2.24-8.9-.5-.92.45-.59.77-.5,1.59.42,3.08.27,4.48-.6.21-.13.61-.21.42-.58-.06-.11-.41-.08-.62-.09-.24-.01-.58.1-.7-.02-2.86-2.76-7.9-2.07-9.86-6.24-.1-.21-.19-.42-.28-.63.24-.09.49-.25.73-.25,1.18,0,2.41.27,3.54.05,1.72-.35,1.65-1.13-.23-3.14-.07.56.17,1.4-.72,1.31-.42-.04-.99-.53-1.16-.94-.35-.85.52-1.07,1-1.5.19-.17.79.49.55-.28-.1-.32-.54-.65-.72-.37-.68,1.07-1.42.5-2.2.24-.43-.14-.83-.07-.86.51.01,0,.02-.01.04-.02,0,0,0,.02,0,.03.56-.22,1.14-.39,1.5.29.15.28.09.67.12,1.01-.54.02-1.18.24-1.61.03-.59-.29-.14-.86,0-1.32-.01,0-.02,0-.03.01,0,0,0-.01,0-.02-1.24.47-.55,1.21-.26,1.92.18.44.88.84.41,1.35-.49.54-1.23.35-1.8.08-1.58-.75-3.11-1.6-4.69-2.37-.64-.31-1.35-.49-2.02-.74-1.12-.42-2.13-.86-1.83-2.43.24-1.26-.92-2.17-1.08-3.37,0-.05-.09-.09-.13-.13-.89,2.09-1.44.1-2.17-.14-.19-.06-.1.69-.85.12-2.43-1.84-1.66-3.34-.01-5.07.6-.63.59-1.54.57-2.39-.01-.74-.08-1.56,1.11-1.26.1.02.23-.1.35-.15-.25-.16-.53-.48-.76-.45-1.67.17-2.89,1.05-3.62,2.56-.27.56-.44,1.16-.65,1.75-.21-.65-.55-1.29-.61-1.96-.2-2.34-2.3-3.88-2.51-6.23-.16-1.79.02-3.44,1.24-4.82.68-.77,1.62-.85,2.37-.3.84.61-.14,1.06-.4,1.56-.74,1.4-.12,2.62.59,3.75.56.89,1.26.18,1.87-.13.4-.21.54-.45.07-.78-1.44-1.02-.22-1.53.43-2.14.46-.17-.41-1.34.75-.98-.92-1.25.78-1.79.75-2.8.22,0,.46-.05.65.02.31.12-.29.7.29.68.1,0,.23-.45.27-.71.07-.45-.16-.88-.58-.91-.94-.06-1.97-.51-2.78.39-.36.4-.87.63-1.25.27-.54-.5.28-.65.41-.99.06-.17.51-.23.16-.49-.08-.06-.29.07-.44.11-.31.13-.37.03-.25-.26-.03-.09-.05-.19-.08-.28-.01.04-.01.09-.04.11-.02.02-.07,0-.11,0-.33-.03-.65-.05-.98-.08-.09.03-.19.06-.28.08,0-.11,0-.21,0-.32-.04-1.21.82-1.37,1.74-1.53.84-.14,1.32,0,1.19,1.02-.04.27.16.32.45-.19.78-1.35,1.72-1.36,2.85-.46,1.49,1.18,3.32,1.17,5.02,1.06.89-.06.32-1.08-.04-1.48-.62-.68-1.19-1.38-1.75-2.1-.72-.94-1.69-1.05-2.74-.31-.49.34-1.35.78-1.7.58-.52-.3.1-1.07.07-1.64-.1-2.1-.63-3.91-2.17-5.59-1.65-1.8-1.51-.72-1.88.66-.66,2.43,1.12,3.24,2.63,4.08,1.4.78.78,1.69.51,2.64-.03.11-.23.18-.35.26-.1-.19-.24-.37-.28-.57-.06-.29-.08-.59-.45-.58-.16,0-.43.18-.44.3-.19,2.16-2.17,1.52-3.34,1.98-.54.21-.89.09-.72.77.2.79-.61,1.06-.82,1.63-.51-.31-.02-.86-.24-1.17-.42-.57-.98-1.04-1.44-1.58-.2-.24-.7.4-.63-.22.02-.16.56-.43.79-.38,2.27.53,1.8-.73,1.7-2.2-.13-1.78.21-3.6.17-5.42-.12.78-.21,1.56-.39,2.33-.08.35-.34.67-.53,1-.06-.33-.12-.65-.16-.98-.03-.27-.03-.54-.21-.81v4.28c.02-.06.05-.12.07-.21.15.26.27.42.32.59.02.07-.11.19-.17.29-.09-.16-.2-.32-.26-.49-.01-.03,0-.07.02-.11-.57-1.37-1.01-2.23-.98-3.23.08-2.84-.84-5.71.28-8.52.06-.14-.01-.32.02-.48.14-.74.61-1.59,1.18-1.63,0,0,.01,0,.02,0-.04-.34-.15-.68-.38-.98-.11.42-.33.82-.65,1.17-.98,1.09-1.3,2.37-1.44,3.71-.3,2.87.06,5.71.59,8.53.23,1.21.19,1.66-1.22,1.16-1.71-.61-3.51.58-3.6,2.27-.02.33.2.96.25.96.53-.06.27-.53.3-.82.09-.97.52-1.63,1.44-2.01,1.09-.46,1.6.73,2.49.86.21.03.33.75-.04.75-1.1-.01-.84,2.07-2.27,1.39.04,1.39-1.64.38-2.06,1.63-.78,2.33-3.63,2.48-5.15,4.14-.22.25-.89-.3-.87.44.01.55.35.82.84,1.02,1.93.79,3.72.89,5.23-.85.44-.51,1.19-.68,1.63-.38.56.38-.22.74-.39,1.1-.74,1.54-1.68,3.01-1.08,4.86.19.59-.19,1.06-.61,1.47-.17.17-.64.27-.38.6.27.35.57,0,.83-.16,1.87-1.1,2.97-2.42,1.96-4.8-.43-1-.43-2.59.85-2.84.91-.17,2.84.59,2.81,1.48-.09,2.79.22,5.75-1.86,8.19-1.9,2.23-1.88,5.07-1.78,7.81.02.65.6,1.28.95,1.9.06.11.23.16.35.24.05-.1.15-.21.13-.3-.13-1.07.49-2.09.09-3.2-.3-.84-.9-1.6-.74-2.58.68.63,1.35,1.25,2.03,1.89.19.17.29.6.61.36.15-.11.15-.5.13-.76-.12-1.11-.82-1.87-1.61-2.58-.68-.61-.29-1.34-.2-2.02.02-.17.28-.47.33-.45.57.21.3.89.63,1.25.32.34.65.68.97,1.01.37-.45.03-.87-.05-1.3-.11-.54-.38-1.08-.37-1.62.03-.94.07-2.37.74-2.57.65-.19,1.23,1.16,1.67,1.94.73,1.3.35,2.86.8,4.18.75,2.19.25,4.79-1.31,6.51-.99,1.09-1.96,2.35-1.94,3.93,0,.79.09,1.42-.8,1.72-.12.04-.18.23-.27.35.14.03.29.11.43.09,2.45-.31,4.28-2.71,4-5.23-.04-.4-.23-.83-.13-1.18.24-.88.41-2.27,1.27-2.27,1.07,0,.62,1.3.68,2.09.12,1.51-1.08,2.72-.95,4.25.14,1.61-.59,2.61-2.16,3.13-1.16.38-2.16,3.89-1.48,4.82.06.08.21.17.29.14,1.89-.61,1.14.94,1.2,1.6.11,1.14-.04,2.31-.05,3.47-.02,1.58-.69,2.13-2.14,1.37-.68-.35-1.27-.44-1.86.12l.24.25c.57-.19,1.41-.47,1.51.29.15,1.14-1.54.84-1.87,1.82-.04.13-.51-.25-.63-.55-.11-.3-.16-.61-.23-.92-.43.33-.23.78-.25,1.21-.05,1.15.22,2.35-1.12,3.17-.37.22-2.79.6-.64,1.97-.12.17-.2.42-.37.51-1.8.95-4.86-.72-5.09-2.75-.05-.43.11-1.16-.53-1.12C-.01,65.93,0,66.62,0,67.1c0,.53.19.97.48,1.44,1.23,2.01,3.1,2.45,5.26,2.3.25-.02.5.1.75.15-.09.17-.14.37-.27.51-1.01,1.07-1.4,2.3-.95,3.74.09.29-.37.68.08.8.17.05.46-.36.71-.56,1.41-1.12,1.02-2.74,1.18-4.21.08-.74.37-1.63,1.08-1.7.67-.06.34.93.61,1.39.13.22.12,1.02.51.44.63-.93,1.54-1.76,1.67-2.98.05-.43-.02-.94.67-.73-.04-.29-.08-.58-.12-.88-.09-.71.54-.86.94-1.17.11-.09.47-.01.59.11.48.45-.12.75-.21,1.12-.07.27-.14.54-.2.82,1.08-.53,1.87-1.09,1.02-2.53-.35-.59-.23-1.46-.3-2.2,0-.1.09-.2.14-.3.11.08.29.15.31.26.67,3.12,1.67,6.13,2.68,9.15.56,1.69,1.53,2.24,3.02,2.52,1.24.23,2.1-.55,3.07-1.04.23-.11.23-.65-.19-.54-2.52.64-2.55-1.87-3.55-2.96-.67-.73-1.92-2.61.73-3.08.35-.06,1.1-.59.58-1.02-1.04-.85-2.8-.8-3.53-.34-1.2.76-1.52.15-1.8-.53-.84-2.06-1.15-4.23-.94-6.98.48,3.4,1.15,4.26,3.34,4.65.16.03.42.09.47.01.51-.73-.8-4.11-1.77-4.26-1.16-.18-1.44-.89-1.68-1.84-.54-2.14.67-4,.92-6.01.02-.17.4-.91.6-.13.79,3.04,3.61,5.24,3.55,8.63,0,.47.3,1.02.62,1.39,1.21,1.44,2.08,3.12,2.44,4.89.58,2.8,2.16,4.82,4.26,6.55.7.58,1.44,1.15,2.23,1.59.82.46,1.38,1.35,1.03,1.95-1.36,2.31,0,4.43.17,6.62.02.22.13.42.2.63.19-.12.41-.22.56-.38,1.88-1.88,2.1-3.62.8-6.16-.13-.26-.32-.72-.21-.84.29-.31.55.08.78.25,2.55,1.87,4.3,4.36,5.61,7.19.12.25.16.65.05.89-1.15,2.49-4.32,3.65-6.88,2.59-.63-.26-1.54-.7-1.87.21-.31.86.63,1.15,1.28,1.4.32.13.7.13,1.06.17,2.48.28,4.05-1.34,5.74-2.73.36-.3.9-1.04,1.25-.62.7.85.44,2.05.58,3.1.07.5-.18.72-.64.82-5.03,1.1-10.01,1.05-14.81-.96-1.69-.71-2.59-2.26-2.61-4.12,0-.78.42-1.57-.6-2.05-.54-.25-.99-.24-1.43.16-.76.68-1.01,1.5-.75,2.49.38,1.42,1.23,2.56,2.38,3.37,5.2,3.64,10.94,4.6,17.1,3.25.49-.11,1-.57,1.45-.11.44.46.09,1.05.02,1.59-.33,2.41-3.19,3.19-3.6,5.57-.06.35-.34.66-.52.98.43-.03.88,0,1.29-.11,2.46-.7,3.06-1.76,3.21-5.64.01-.25.12-.5.19-.76.16.1.39.17.46.31.94,1.99,3.11,1.47,4.63,2.28.14.07.37-.02.56-.04-.03-.13-.01-.34-.09-.39-.87-.51-.57-1.57-1.01-2.19-2.45-3.45.72-3.59,2.58-4.51,1.05-.52,1.45.02,1.35,1-.16,1.42.21,2.61,1.01,3.8.69,1.02.27,2.35-.84,2.46-2.34.22-2.52,2.49-3.91,3.56-.32.25.2.39.32.37,1.31-.21,2.76-.07,3.61-1.44.47-.75.86-1.59,1.48-2.18.22-.21.6-1.08,1.01-.6.31.37.57,1.2-.35,1.67-.31.15-1.02.61-.58,1.21.56.76,1.08,1.66,2.07,1.89.37.09.11-.32.03-.49-.96-2.07-.27-4.53-1.51-6.56-.16-.27.13-.81.32-1.77.1.79.11,1.02.16,1.24.36,1.51,1.75,2.05,2.82,1.11.48-.42.53.12.78.31.83.62,1.43,1.6,2.73,1.42,1.7-.24,2.65-2.11,4.51-2,.19.01.55-.51.6-.82.1-.65.96-1.55.39-1.79-.55-.23-.36.99-.67,1.45-.26.39-.79.61-1.23.87-.05.03-.32-.16-.32-.18.11-.25.19-.56.39-.72,1.32-1.06,1.48-2.99,3.05-3.92.48-.28.38-1.26.01-1.79-.49-.7-.66-1.33-.39-2.17.16-.5-.13-1.01-.57-1.36-.2.41-.42.8-.59,1.22-.09.25.12.86-.36.61-.67-.34-1.53-.86-1.7-1.48-.22-.81.91-.42,1.35-.76.21-.17.53-.18.81-.27-.25-.24-.46-.53-.75-.72-.52-.33-1.55.29-1.66-.5-.11-.75,1.07-.61,1.48-1.15.19-.24.49-.4.76-.58,1.87-1.29,3.8-2.33,6.22-1.97,2.49.36,3.03,1.07,2.53,3.48-.11.53-.21,1.2.01,1.64,1.09,2.14.71,3.5-1.72,4.28-1.51.49-1.73,1.25-1.15,2.78.01-.11.04-.21.07-.26.36-.64.36-1.63,1.44-1.61.26,0,.61-.08.54.45-.46.7-.98,1.44-1.85,1.7-.05.01-.07,0-.1-.02,0,0,0,0,0,.01.04.09-.07.28-.16.36-.64.55-.59,1.37-.84,2.07-.06.17-.27.48.23.4,2.54-.39,4.84-3.47,4.53-6.05-.07-.61-.36-1.39.3-1.77.53-.3,1.17,0,1.66.4.74.61,1.75.85,2.46.48.63-.33-.5-.76-.47-1.39.21-4.42-3.05-6-6.31-7.55-.43-.2-1.31-.09-1.22-.58.09-.51.91-.67,1.52-.71.36-.02.72-.01,1.08-.02,2.39-.04,4.88.39,7.08-.75,2.55-1.33,5.14-1.82,7.94-1.29.45.09,1.1-.09,1.29.42.22.58-.58.65-.8,1.05,2.1.84.33,2.56.83,3.78.05.13-.43.48-.67.73-.21-.52-.61-1.05-.6-1.56.02-.99.27-1.98.42-2.97-2.44,2.12-2.13,5.97.6,7.66.15.1.35.13.52.19.02-.15.09-.31.04-.43-.41-1.03.28-1.7.86-2.32,1.43-1.53,1.54-3.15.53-4.93-.17-.3-.24-.65-.36-.97.38.06.8.02,1.12.19,2.99,1.54,6.39,2.33,8.87,4.83,0,0,0,0,0,0,.02,0,.04,0,.05-.01.09-.16.19-.31.28-.47.1.11.2.23.3.34-.19.04-.39.09-.58.13,0,.01-.02.03-.03.04,0,0-.02-.02-.03-.02.06.14.12.27.17.41.35,1.05,3.53,2.11-.01,3.16-.13.04-.23.22-.32.34-1.68,2.16-2.2,4.55-1.36,7.18.23.71.33,1.39-.28,2.01-.16.17-.31.57-.22.73.23.42.54,0,.82-.06.41-.08.9-.4,1.2-.26,1,.44,1.48,4.4.56,5.05-2.93,2.07-6.17,3.11-9.71,1.86-3.07-1.09-4.97-4.33-4.95-7.92.01-2.11,2.62-4.67,4.67-4.58,3.22.13,3.84.87,3.75,4.48,0,.34-.12.68.3.76.29.05.67.04.9-.11.55-.37.81-.94.88-1.62.17-1.75-.31-3.35-1.92-4.06-2.01-.89-4.13-1.62-6.36-.17-5.07,3.28-3.43,10.31-.09,12.74,3.29,2.38,6.76,2.74,10.51,1.32,2.58-.98,2.7-.87,2.45,1.93-.11,1.14-.61,2.71-1.75,2.45-2.51-.57-3.25.65-3.72,2.63-.05.2-.28.36-.42.55-.14.19-.69.09-.43.5.1.16.51.25.75.2,2.05-.41,4.48-.29,4.83-3.25.04-.3.25-.59.42-.85.1-.15.28-.23.43-.35.05.17.16.36.14.52-.2,1.56.57,2.88,1.08,4.24.84,2.22,3.23,2.72,4.96,1.1.3-.28.25-.64-.03-.6-1.86.29-2.3-2.58-4.4-1.89-.48.15-1.19-.91-1.04-1.5.17-.66.75.07,1.16.12.91.09,1.78-.51,2.72-.11.21.09.3-.28.12-.4-1.2-.79-1.77-2.26-2.92-3-1.35-.87-1.94-2.95-.77-4.15,1.4-1.43,2.3-3.17,3.17-4.91,1.46-2.89.91-5.83-.11-8.73-.1-.28-.1-.6-.14-.9.15,0,.34-.09.43-.02.97.74,2.13,1.09,2.68,2.52.65,1.7,1.15,3.46,1.92,5.1.38.79.16.81-.44.73-1.71-.23-2,1.32-2.8,2.21-.26.29.09.54.41.44,1.04-.33,2.25-.33,2.94-1.4.19-.28.43-.78.8-.34,1.15,1.4,2.93,1.53,4.38,2.33.29.16.82.21.74.65-.09.46-.62.37-.99.48-2.52.71-5.37.93-6.09,4.26-.13.62-1.08.89-.88,1.72.52-.15,1.04-.39,1.57-.44,2.55-.27,4.46-1.32,5.08-4.03.17-.71.77-1.14,1.43-1.05,1.58.22,3.13.6,4.5,1.48.32.21.53.55.37.93-.2.48-.62.27-.93.14-.86-.36-2.01-.45-2.14.48-.22,1.52-1.22,3.16.04,4.7.2.24.35.65.72.4.51-.35-.08-.45-.21-.68-.33-.56-.96-1.35-.04-1.65.45-.15,1.41.31,1.83,1.15.38.76.24,1.09-.47,1.36-.38.14-.11.37.03.34,2.01-.33,1.73,1.04,1.77,2.27.01.38.37.74.57,1.11.23-.25.47-.5.69-.76.79-.96,1.5-1.9,1.38-3.31-.04-.5.77-1-.48-1.01-.96,0-.12-1.18-.71-1.56.37-.17.78-.53,1.11-.48.67.11.42.59.2,1-.05.09.06.27.1.41.14-.06.36-.09.4-.2.49-1.16,1.5-1.49,2.52-1.8v-.9c-.07.02-.14.05-.2.07Zm-14.57-14.58c.33-.06.18.25.22.42-.15.4-.16.9-.67,1.03-.05.01-.26-.33-.28-.52-.05-.52.26-.84.74-.93Zm-23.85-18.32c.9-.54,1.53-1.56,2.73-1.53.11,0,.23.11.3.15-.01.41-2.62,1.86-2.92,1.71-.08-.04-.14-.31-.12-.32Zm-37.09,3.2s-.09-.15-.08-.16c.08-.07.18-.12.27-.18.03.06.05.13.09.22-.09.04-.18.09-.28.12Zm1.97-.14c-.49-.29-1.11.29-1.48-.36.57-.23,1.13-.62,1.7-.64.42-.01.85.46,1.28.71-.44.57-1.05-.04-1.5.28Zm1.73,5.18c-.39.07-.47-.08-.43-.31.08-.55.45-.82.96-.91.15-.03.33.05.49.08-.36.4-.72.8-1.02,1.14Zm-17.03-25.14c.1-.21.35-.42.57-.47.16-.04.39.16.39.16-.05.74-.36.61-.61.6-.18-.01-.47-.01-.34-.28Zm-14.75-33.74c.49.36,1.8.1,1.34,1.43-.09.26.81.34.62.91-1.43-.06-1.8-1.45-2.92-1.6.35-.24.45-1.11.96-.74Zm-4.66-5.13c-.33.03-.59-.11-.5-.46.1-.43.35-.82.86-.84.31-.01.63.09.69.53-.17.48-.54.72-1.05.77ZM2.49,23.96c-.06.02-.17-.08-.25-.13.09-.1.17-.24.29-.29.07-.03.2.06.38.13-.17.13-.28.25-.41.3Zm7.17-.56c-.82.67-1.54.12-2.26-.11-.9-.28-1.2-1.07-1.06-1.9.13-.77,1.04-.52,1.54-.83.29-.18,0,.77.59.62-.09.96.49.42.85.38.18-.02.35-.04.53-.06-.07.12-.14.24-.2.35-.07.52.72.98.02,1.56Zm.21-1.06s.11-.13.16-.12c.08.01.15.08.28.16-.15.09-.25.15-.34.21-.04-.08-.1-.16-.1-.24Zm1.01,1.9c-.74-.41-.76-1.21-.26-1.56.31-.22.46-1.66,1.36-.57.56-.23-.32-1,.35-1.08.28-.03.69.35.91.65.38.51.3,1.13-.16,1.52-.62.54-1.01,1.7-2.2,1.04Zm2.04,22.91c-.49.04-.33-.54-.59-.74.13-.16.26-.33.4-.49.2.27.4.54.64.86-.11.1-.27.36-.45.37Zm-3.1,20.54c-.78,0-.94-.57-.97-1.15.02-.4.23-1.03.34-.93.49.41,1.4.44,1.39,1.33,0,.45-.32.74-.76.75Zm4.39-14.7c-.19-.31-.38-.48-.35-.6.05-.18.25-.32.39-.48.08.11.22.23.21.34-.02.2-.12.39-.25.74Zm4.14-19.47c.1-.04.38.03.38.07.09,1.19-.24,2.24-1.11,3.33.1-1.3-1-2.67.73-3.4Zm-1.05,8.23c.02-.21-.01-.52.36-.48.68.07,1.91,2.61,1.58,3.21-.55,1-.83,1.98.27,2.85.54.42.38,1.04.13,1.52-.25.48-.82.4-1.17.17-.85-.56-1.7-1.15-1.9-2.33.61-1.59.54-3.28.72-4.94Zm2.79,13.54c.02.18-.11.37-.17.56-.15-.08-.37-.13-.45-.25-1.28-1.91-2.73-3.74-2.85-6.29.04-.17.11-.43.17-.68.23.14.44.35.69.4,3.93.81,2.37,3.92,2.62,6.26Zm.69,30.83s-.05-.1-.07-.15c-.01,0-.02,0-.04,0,0-.02,0-.03,0-.05-1.17-.77-1.41-1.83-.94-3.12.11-.31.02-.81.57-.7.53.11.53.6.4.96-.33.96-.24,1.9-.03,2.85.01,0,.02.02.03.02v.03c.06,0,.11.02.16.03-.03.04-.05.08-.08.12Zm9.69,4.35c.99-.49,1.83-.91,2.7-.64,1.23.39,2.45.37,3.7.28-2.04.63-4.11.69-6.4.36Zm16.53,6.84c-.15-.14-.25-.22-.34-.31.18-.13.35-.27.54-.37.05-.03.17.09.26.15-.14.16-.27.32-.46.54Zm-25.75-49.09c.26-.44.79-.95,1.23-.99.42-.03.88.51,1.33.8-.58.61-1.4.23-2,.53-.29-.05-.81.07-.56-.35Zm2.44,17.11s-.08-.06-.07-.08c.01-.05.05-.1.07-.16.03.02.05.05.09.08-.03.06-.06.11-.09.16Zm5.04,6.84c-2.24-1.65-3.62-3.97-4.92-6.35-.06-.11,0-.29,0-.44.1.04.25.05.31.13,1.7,2.09,3.85,3.81,5.04,6.3.03.07.06.15.1.24-.03.55-.34.26-.53.13Zm2.13,8.63c-.77-.13-.09-1.17-.47-1.75-.11-.16.36-.7.57-1.07.11.51.23,1.03.34,1.53-.3.42.14,1.38-.44,1.29Zm3.82-6.19c.04-.06.08-.13.13-.19.23-.38.09-1.05.7-1.11.77-.08,1.91-.27,2.13.49.18.62-.94.22-1.44.45-.39.18-.84.2-1.26.3l-.25.07Zm3.84,15.29c-.21-.02-.4-.31-.6-.48.31-.11.62-.26.94-.33.21-.05.5-.09.46.29-.1.44-.48.54-.81.52Zm.43-7.44c-.7-.89-1.27-1.88-1.86-2.86-.16-.26.02-.38.26-.31,1.17.31,2.01.92,2.06,2.34-.04.31-.36.96-.47.83Zm.17-3.6c-1.12-.76-2.23-1.53-3.35-2.3.78-.98,2.13-1.16,2.95-2.19.36-.46.44-.38-.02-.69-1.79-1.19-3.5-1.42-5.22.17-.72.66-3.05-.13-3.43-1.2-.81-2.32-2.19-4.19-3.98-5.87-1.92-1.81-3.59-3.87-4.35-6.49-.12-.4-.21-1.15-.06-1.22.55-.26.6.43.87.71.86.89,1.5,1.91,1.97,3.09.68,1.69,3.7,2.37,5.19,1.29.52-.38.1-.58-.11-.83-.68-.78-1.4-1.53-2.05-2.34-.45-.57-1.01-.9-1.66-.59-1.91.9-2.72-.6-3.39-1.74-.61-1.04.93-.36,1.15-1.06-.88-.14-1.86-.21-2.31-1.19-.07-.16-.06-.36-.09-.55.14,0,.39-.07.42-.02.6,1.1,2.11.67,2.79,1.67.28.41.83.58,1.27.21.36-.29.6-.73.89-1.1-.38-.18-.75-.45-1.16-.52-.6-.11-.96-.83-1.66-.62-.65.2-2.66-1.28-2.57-1.89.05-.33.25-.16.42-.14.26.03.42.63.76.13-.66-1.03-1.87-1.72-1.85-3.17,0-.37-.33-.83.16-1.05.51-.23.97.04,1.19.51.4.85,1.01,1.32,1.95,1.32.63,0,1.4.17,1.74-.49.32-.63-.51-.88-.74-1.35-.15-.31-.56-.8-.5-.86.35-.37.75,0,1.07.16,1.47.7,3.34.75,4.22,2.47.11.21.36.55.3.62-1.36,1.57-.2,3.47-.67,5.14-.06.21-.05.43-.07.65.26-.03.56,0,.79-.09,1.99-.89,2.52-3.47,1.06-5.15-.25-.29-.74-.63-.42-.99.35-.4.71.11.98.34,4.46,3.78,7.89,8.17,8.14,14.32.11,2.72,1.92,4.98,1.9,7.75-.01,1.8-.42,3.47-.91,5.15-.17.59-.52.63-1,.38-.21-.11-.43-.21-.63-.34Zm4.6,12.37c.16.32.28.66.45,1.09-.08.09-.18.31-.29.31-.17,0-.4-.11-.49-.25-.2-.33-.26-.74-.48-1.04-.29-.41-.68-.76-1.03-1.13.09-.05.19-.16.26-.14.66.2,1.24.53,1.57,1.17Zm2.51-5.38c-1.5.91-3.09,1.62-4.72,2.01-.52.02-.87-.13-1.14-.46-1.08-1.33-1.14-4.62-.09-5.93.11-.13.31-.27.46-.27,1.73,0,4.95,2.23,5.6,3.83.13.32.24.61-.11.83Zm1.28-.76c-.71-.35-1.16-1.26-1.64-1.98-.2-.3.18-.2.36-.24,1.05.31,2.12.63,3.18.95.22.06.4.23.19.41-.61.52-1.43,1.18-2.09.86Zm1.07,2.17c-.09-.35.17-.47.44-.57.21,0,.46.02.36.28-.09.23-.33.41-.5.61-.1-.11-.26-.2-.3-.32Zm1.48,4.45c-.46-.54,1.01-1.4-.45-1.58-.11.11-.22.21-.32.32.06-.14.12-.27.18-.41.17-.53.35-1.07.88-1.34.03-.02.43.52.54.83.33.95-.35,1.5-.82,2.17Zm8.71-1.48c-.15-.08-.26-.24-.38-.37.11-.08.26-.25.33-.23.15.05.27.21.51.43-.24.09-.39.21-.46.17Zm2.88-4.5s0-.02,0-.03c.02-.02.04-.03.07-.03.08-.11.15-.23.23-.34.08.12.26.28.23.36-.13.35-.3-.02-.46-.02-.01.02-.03.04-.04.06-.01,0-.02,0-.03,0-.07.77-.06.76.64.85.07,0,.16.3.16.46.03,1.68-1.38,2.08-2.47,2.76-.07.05-.23-.03-.34-.05.07-.12.12-.27.22-.37.28-.26.58-.5.87-.74.41.9.51-.07.51-.13-.04-.63-.08-1.27-.26-1.86-.09-.29-.44-.6-.73-.69-.61-.19-.34.48-.46.7-.54,1.01-1.23,1.37-2.32.89-.11-.05-.41.08-.44.16-.15.66-.27,1.27.3,1.88.65.71,1.94,1.33.77,2.61-.15.16-.33.41-.49.41-.32,0-.16-.37-.24-.52-.25-.47-.61-.89-.95-1.31-.06-.08-.21-.08-.33-.11-.03.15-.13.36-.07.44.78,1-.49.87-.75,1.18-.48.57-.48-.2-.67-.46-.56-.77-2.1-1.31-.57-2.56.06-.05.02-.35-.07-.43-.63-.53-1.36-1.19-.74-1.95.72-.9,1.6-1.94,3.07-1.27.06-.05.12-.11.19-.16-.92-.51.42-1.79-.75-2.21.12-.06.23-.15.35-.19.72-.2,1.76.14,1.61-1.34-.03-.36,1,.21,1.56.27.72.08.95.79.64,1.37-.42.78-1.04,1.45-1.54,2.19-.12.17-.93.14-.27.53.24.15.76,1.03,1.04.25.6-1.66,1.63-.68,2.53-.59Zm4.24-21.85c.03.07.08.13.08.2,0,.11-.03.21-.07.46-.05-.25-.09-.35-.09-.46,0-.07.05-.13.08-.2Zm.54.48c-.05-.12-.02-.27-.03-.41.11,0,.31,0,.31.02.16,1.04,1.59,1.32,1.46,2.82-.49.73-1.06,1.75-1.8,2.64-.35.43-.75-.11-1.1-.35-1.13-.77-.49-1.65.12-2.08,1.04-.71,1.54-1.42,1.03-2.64Zm-1.46.6c-.13-.05-.32-.06-.37-.15-.65-1.17-1.81-.91-2.81-1.14,1.19-.28,2.39-.6,3.18.74.08.14,0,.36,0,.55Zm-7.54,2.72c-.32-.33-.7-.62-.95-1.01-.13-.21,0-.64.37-.56.59.12.52.72.67,1.26-.01.05-.05.18-.09.31Zm-.81-2.6c-.05-.12-.17-.25-.15-.36.07-.66.24-1.32.99-1.46.33-.06.72.17,1.3.32-.92.46-1.69.77-2.13,1.49Zm1.84,3.45c-.55-.21-.51-.68-.54-1.54.49.73.71,1.07.94,1.4-.13.05-.3.18-.4.14Zm.55-1.95c-.56-.06-.88-.37-.9-.93-.03-.69.38-.55.79-.37.11-.31.24-.61.32-.93.77-3.01,2.9-3.83,5.45-2.1.14.09.2.3.3.46-.16.08-.34.25-.49.22-.54-.1-1.12-.17-1.61-.41-1.72-.83-2.52.38-2.89,1.57-.34,1.1,1.15,1.21,1.67,1.23,1.16.03,2.19,1.62,3.43.33.15.2.3.41.45.61-.65.35-1.28.77-1.97,1.04-.52.2-.7-.32-.97-.67-.82-1.07-2.16-.64-3.24-.97-.44-.13-.15.56-.26.86.23-.01.48.02.7-.05.6-.21,1.18-.29,1.58.3.17.25-.16.48-.37.44-.69-.12-1.6.45-1.99-.61Zm2.71,2.87c-.09-.09-.27-.23-.32-.2-.75.48-1.34.57-1.34-.58,0-.98.73-1.1,1.46-1.13.38.05.74.15,1.09.14.68-.03,1.01.38,1.25.91.09.2.12.62-.16.54-.74-.2-1.19,1.08-1.98.32Zm11.07,10.63c.49-.26.22.29.31.51.06,0,.13.02.21.07,0,0,.01,0,.02,0,1.05-.21.84.75,1.03,1.21.26.63.69,1.3.43,2.03-.11.3-.27.02-.39-.12-.73-.91-1.58-1.77-1.05-3.1-.02-.01-.03-.01-.05-.02-.12.03-.19,0-.21-.07-.38-.02-.36.64-.76.6-.22-.47.04-.89.46-1.11Zm-.94-6.4c-.1.01-.2-.01-.34-.02.06-.07.09-.14.13-.15.1,0,.2.02.29.03-.03.05-.05.13-.09.14Zm.9-.19c-.13,0-.27-.04-.4-.07.07-.06.12-.16.2-.18.13-.03.26,0,.55,0-.21.16-.28.25-.35.26Zm.94.62c.48-.49,1.01-.6,1.66-.54-.43.62-.96.73-1.66.54Zm5.55-.88c-.71.22-1.41.46-2.13.64-.22.06-.49-.05-.74-.08.16-.21.3-.56.49-.59.79-.12,1.59-.14,2.39-.2,0,.08-.02.16-.02.23Zm3.13-1.6c3.04-.16,5.64.37,8.15,1.37-2.61-.44-5.21-.88-8.15-1.37Zm11.47,2.75c-.95-.06-1.77-.41-2.55-1.04.13-.04.17-.07.21-.06.89.01,1.69.27,2.38.83.04.03-.03.27-.04.27Zm1.41,1.03c-.18-.09-.29-.29-.44-.45.09-.08.19-.16.49-.42.14.26.25.46.36.66-.14.07-.33.24-.42.2Zm4.95,7.51l.03.06-.05-.03c.4.72-.25,1.02-.59,1.45,0,0-.26-.12-.28-.21-.19-.75.45-.94.89-1.27Zm1.78,11.83c-.14.3-.48.49-.73.74-.19-.28-.41-.54-.54-.84-.16-.36-.29-.75-.34-1.14-.1-.87-1.93-3.14,1.2-1.56.33.17.61-.04.39-.4-.72-1.15-1.13-2.64-2.95-2.58-1.26.04-1.05-1.12-1.27-1.82-.29-.95-.14-1.93.65-2.65.27-.24.41,0,.48.9.02.22.08.44.12.65.18-.13.4-.23.53-.4.62-.82,1.48-1.46,1.79-2.51.06-.22.35-.37.54-.55.18.2.4.38.52.61.83,1.59,1.3,3.26,1.07,4.93.16,2.45-.48,4.58-1.47,6.61Zm9.42,4.67c-.08.09-1.22.16-.1.52.03,0,.03.23.01.23-.45.14-.9.28-1.35.39-.03,0-.18-.22-.15-.27.33-.54.72-1.04.3-1.74-.04-.07.51-.67.84-.72.7-.11.14.37.16.58.06.65.77.09.99.55-.26.16-.53.27-.71.46Zm5.56-3.11c-.35-.12-.79-.22-1-.48-.18-.22.22-.24.35-.2.4.11.78.28,1.55.57-.57.08-.76.16-.89.11Zm.87,4.68c-.04.07-.5-.31-.45-.67.09-.66.52-.92,1.15-.92.47.04,1.19.07,1.12.59-.13.9-1.38.29-1.82,1.01Zm4.69,3.36c-.16.52-.4,1.05-1,.97-.46-.07-1.26-.27-1.14-.8.12-.51.87-.78,1.49-.81.4-.03.67.18.65.64Zm.25-3.57c-.64-.34-1.68-.2-1.81-1.25-.05-.46.34-.55.81-.56.51.33,1.31.42,1.51,1.2.07.27-.2.78-.51.61Zm1.41-2.05c.05-.91-1.18-.08-.89-1.04.07-.23-.1-.79.42-.65.53.15.7.71.88,1.18.03.07-.17.23-.41.51Z"/>
      <path class="cls-1" d="m99.11,78.5s-.04,0-.05.01c0,0,0,0,0,0,0,0,.02.02.03.02,0-.01.02-.03.03-.04Z"/>
      <path class="cls-1" d="m20.66,85.91s0,.03,0,.05c.01,0,.02,0,.04,0v-.03s-.03-.02-.05-.02Z"/>
      <path class="cls-1" d="m11.99,22.11s0,0-.01-.01c0,0,0,0,0,0h.02Z"/>
      <path class="cls-1" d="m54,65.88s.01-.02.01-.03c-.02.01-.04.03-.06.05l.04-.02Z"/>
      <path class="cls-1" d="m75.03,72.55s.02.09.03.14c.1-.07.21-.14.33-.22-.13.03-.24.05-.36.08Z"/>
      <path class="cls-1" d="m66.44,60.98s-.01,0-.02,0c0,0,0,0,0,0,0,0,.01,0,.02,0Z"/>
      <path class="cls-1" d="m118.8,93.16s-.02-.01-.03-.02c-.01,0-.01-.01-.02-.01,0,.02,0,.03,0,.05.02,0,.03,0,.05-.01Z"/>
      <path class="cls-1" d="m12.31,14.88v-.11s-.01.05-.02.07c0,.02.01.03.02.04Z"/>
      <path class="cls-1" d="m33.4,47.32s0-.02,0-.03c-.01,0-.02.01-.04.02,0,0,0,.01,0,.02.01,0,.02,0,.03-.01Z"/>
      <path class="cls-1" d="m12.77,67.71c-.32.44-.64.47-.95-.01,0,0-.02.04-.02.04.33,0,.66,0,.99,0l-.02-.02Z"/>
      <path class="cls-1" d="m9.73,62.27c-.22.22-.42.48-.79.3.18-.18.37-.36.55-.54l.24.25Z"/>
      <path class="cls-1" d="m18.98,25.5c.55-.1.96-.3.73-.98.55.75,2.07,1.07,1.15,2.46-.19.29-.65.57-.97.55-.41-.02-.13-.54-.24-.8-.18-.43-.44-.82-.67-1.23Z"/>
      <path class="cls-1" d="m12.66,9.47c.09-.12.19-.2.18-.26-.01-.07-.13-.17-.2-.17-.07,0-.19.11-.19.17,0,.07.11.14.21.25Z"/>
      <path class="cls-1" d="m56.91,79.49c-.09-.09-.18-.18-.27-.27.28-.1.37,0,.27.27Z"/>
      <path class="cls-1" d="m118.54,91.72c-.09-.09-.19-.19-.28-.28.09.09.19.19.28.28Z"/>
      <path class="cls-1" d="m53.96,65.9l.04-.07s0,.04,0,.05c0,0-.04.02-.04.02Z"/>
      <path class="cls-1" d="m23.1,54.53c-.54-.11-.95-.31-.74-.98.25.33.49.66.74.98Z"/>
      <path class="cls-1" d="m23.8,55.5c-.11-.16-.52-.18-.24-.53.19.12.51.19.24.53Z"/>
      <path class="cls-1" d="m23.59,55.01c-.25.07-.4.03-.28-.28.09.09.19.19.28.28Z"/>
      <path class="cls-1" d="m23.35,54.77c-.29.11-.38.01-.28-.28.09.09.19.18.28.28Z"/>
      <path class="cls-1" d="m56.46,85.41c.3.2.58.42.53.84,0,.05-.11.1-.16.15-.19-.27-.37-.55-.56-.82.06-.05.12-.11.19-.16Z"/>
      <path class="cls-1" d="m56.43,87.98c-.02.11-.05.23-.07.34.04-.12.08-.24.12-.35,0,0-.04.02-.04.02Z"/>
      <path class="cls-1" d="m56.48,87.97s-.03.02-.04.02c0,0,.04-.02.04-.02Z"/>
      <path class="cls-1" d="m11.97,22.11s.05-.03.07-.04c-.02.02-.04.03-.05.05,0,0-.02,0-.02,0Z"/>
    </g>
  </g>
</svg>
