<?xml version="1.0" encoding="UTF-8"?>
<svg id="Layer_2" data-name="Layer 2" xmlns="http://www.w3.org/2000/svg" viewBox="0 0 126.61 105.76">
  <defs>
    <style>
      .cls-1 {
        fill: currentColor;
        stroke-width: 0px;
      }
    </style>
  </defs>
  <g id="Layer_1-2" data-name="Layer 1">
    <g>
      <path class="cls-1" d="m126.35,64.31c-.89.51-1.59-.35-2.41-.33-.34,0-.93-.02-.97-.15-.12-.47.41-.6.69-.83,2.52-2.01,3.22-3.64,2.46-5.91-.17-.52-.37-1.08-.93-1.34-.06-.03-.31.19-.3.2.3.57-.88,1.06,0,1.76.35.28.6,1.23.04,1.75-.46.43-.48-.32-.73-.48-.22-.14-.33-.44-.48-.67-.15.32-.36.62-.44.96-.1.46-.2.95-.13,1.41.37,2.35-3.3,5.38-5.58,4.56-2.71-.97-4.52-2.91-5.77-5.43-.17-.34-.81-.74-.24-1.07.42-.25.77.34.93.73.97,2.38,3.02,2.6,5.17,2.6.29,0,.72-.14.83-.35.22-.42-.3-.44-.52-.62-1.65-1.31-3.08-2.63-5.55-2.81-2.62-.19-4.38-7.4-2.62-9.52.6-.72.59-.04.84.24.4.44-.16,1.78,1.45,1.19.82-.3.37.91.19,1.33-.29.67-1.22,1.17-.67,2.05.35.55.33,1.02.15,1.58-.06.2-.03.44-.04.66.22-.04.52,0,.66-.14.66-.6,1.2-.41,1.86.05.4.27,1,.48,1.47.15.32-.23.04-.63-.15-.83-.69-.73-.7-1.24.33-1.62.36-.13.54-.47.47-.88,0-.01-.18-.03-.23,0-.4.31-.98.85-1.26.2-.24-.56.29-1.12,1.03-1.35.48-.15.72-.91.52-1.18-.35-.47-.28.4-.6.38-.18-.01-.45.03-.51-.06-.11-.18-.08-.43-.12-.65-.08-.4.95-.25.43-.69-.22-.18-1.2-.41-1.27.62-.02.34-.44.28-.7.21-.25-.06-.63-.05-.59-.45.02-.21.18-.41.27-.62.14-.34.97-.04.7-.51-.19-.33-.88-.15-1.34.06-.42.19-.6,1.17-1.18.62-.59-.56-1.04-1.52-.71-2.29,1.38-3.22,1.61-6.65,2.02-10.06.04-.38.09-.89.55-.97.48-.09.83.29,1.03.69.23.45.46.95.5,1.44.16,1.91,2.3,3.63,4.14,3.27.29-.06.71-.2.35-.47-.9-.69-.75-1.93-1.52-2.65l.02-.03c-.28.09.16,1.07-.61.52-.26-.19-.88.12-.79-.38.1-.53.59-.52,1.01-.21.05-.05.09-.1.14-.16-.05-.36-.61-.69-.18-1.07.35-.31.8-.45,1.33-.28,2.07.67,4.47-.55,5.24-2.62.1-.27.25-.47-.21-.6-2.99-.8-4.37-.31-6.42,2.32-.52.66-1.4.94-1.89.48-.7-.65-2.12-.24-2.22-1.89-.12-2.04,1.17-3.87.54-6.31-.4,1.54-.7,2.71-1.01,3.89-.13.49-.01,1.19-.6,1.33-.7.16-.81-.63-1.12-1.04-.21-.28-.3-.65-.42-.99-1.16-3.53-2.82-6.87-2.01-10.89.52-2.62,1.19-5.04,2.71-7.21.14-.2.43-.29.65-.43-.02.27,0,.55-.08.8-.28.96-.75,1.73.37,2.73.56.5,1.43,1.66,1.01,2.89-.11.31-.16.64-.24.96.52.04.78-.3,1.05-.67.15-.21.36-.37.55-.56.01.31.05.62.03.92-.22,2.63-.45,5.25-.71,8.28.37-.88.57-1.37.78-1.85.15.52.34,1.02.45,1.55.28,1.36,1.39,1.87,2.43,2.46.23.13.62.11.48-.17-.58-1.22.18-2.92-1.1-3.79-2.23-1.51-2.17-3.78-1.91-5.9.37-2.94.27-5.89.53-8.83.07-.76.08-1.52.5-2.18.02-.02.3.04.35.13.47.77.52,1.57.17,2.4-.09.22-.19.44-.25.67-.04.14-.26.34.13.41,1.11.2,1.49,1.69.69,2.61-.71.82-.59,5.81.14,5.8,2.41-.05.99,1.6,1.29,2.45.11.3.12.63.21.93.07.23.17.61.29.62.38.04.27-.4.41-.59.71-.91.65-3.35,2.85-1.41.62.55,1.8.5,2.15-.19.31-.61-.73-.96-1.29-1.26-.59-.31-1.11-.25-.33-1.18.75-.9,1.49-2.38-.59-3.05-.32-.1-.76-.38-.67-.87.07-.38.36-.62.77-.65.51-.03.83.19.92.72.03.18-.12.55.28.45.11-.03.23-.33.23-.5-.01-.85-.53-1.42-1.32-1.39-.61.02-1.14.12-1.63-.35-.09-.08-.34.01-.52.03.1.19.16.41.3.56.22.24.53.48.16.78-.27.22-.76.46-.97.12-.72-1.17-1.03-.15-1.41.23-.27.27-.4.72-.88.71-.09,0-.26-.23-.23-.32.1-.41.22-1.14.4-1.16,1.09-.13,1.23-1.17,1.97-1.71-.56-.2-1.25.31-1.47-.58-.36-1.52-.49-3.15.23-4.45.6-1.1.25-2.09.37-3.11.03-.31-.37-.66-.57-.99-.17.24-.31.51-.51.73-.49.53-.79,1.86-1.28,1.57-.73-.42-.45-1.58-.17-2.44.15-.45.31-.91.5-1.34.11-.24.29-.45.45-.68.13.23.25.45.38.68.19.32.53.99.61.86.92-1.46,1.28.09,1.81.33.88.39,1.62,0,2.38-.27.19-.07.48-.32.19-.54-.76-.58-1.44-1.51-2.61-.92-.56.28-1.11.54-1.62-.04-.67-.77-.38-1.72-.25-2.53,0-.03.02-.05.03-.07-.27-.14-.54-.27-.81-.38-.03.04-.05.08-.08.12-.36.48-.17,1.36-1.16,1.37-.19,0-.34.16-.42-.14-.09-.32.11-.74-.32-.95-.07.4-.11.81-.22,1.19-.14.51.09,1.41-.52,1.43-.66.02-1.4-.36-1.68-1.22-.3-.94-.96-1.53-2.38-1.6.84.33,1.51.63,1.28,1.23-.2.54-.95.51-1.46.4-.52-.12-1,.04-1.31.29-.88.72-.89.09-1.04-.62.21,2.1-.8,3.74-2.13,5.65.86-.37.8-1.45,1.45-.88.5.44.26,1.18.04,1.81-.1.29-1.19.26-.32.81.56.35,1.34.32,1.65-.28.59-1.12,1.6-.45,2.38-.72.07-.02.35.26.36.4,0,.55-.48.81-.84,1.06-.43.29-1.05.48-.92,1.09.14.67.79.31,1.22.36.97.1.61.66.34,1.08-1.08,1.7-2.7,2.43-4.66,2.43-1,0-1.94.2-2.61.95-.38.42-1.21,1.18.29,1.28.13,0,.34.09.36.18.15.59-.41.88-.68,1.22-.6.77-1.28,1.52-2.22,1.94-.25-.61.32-1.02.39-1.55.03-.22.1-.43.16-.65-.39-.07-.44.26-.56.48-.47.87-.89,1.74-1.55,2.53-.48.57.49.66.75.62,3.74-.48,2.15.74.86,2.29-1.39,1.67-1.66,3.82-1.66,5.97,0,.42.09.5.47.36,2.39-.92,3.79-3.81,3.06-6.32-.33-1.13.07-2.1.93-2.77,1.3-1.01,2.27-2.22,2.93-3.72.1-.23.32-.41.49-.61.14.27.27.53.41.8.02.03.02.08,0,.12-1.59,4.34-.03,8.99-1.29,13.37-.24.83-.4,1.75-.32,2.6.17,1.9.67,3.81-1.64,4.88-.3.14-.51.76-.52,1.16-.08,2.33-1.34,3.37-3.51,3.98-1.69.48-3.21,1.57-4.81,2.37-.66.33-1.46.59-2.03.05-.59-.57.23-1.03.47-1.51.29-.61.46-1.19-.02-1.77-.51-.63-1.1-.69-1.8-.31-.26.14-.76.37-.83.28-1.63-1.87-1.48.19-1.93.86-.2.3-.28.69-.53.93-.49.49-1.13.96-.68,1.71.47.79,1.35.99,2.22.87,1.06-.15,2.69-.68,3,.06.36.82-1.07,1.74-1.8,2.54-1.11,1.22-2.24,2.35-4.19,1.97-.97-.19-1.66.66-2.32,1.3-.7.68-1.37,1.39-2.5.98-.14-.05-.34.1-.51.15.11.18.19.43.35.53,1.33.87,2.78,1.16,4.34.77.33-.08.68-.07,1.02-.1-.08.37-.14.75-.25,1.11-1.44,4.98-2.94,9.95-2.64,15.23.04.63.22,1.26.31,1.89.09.7,1.57,1.58-.23,2.04-1.51.39-3.28,1.75-4.21-.68-.62-1.61-1.93-2.49-3.08-3.56-.73-.68-1.32.4-2.06.45-.29.02.39.5.53.84.68,1.71.96,3.69,3.17,4.33.36.1,0,.42-.21.42-1.64-.04-3.62,1.25-4.69-1.3,0,.24-.02.32,0,.39.2.6.76,1.13.36,1.85-.45-.86-1.69-.1-2.07-.98-.27-.62-.85-.27-1.23-.53-.62-.41-1.51-.71-1.14-1.63.35-.86,1.18-1.17,2.1-.72.55.26,1.07.57,1.6.86-.73-1.52-1.88-1.85-3.34-1.09-1.49.78-3.55.25-4.49-1.29-.33-.54-.57-1.14-.74-1.75-.3-1.05-.71-2.27,1.24-1.32.31.15.86-.03,1.24-.19.62-.26,1.11-.09,1.24.48.57,2.47,3,1.28,4.33,2.23.02.01.28-.23.26-.28-.6-1.22-.24-2.99-2.01-3.55-.28-.09-.7-.12-.59-.56.02-.09.49-.15.72-.09,1.92.55,3.56-.54,5.32-.9.57-.12.28-.49.21-.74-.37-1.39-1.49-2.07-2.74-2.13-.79-.04-1.16-.45-1.55-.87-.38.33-.62.78-1,1.08-.23.18-.38.74-.83.34-.37-.33-.61-.9-.28-1.22.55-.53.28-1.19.47-1.76.11-.33-.2-.93.29-1.1.5-.17.83.36,1.3.59-1.68-1.06-1.62-3.26-3.09-4.44-.24-.19-.7-.68-.81.17-.05.37-.41.33-.51.18-2.13-3.23-4.97-1.05-8.02-1.05.93.24,1.38.36,1.84.47-.21.17-.48.52-.63.48-.76-.23-1.31,1.38-2.13.23-.05-.04-.09-.09-.14-.13-.6.95-1.78,1.01-2.57,1.67-.4.34-.72.73-.62,1.42.18-.2.32-.33.42-.48.47-.73,1.1-1.15,1.99-1.08.1,0,.19.09.29.14-.42.56-.77,1.21-1.28,1.67-.42.37-.67.7-.41,1.2.28.55.17,1.01-.22,1.42-.1.1-.41.16-.49.09-.39-.36-.37-.85-.33-1.34.02-.31,0-.63,0-1.55-.91,2.55.3,4.22.68,6,.02.11.24.17.37.25.03-.14.1-.27.09-.41-.03-.49-1.19-1.11-.17-1.35.67-.16,1.84.32,2.14,1.3.17.56.43.58.84.54.94-.09,2.01-.61,2.48.79.01.04.14.05.21.08.4.14,1.13-.88,1.15.13.02.85-.98,1.28-1.76,1.29-1.33.02-2.73,0-3.53-1.43-.08-.14-.34-.17-.56-.27.74,1.83,2.61,2.59,4.79,1.99.39-.11.94-.52,1.11.12.25.91.49,1.89.36,2.79-.06.39-.89-.13-1.33-.31-3.6-1.49-6.93-3.64-10.88-4.23-.08-.01-.21-.01-.23-.05-.44-1.3-.89-2.59-1.29-3.9-.06-.18.18-.33.41-.18.23.14.07.73.5.52.09-.04-.06-.72-.18-1.08-.27-.81-.6-1.61-.91-2.42-.58.79-1.25,1.53-1.73,2.38-.6,1.08-1.16,2.23-.31,3.48.64.95-.29.71-.62.82,1.29.28,2.63.58,3.97.87-.02.12-.04.23-.05.35-1.88-.27-3.77-.54-5.65-.81-.19-.03-.46-.05-.07-.25.14-.07.28-.14.42-.21-.14-.06-.28-.18-.43-.18-2.8-.09-4.6-1.7-6.06-3.89-1.2-1.79-3.1-2.42-5.07-2.9-.33-.08-.69-.23-.58.46.44,2.69,1.7,3.9,4.4,4.09.28.02.56.06.82.16.54.2,1.18.23,1.54.79-.42.16-.96.21-1.25.5-1.27,1.32-2.92,1.49-4.58,1.66-.63.06-1.26-.14-1.59-.66-.4-.62.5-.63.65-1.02.27-.71.68-1.48-.5-1.74-.49-.11-.54-.55-.79-.83-.47-.52-.95-.78-1.42,0-.12.68.93.05.79.69-.09.41-.29.8-.46,1.19-.02.03-.26.02-.27,0-.07-.34-.14-.68-.16-1.03-.01-.29.04-.57.07-.86-.51.36-.73,1.84-1.74.45-.15-.2-.53,0-.67.29-.17.35-.34.71-.51,1.07.26,0,.54.06.79,0,.39-.08.67.05.76.39.16.62-.45.96-.78,1-1.04.13-.32.42-.09.6.63.49,1.37.66,2.14.49.73-.16,1.61-.01,1.83.52.25.63-.78.62-1.17,1.01-.29.29-.61.56-.91.84,1.5-.24,2.61-1.65,4.59-1.39-1.9.94-3.55,1.76-5.21,2.57-.14.07-.34,0-.51,0,.15-.24.3-.49.45-.73-2.36.97-3.99,2.81-5.54,4.72-.69.85-1.39,1.49-2.45,1.94-1.78.77-2.96,2.25-3.5,4.17-.15.55-.41,1.03-.9,1.36-.21-.37-.43-.73-.65-1.1-.67-1.11-1.87-1.58-2.86-2.31-.22-.16-.52-.11-.47.24.23,1.5.08,3.2,1.93,3.92,1.29.49,1.56,1.44.94,2.57-.75,1.36-1.92,2.33-3.34,2.97-.17.07-.36.08-.54.12.05-.17.06-.37.16-.51.68-.97,1.21-2.1,2.48-2.49.6-.18.69-.72.82-1.22.02-.08-.07-.19-.11-.29-.32.23-.63.48-.96.69-1.28.82-2.22,1.91-2.78,3.34-.37.96-1.15,1.55-2.12,1.45-.91-.09-.55-1.05-.68-1.64-.18-.81-.8-.73-1.31-.66-.88.13-1.73.58-2.62,0-.12-.08-.42.09-.64.15.13.16.24.38.41.48.33.19.86.2.74.76-.05.25-.26.58-.47.65-.64.21-.34-.45-.53-.66-.39-.43-.34-.02-.47.21-.47.84-1.46.98-2.19,1.48-.29.2-.6-.08-.68-.45-.18-.86.23-1.4.89-1.92.4-.32,1.49-.04,1.19-.5-.51-.77-1.29.05-1.82.43-.69.5-1.28,1.18-.67,2.13.29.46-.09.54-.34.7-.59.39-.99,1-.75,1.62.7,1.79-.7,2.1-1.69,2.45v.9c.78-.24,1.56-.48,2.11-1.07.13-.14.65-.16.76-.04.36.43-.23.45-.39.65-.82,1.04-.59,2.25-.36,3.34.11.52.99.18,1.52.19.66.01,1.01-.57,1.43-.99.22-.21.47-.39.71-.59,0,.31.05.64-.03.93-.36,1.32.43,1.93,1.46,2.37.49.21,1.22.77,1.49.27.49-.9.57-2.01.03-2.99-.21-.37-.56-.66-.83-1.01-.75-.96.41-1.28.69-1.87.16-.33.59-.3.75.09.79,2.05,2.43,1.81,4.11,1.6,1.43-.18,2.35-.45.79-1.89-.26-.24-.91-.76-.54-1.01.46-.3,1.22-.14,1.84-.19.45-.04.55.15.67.59.51,1.85,2.38,1.52,3.65,2.13.07.03.47-.35.44-.4-.54-1.11-1.03-2.29-2.06-3.03-.79-.57-1.73-.66-2.58-.08-.43.3-.75.36-1.15-.01-.44-.42-.22-.75.04-1.15.46-.69.73-1.58,1.34-2.09.92-.77,1.37-3.36,3.39-1.06.46.52,1.46.57,2.22.81.24.07.77.03.52-.31-.65-.88-.92-2.32-2.31-2.32-1.19,0-1.29-.23-.66-1.16.25-.38.27-.91.43-1.36.47-1.34.84-2.73,1.49-3.97.52-1,1.7-1.88,2.63-1.77.61.07-.21,1.44-.39,2.21-.91,3.78-.36,7.4,1.64,9.21-.25-.65-.44-1.12-.61-1.59-.09-.27-.4-.55-.04-.8.03-.02.39.34.51.57.38.68.71,1.38,1.07,2.07-.06-.86-.35-1.59-.62-2.34-1.11-3.1-.96-7.12.32-9.31.19-.33.17-.88.68-.87.49,0,.46.58.69.89.42.57.83,1.16,1.27,1.71.24.31.59.85.79.8.53-.12.1-.67.22-1.02.09-.24.1-.7.47-.43.66.49.84,1.27.71,2.05-.15.88-.14,2.36-1.06,2.31-1.77-.09-2.27,1.03-2.96,2.12-.16.26-.43.73-.35.81.3.3.65,0,.98-.11.47-.17.9-.62,1.46-.21-.85,1.13-.45,2.93-1.62,3.72-.75.51-.36.63-.15.99.33.57,1.2.71,1.21,1.54-.89-.08-1.35-.76-1.85-1.36-.15-.18-.15-.49-.23-.73-.15,1.17.46,1.69,1.02,2.26.83.84.93,3.78.1,3.88-1.94.24-1.94,2.55-3.55,3.05-.15.05-.2.4-.29.61.11,0,.24.04.34,0,1.13-.45,2.34.6,3.49-.22.44-.32.42.24.32.43-.36.73-.61,1.62-1.77,1.38-.6-.12-1.24-.08-1.59.55-.42.75-.88,1.3-1.86,1.16-.24-.03-.84.1-.37.65,1.16,1.33,3.69,1.35,4.56-.09.8-1.32,1.33-2.8,1.6-4.35.08-.44-.22-.94.24-1.31.25.39.57.76.73,1.18.85,2.21,2.63,3.38,4.96,3.2.22-.02.43-.15.65-.23-.05-.11-.07-.29-.14-.31-.84-.24-.81-.99-1-1.62-.44-1.49-1.32-2.3-2.94-1.71-.65.24-1.05.02-1.45-.45-.68-.81-.84-1.73-.88-2.78-.06-1.66.15-2.19,2.03-1.4,5.98,2.53,11.39.51,13.46-4.81,1-2.58.98-5.02-.82-7.33-2.03-2.6-4.57-2.86-7.5-1.94-2.16.68-3.36,3.91-2.06,5.72.28.38.61.64,1.11.55.28-.05.68-.16.55-.48-.35-.87.39-1.6.22-2.45-.09-.44-.01-.92-.01-1.37-.29.33-.59.67-.89,1.01-.03-2.2,1.55-3.2,5.11-2.81-1.25.2-1.94.28-2.61.43-.33.07-.72.11-.83.55.3,0,.59.02.89.03,1.35.03,2.73-.62,4.03.43,2.44,1.98,2.91,4.34,1.85,7.24-2.44,6.7-9.89,6.14-14.12,2.71-1.4-1.14-.3-2.86.19-4.25.4-1.13,1.26-.38,1.94-.34.17.01.34-.04.51-.07-.04-.19-.02-.43-.13-.55-.75-.81-.49-1.67-.25-2.59.7-2.68-.11-6.5-1.96-7.13-2.8-.95-.83-1.78-.2-2.7.25-.36.57-.67.86-1-.06-.06-.11-.12-.17-.18-.7.1-.9,1.22-1.82.89,0,0,0,0,0,0,.03.04.05.09.08.13-.03-.04-.06-.08-.09-.13,0,0,0,0,0,0,0,0,0,0,0,0,0,0,0,0,0,0,.87-.81,1.73-1.63,2.62-2.41.11-.09.5-.81.6.06.07.07.14.14.21.22l7.66-3.46c.1,0,.2,0,.3.01-.04.08-.07.17-.11.25-.75,1.76-1.71,3.52-.04,5.3.74.79,1.52,1.56,1.11,2.82-.08.26-.02.45.37.33,1.33-.44,3.24-4.34,2.7-5.62-.13-.31-.42-.56-.64-.83-.15.27-.29.53-.44.8-.04.05-.08.1-.12.14.73.92.12,1.83-.43,2.29-.47.39-1.25-.45-1.37-.95-.23-.97-.75-1.97-.29-3.03.29-.67-.15-1.85.93-1.97,2.58-.29,5.18-.95,7.68.61,1.53.96,3.33,1.24,5.17,1.29,1.78.04,3.6-.36,5.35.3.27.1.49.35.74.53-.26.09-.53.16-.77.28-2.59,1.27-5.61,1.94-6.74,5.18-.33.94-.19,1.9-.43,2.82-.1.39-.31.75-.47,1.13.59-.02,1.18,0,1.77-.08.26-.03.51-.22.74-.38.51-.36,1.09-.75,1.65-.42.65.38.43,1.13.31,1.75-.38,1.99.13,3.53,2.05,4.49.75.37,1.42.89,2.14,1.32.19.11.41.17.61.25-.02-.23-.07-.46-.07-.68.04-1.68-1.41-2.32-2.3-3.36-.21-.25-.72-.59-.43-.84.24-.21,1.18-.07,1.19,0,.09.61.96.7.87,1.39-.02.14.11.31.17.46.07-.16.21-.32.21-.48,0-1.58-1.1-2.22-2.36-2.62-1.65-.52-2.03-1.71-1.44-3.09.52-1.2.56-2.29.15-3.46-.36-1.02,0-1.59,1-2.04,3.46-1.57,6.19-.07,8.8,1.98.5.39,1.57.38,1.43,1.18-.13.75-1.07.16-1.57.43-.3.16-.79.47-.77.66.07.6.59-.06.65.08.37.8,1.74-.55,1.62.62-.11,1.11-1.37,1.47-2.24,2.02-.1.06-.6-.1-.41-.52.12-.26.79-.34.28-.78-.13-.11-.48-.07-.68.01-.48.2-.27.66-.33,1.04-.3,1.88-.97,3.8.82,5.37.05.04-.04.23-.03.34.09,1.71.27,3.35,2.62,3.23.32-.02.47.12.64.41.7,1.23,2.77,1.64,3.95.84.55-.38,1.47-1.17,1.61-1.05,1.66,1.41,2.2-.14,3.01-1.02.09-.1.23-.14.35-.21.11.2.36.51.3.58-1.45,1.92-.6,4.39-1.58,6.41-.09.18-.54.46-.01.57.72.16,2.17-1.81,2-2.66-.42-.49-1.38-.61-1.08-1.58.08-.25.19-.66.34-.68.35-.06.16.33.24.51.04.08.11.14.17.21.06-.21.13-.42.17-.64.05-.27-.28-.62.18-.8.08.28.21.56.23.84.03.64,0,1.28,0,1.93.42-.26.79-.67,1.07.2.6,1.85,2.31,1.84,3.83,2.09.17.03.36-.13.55-.2-.11-.13-.23-.26-.34-.4-1.12-1.48-1.89-3.36-4.16-3.52-.17-.01-.31-.52-.47-.78-.9-1.46.86-2.1,1.05-3.28.17-1.05-.58-2.59.56-3.09,1.02-.45,2.06.79,3.15,1.12.97.29,2.55.35.81,1.88-.3.26-.54.78-.29,1.49.39-.84.67-1.61,1.44-1.95.27-.12.79-.27.84-.19.23.36-.22.5-.4.72-1.02,1.23-2.05,2.44-3.09,3.65-.22.26-.33.66.07.51,1.61-.61,3.63-.29,4.77-2.03.2-.3.19-.88.69-.8.12.02.16.71.19,1.09.03.48,0,.96.02,1.44.06,2.36,1.55,3.97,3.9,4.2.18.02.94.21.52-.27-.94-1.08-.9-2.82-2.18-3.51-1.5-.81-1.71-2.18-2.07-3.55-.25-.96.23-1.22,1.02-.97,3.16,1.01,6.38,1.09,9.57.39,3.93-.87,7.76-2.05,10.11-5.75.77-1.21.77-2.41-.27-3.5-.48-.5-1.01-.42-1.53-.11-.45.26-.83.56-.71,1.23.4,2.31-.58,4.01-2.65,4.92-4.72,2.07-9.63,1.92-14.57.99-.42-.08-.84-.33-.74-.78.25-1.11-.24-2.42.64-3.31.32-.32.84.44,1.23.73.64.47,1.23,1.01,1.83,1.54,1.41,1.25,4.44,1.58,5.72.61.37-.28.71-.58.49-1.09-.22-.52-.67-.49-1.12-.35-.11.03-.25.04-.34.11-2.96,1.98-4.86.14-6.77-1.83-.59-.61-.71-1.13-.31-1.9,1.34-2.63,3.01-4.99,5.38-6.79.31-.23.53-.73,1.06-.53-.13.36-.23.74-.41,1.07-1.35,2.44-1.05,4.77.83,6.26.2.16.7.61.69.15-.01-1.89,1.43-3.73.69-5.5-.9-2.14-.29-3.49,1.36-4.73-.05-.06-.11-.11-.16-.17-.2-.03-.61.39-.55-.18.03-.26.32-.68.51-.69.41-.03.26.37.26.63.07.06.14.13.22.19,2.2-1.25,4.13-2.63,4.48-5.48.29-2.3,3.03-3.76,5.28-3.06.99.31,1.01,1.01.38,1.48-.71.53-.27.73.1.89,1.71.7.78,2.11.87,3.21.07.96-.73.91-1.42,1.03-.97.16-1.68.81-2.05,1.68-.41.97-1,1.39-2.04,1.1-.14-.04-.32.06-.48.09.04.15.02.35.12.43,1.4,1.09,2.95,1.26,4.58.66,1.05-.39,1.24-1.32,1.42-2.31.31-1.73.64-3.45.24-5.22-.05-.22.12-.5.2-.75.2.17.48.3.58.51.83,1.84,2.41,2.86,4.12,3.65,1.07.49,2.35.52,3.4,1.03,2.75,1.34,4.82,1,6.83-1.34.15-.17.2-.42.28-.64,0,0-.21-.15-.26-.12Zm-13.1-11.78c.42-.03.96-.21.97.48,0,.49-.32.71-.8.53-.38-.14-1.08.26-1.1-.53-.02-.68.49-.57.93-.48Zm7.54-32.12c.41-.78.85-1.65,1.91-1.77.53-.06.46.37.39.65-.22.86-.82,1.4-1.6,1.78-.22-.3-.95-.17-.69-.66Zm-2.93-1.57c.11-.18.43-.22.44.03.02.86.63.81,1.2.91.38.07.46.47.4.76-.16.75-.83.37-1.06.45-.76.14-1.16-.03-1.31-.58-.16-.57.05-1.09.33-1.57Zm-4.52-4.07c.1-.04.23-.15.29-.12.78.38.47,1.24.56,1.89-.28-.59-.57-1.18-.85-1.77Zm3.31-11.78c-.47.99-.81,1.72-1.17,2.44-.06.12-.21.19-.32.28-.03-.17-.11-.35-.07-.5.2-.81.45-1.6,1.56-2.22Zm-2.61.65c.38,0,.77.05.68.55-.08.42-.3.82-.46,1.23-.3-.44-.71-.84-.87-1.32-.12-.33.3-.48.65-.46Zm-.8,3.81s.09.06.1.05c.36-.39.25-1.18,1.04-1.21.02.97.85,1.64.76,2.74-.17,2.09-.05,4.21-.05,6.53-1.35-2.02-3.99-3.49-1.49-6.14-.05-.05-.09-.1-.14-.15-.83-.12-1.11-.77-1.16-1.45-.06-.84.78.19.93-.37Zm-3.94-.47c-.98.08-1.19-.87-1.26-1.7-.05-.68.03-1.28.93-.81.9-.59.57.42.89.58-.87.47.91,1.8-.56,1.93Zm1.85-2.75c-.55-.03-1.27-.36-1.21-1.04.09-1.07,1.14-.5,1.62-.8.6-.05,1.14.26.98.65-.22.54-.67,1.23-1.38,1.19Zm-9.31,22.53c-.05.14-.31.19-.47.29-.07-.16-.24-.36-.19-.47.42-.97.88-1.92,1.34-2.87.04-.07.19-.09.29-.13.02.11.05.22.07.3-.35.99-.67,1.95-1.03,2.89Zm-10.38,18.27c-.44.17-1.04-.13-.99-.7.06-.63.13-1.72.68-1.73.85-.02,1.39.79,1.36,1.83-.06.57-.7.46-1.06.59Zm1.37-1.45c.07-.79.42-1.19,1-1.13.5.05.99.38.97.99,0,.35-.52.83-.6.6-.28-.79-1.56.8-1.38-.46Zm-20.31,25.71c.54.21,1.14.37,1.28.99-.07.26-.08.61-.32.43-.49-.38-.9-.87-1.34-1.32.13-.04.28-.14.38-.1Zm1.61-4.52c1.24-.77,2.16.07,3.25.58-.14.16-.23.31-.27.3-1.12-.36-2.26-.25-3.4-.19-.07,0-.14-.14-.21-.22.21-.16.41-.33.63-.47Zm-34.21-1.75c-.94-.4-1.97-.62-2.71-1.41-.15-.16-.26-.36-.39-.54.23-.1.46-.2.59-.26,1.24.24,1.98,1.03,2.8,1.71.1.08.1.27.14.41-.14.03-.32.13-.43.08Zm-23.35,19.26c-.44-.14-.59-.62-.62-1.07-.02-.26.03-.51.38-.39.41.14.66.43.66.9-.1.23-.04.69-.42.56Zm-13.74,15.33c-.05.01-.28-.38-.26-.56.03-.37.05-.83.62-.83.38,0,.24.32.29.52-.06.42-.2.78-.64.87Zm.43-3.37c-1.06-.04-.88-.93-1.06-1.55.07-.69.27-1.16,1.06-1.22,1.59-.11.73,1.39,1.28,1.99.12.13-.67.8-1.28.77Zm5.21,5.53c-.08.1-.19.22-.29.33-.28-.46-.57-.92-.83-1.39-.03-.05.19-.31.24-.3.65.17.66.78.88,1.35Zm-1.77-3.57c-.76-.16-1.59-.75-2.04-1.4-.26-.37.57-.71,1.02-.59.73.2,1.67-.49,2.23.34-.14.91-.33,1.83-1.2,1.65Zm3.08-7.97c.36-.04.74-.04.71.55-.71.37.68,1.69-.67,1.67-.52,0-1.47-.37-1.54-1.06-.09-.91.77-1.07,1.5-1.16Zm.57,5.97c-.5.49-1.08.6-1.59.16-.61-.53-.32-1.15.08-1.69.73-1,.74-.99-.43-1.22,1.26-.63,2.18,0,2.76.88.51.76-.28,1.35-.82,1.87Zm.56-3.11c.41-.56,1.07-.09,1.58-.36.06-.03.22.12.44.26-.57.24-1.01.49-1.47.58-.15.03-.57-.45-.55-.47Zm.9,1.48c.02-.32-.1-.74.44-.77.25,0,.57.05.47.33-.1.29-.37.58-.64.75-.28.18-.28-.14-.27-.31Zm.92,3.08c-.31-.1-.58-.28-.87-.43.18-.13.36-.25.47-.32.47-.02.74.11.78.48,0,.08-.28.3-.38.27Zm4.57-2.09c.41.26,1.19.23.91,1.07h0s.09-.07.13-.11c-.04.04-.08.07-.13.11,0,0,0,0,0,0h0c-.41-.38-.53.91-.97.18-.19-.32-.3-.7-.35-1.07-.04-.28.26-.27.41-.18Zm-3.33-2.04c-.41.06-.43-.36-.45-.68-.04-.51.19-.84.68-.95.4-.09.45.19.43.53-.2.37-.06,1.01-.66,1.1Zm9.71-9.66c.08-.28.16-.56.24-.84l.23.05c-.06.34-.13.68-.19,1.02-.08.31-.16.61-.23.92-.09-.02-.19-.04-.28-.07.08-.36.16-.72.24-1.07Zm0,4.78c-.47-1.08-.52-2.2-.29-3.33,0-.04.16-.05.24-.07.1,1.15.21,2.3.32,3.57-.21-.13-.26-.14-.28-.17Zm.37,1.22c-.08-.12-.19-.24-.23-.37-.03-.12.01-.26.04-.57.17.25.3.36.3.47,0,.15-.07.31-.12.46Zm.12-7.12c-.04-.06-.12-.13-.11-.17.03-.08.11-.14.17-.2.02.06.05.13.07.19-.05.06-.09.13-.13.19Zm4.09,12.35c.15.1.29.2.44.31.1.05.19.11.29.16.16.08.31.16.47.24.22.11.44.23.65.34.13.06.26.12.39.19-.19.01-.38.03-.57.04-.23-.1-.46-.2-.69-.3-.15-.09-.3-.19-.45-.28-.1-.05-.21-.11-.31-.16-.13-.11-.27-.22-.4-.32-.1-.12-.19-.23-.29-.35.16.05.32.09.47.14Zm-.21-14.66c.55.01.61.42.58.84-.01.16-.1.31-.23.64-.33-.54-.55-.9-.78-1.27.14-.08.29-.22.43-.21Zm9.21-10.21c2.66-.94,5.37-1.56,8.58-1.27-3.1.37-5.85.71-8.58,1.27Zm13.86.99c-.84-.22-1.67-.48-2.51-.72.4-.09.81-.18.97-.22.9.08,1.65-.1,1.96.75,0,.02-.3.23-.42.2Zm1.51-.39c.67-.02,1.21.1,1.74.57-.73.16-1.3.11-1.74-.57Zm.73,10.47c-.22.3-.32-.07-.28-.21.27-.95.55-1.9.87-2.83.04-.12.41-.25.43-.23.17.25.31.52.52.89-.51.81-.98,1.63-1.53,2.39Zm3.85,2.68c.09,0,.18.07.35.15-.19.05-.3.1-.41.11-.06,0-.13-.07-.19-.1.08-.05.16-.15.25-.15Zm7.94-9.01c.04-.06.07-.13.11-.19,0,0,0,0,0,0-1.44.18-2.34-.98-3.53-1.42-1.55-.58-3.02-1.34-4.36-2.37,2.63,1.27,5.27,2.53,7.9,3.8,0,0,0,0,0,0,0,0,0,0,0,0,0,0,0,0,0,0-.04.06-.07.13-.11.19Zm3.08-3.81c-.75.23-1.65-.96-1.42-1.39.6-1.14,1.3-2.53,3.12-2.15.79.06,1.75.22,1.7,1.31-.1,2.18-2.1,1.83-3.4,2.23Zm2.08-10.6c.77-.06,1,.49,1.07,1.13-.08.19-.17.62-.2.53-.32-.84-1.31-.67-1.76-1.26.3-.14.59-.38.9-.4Zm-7.31,1.15c.91-1.37,2.22-.95,3.48-.77-1.07.37-2.43-.13-3.14,1.26-.03.07-.25.04-.38.06,0-.19-.05-.42.04-.55Zm-1.66-.48c.05.13.11.26.17.42-.18.16-.31.29-.45.42-.03-.14-.11-.31-.07-.42.06-.16.22-.28.34-.42Zm1.43,5.03c-.71.58-1.32.83-1.85-.23-.37-.73-.84-1.4-1.29-2.12.22-.53.4-.95.58-1.38.37.2.78.35,1.1.61.51.41,1.01.86,1.43,1.37.44.53.77,1.14.03,1.75Zm-.14-2.55c-.11-.1-.2-.36-.14-.49.21-.51.6-.24.91-.12,1.73.64,2.88-1,4.42-1.12-.04-.21-.06-.42-.14-.62-.39-1.02-.97-1.77-2.27-1.37-.77-.44-1.98.81-2.28-.11-.21-.65,1.29-.48,1.99-.81,1.76-.83,2.99.06,3.54,2.43.1.42-.21,1.27.82.95.06-.02.34.33.31.39-.25.44-.48.93-.84,1.26-.55.5-5.74.14-6.31-.39Zm1.59,2.69v-.07s.03.05.03.05c-.35-.82.11-1.27.81-1.34.92-.08,2-.76,2.7.42.15.25.09.77-.08,1.01-.14.19-.62.11-.93.21-.89.27-1.69-.2-2.54-.27Zm3.93,20.72c-.66-.14-1.32-.28-1.68-.95-1.3-.74-1.05-1.94-.84-3.07.06-.29.75-.76.8-.72.45.37,1.18.06,1.4.36.3.41-.46.45-.66.76-.51.77-.72,1.58-.52,2.49.25.64.63-.15.89.07.3.26.55.56.81.86,0,0-.14.21-.19.2Zm.04-3.44c.11-.06.23-.11.34-.17.48.96,1.77-1,2.09.67-.44.28-.77.78-1.44.71-.74-.07-.63-.83-.99-1.21Zm1.27,1.53c.18.35.31.52.35.7.02.11-.08.25-.12.38-.1-.16-.23-.3-.29-.47-.04-.11.02-.26.06-.6Zm1.91,2.88c-.09.3-.07,1.39-1.07,1.57-.51.09-1.06-.72-.88-1.29.23-.72.8-1.36,1.64-1.51.52-.09.56.3.31,1.22Zm2.62-1.31c1.3,1.51-1.06,1.74-.88,2.84.03.19-1.03-.29-.93-.85.32-1.75-.49-3.28-.75-4.9-.05-.34.09-.71.15-1.06,0,0-.02,0-.03,0,0,0,0-.02.01-.03-1.65.49-3.23-.46-3.61-2.17-.17-.77.2-1.63.75-1.68.56-.05,1.52-.63,1.97.46.12.29.7.36.9.65.11.15,1.35.28.19.88-.17.08.1,1.22-.2,1.86,0,0,.02,0,.02,0,0,.01,0,.03,0,.04,1.05.02,2,.3,2.73,1.11.1.12.26.19.35.31.83,1.14-1.51,1.56-.67,2.55Zm33.73-7.26c.95-.1.08,1.55.78,2.33-.27.33-.51.91-.79.92-.55.03-.05-.51-.19-.78-.05-.09-.03-.24,0-.35.14-.75-1.18-1.98.21-2.13Zm-10.67,7.72c-.57.08-.91.13-1.82.26,1.03.06,1.5.09,2.33.14-1.93.45-3.5.42-5.23.07,1.58-.37,2.98-.92,4.72-.48Zm-8.02-.88c.33.08.75-.05.76.41,0,.11-.37.34-.55.32-.23-.03-.57-.21-.63-.4-.11-.35.25-.29.42-.33Zm8.47-2.24s.12.13.26.27c-.4.12-.72.22-1.05.3-.04,0-.12-.15-.18-.23.32-.12.64-.24.97-.34Zm11.36-33.37c-.3.31-.3-.1-.35-.31-.45-2.3-.59-4.63-.46-7.16.92,1.84.57,3.85,1.74,5.46.52.72-.39,1.46-.93,2.01Zm2.9-13.98c.51-.12.57.26.5.56-.76,3.34-.05,6.89-1.46,10.13-.13.3-.37.55-.55.83-.16-.27-.35-.53-.47-.81-.85-1.98-1-4.09-1.17-6.2-.03-.51,2.7-4.4,3.15-4.5Zm-4.02-1.69c.08-1.34.1-2.7.67-3.96,1.03.74,1.02,2.04,1.6,3.03.42.71,1.52,1.23,1.29,2.04-.4,1.39-2.15,1.83-2.71,3.22-.07.18-.25.23-.37-.1-.42-1.14-.54-2.31-.48-3.26,0-.49-.01-.73,0-.97Zm.14,13.79c.18.4.21.75-.02,1.13-.3-.39-.23-.74.02-1.13Zm-28.62,35.62c-.34,1.03-.52-.05-.76-.17-.16-.07-.26-.28-.39-.43-.09-.11-.19-.21-.28-.32.15.04.31.08.46.12.42.16,1.13.29.97.79Zm-1.01-3.13c1.14-.38,2.29-.77,3.43-1.13.15-.05.51-.08.31.24-.48.77-1.03,1.49-1.55,2.23-.9-.53-1.77-.55-2.2-1.34Zm9.03,3.56c-.24.45-.61.32-.93.22-.91-.29-1.84-.56-2.69-.97-.79-.39-2.23-.62-2.11-1.43.17-1.24,1.11-2.38,2.35-2.99.96-.47,1.98-1.07,2.99-1.1,1.65-.05.97,1.82,1.75,2.41-.19,1.51-.75,2.7-1.36,3.86Zm3.66-8.14c-.61,1.01-1.22,2.03-1.93,2.97-.06.08-.5-.58-.47-1.46-.01-1.02,1.18-1.33,2.15-1.82.3-.15.33.17.24.32Zm1.71-5.05c-.86-.16-1.72-.33-2.58-.49.32-.75,1.03-.57,1.6-.68.56.08,1.27-.15,1.32.79.02.31-.04.44-.35.38Zm.51.2s-.06-.05-.08-.08c.06-.03.12-.07.18-.1.04.05.07.1.11.15-.07.01-.14.03-.21.03Zm4.95-8.07c-.2.1-1.78.22-1.55-.68.19-1.74,1.47-1.58,2.16-2.13.26-.21.5.34.4.64-.26.77-.2,1.79-1,2.17Zm-.86-3.78c-.15.48-.51.63-.91.58-.24-.03-.65-.28-.64-.37.1-.51.63-.48,1-.62.35-.13.47.14.54.41Zm-.53-2.58c-.08-.57.53-1.06,1.14-1.14.48-.07.48.41.49,1.04-.12.34-.31.93-.51,1.51-.08-.73-1.04-.87-1.12-1.41Zm3.84,10.49c-.13.12-.51-.02-.77-.03.08-.24.13-.5.23-.73.75-1.64,2.36-2.59,3.34-4.05.07-.11.26-.14.4-.21.04.14.08.28.15.5-.7,1.79-1.93,3.23-3.34,4.52Zm3.24-6.24c-.28.11-.2-.25-.18-.41.11-.71.34-1.37.83-1.92.09.27.17.53.11.35.19,1.18-.11,1.72-.76,1.98Zm.64-3.58c-1.02,2.76-2.38,5.35-4.52,7.45-.17.17-.48.62-.51.07-.08-1.09-.79-2.15.05-3.33.48-.67,1.16-1.82-.59-2.18-.71-.15.3-1.09-.42-1.4.23-.13.44-.3.69-.38.44-.15.66.1.76.51.09.39.21.78.31,1.18.11-.15.3-.3.32-.46.06-.72.52-1.69-.29-2.07-.8-.38-1.29-.84-1.77-1.55-.55-.82-4.66.18-5,1.13-.06.17-.05.37-.06.56.13-.03.3-.01.38-.09.51-.48.93-1.27,1.77-.8.94.53.1,1.14-.07,1.7-.05.04-.1.07-.16.11.02-.02.04-.05.07-.06.03-.02.06-.03.09-.05-.78-.06-1.42.09-1.85.87-.34.62-.68.38-.89-.16-.06-.16-.14-.32-.22-.48-.11.16-.35.38-.31.46.7,1.35-.33,2.89.44,4.21.15.26.45.7.57.67,2.94-.85.94,1.83,1.77,2.46-.42.16-.86.29-1.27.47-.29.13-.64.35-.49.71.16.38.58.25.84.11,1.11-.6,2.09-1.03,3.48-.38.72.33.54-1.08.88-1.68.64,2.42-.39,4.67-2.41,5.48-.73.29-1.28.18-1.86-.32-1.7-1.48-3.36-1.03-5.02.11-.45.31-.22.32.07.58.86.76,1.61,1.61,2.85,1.82.64.11.09.5-.08.61-1.22.82-2.46,1.62-3.72,2.39-.5.31-.87.17-1.08-.44-1.12-3.13-1.25-6.24.14-9.32.45-1,.72-2.03.77-3.12.28-6.49,3.87-11.06,8.6-14.99.18-.15.51-.5.67-.17.1.21-.17.65-.37.93-1.46,2.1-1.27,3.72.68,5.12.29.21.84.47,1.04.34.4-.26-.05-.62-.18-.92-.36-.85.17-1.64.2-2.47.03-.91-.75-1.6-.68-2.36.11-1.2,1.09-1.89,2.18-2.32,2.37-.94,4.83-1.72,6.73-3.55.1-.09.26-.12.39-.18.06.26.15.51.17.77.3,2.96-.32,5.64-2.46,7.83.04.01.08.05.11.04.65-.16.61-1.25,1.48-1.1.04,0,.09.3.04.4-.55.89-1.23,1.78-2.22,2.02-.74.18.31-.48-.09-.66-.86.37-1.51,1.15-2.51,1.25-.23.02-.54.16-.39.44.2.37.46.76.8.98.53.35,1.05.16,1.43-.36,0,0,0,0,0,0,0,0,0,0,0,0,0,0,0,0,0,0,.92-.46,1.84-.91,2.77-1.36.05-.03.13,0,.19,0-.03.14-.02.3-.08.42-.65,1.24-1.71,1.24-2.87.95h0c2.87.65,1.17,2.34.72,3.58Zm-8.79,4.5c-.02.46-.31.81-.86.7-.53-.4-1.75.57-1.71-.92.03-1.04.97-.31,1.3-.74.38.38,1.32.08,1.27.96Zm12.42-2.59c-2.91,1.18-2.62-.54-2.03-2.49.11-.37-.17-1.07.28-1.05.39.02.49.73.49,1.23,0,.25.09.5.14.75.22-.15.51-.26.63-.47.33-.54.63-1.11.86-1.69.14-.34.13-.75.19-1.12.51.24.45.79.6,1.21.21.6.32,1.23.54,1.83.55,1.55.21,2.3-1.7,1.8Z"/>
      <polygon class="cls-1" points="65.28 72.8 65.28 72.8 65.28 72.8 65.28 72.8"/>
      <polygon class="cls-1" points="103.74 52.62 103.74 52.62 103.74 52.62 103.74 52.62"/>
      <path class="cls-1" d="m71.57,80.78s0,.02-.01.03c0,0,.02,0,.03,0,0-.01,0-.03,0-.04,0,0-.02,0-.02,0Z"/>
      <path class="cls-1" d="m74.42,62.83c.31-.13.33-.54.12-.83-.24-.32-.61-.21-.85-.05-.31.2-.31.6-.05.83.12.11.22.22.33.34.13-.11.28-.21.45-.29Z"/>
      <path class="cls-1" d="m74.95,75.18s-.05-.03-.07-.04c0,.02.02.03.02.04h.05Z"/>
      <polygon class="cls-1" points="18.22 94.66 18.22 94.66 18.22 94.66 18.22 94.66"/>
      <polygon class="cls-1" points="27.25 74.45 27.25 74.45 27.25 74.45 27.25 74.45"/>
      <path class="cls-1" d="m41.48,72.05c-.03-.1-.07-.21-.1-.31.07.06.15.11.22.17-.04.05-.08.1-.12.14Z"/>
      <path class="cls-1" d="m30.68,72.32c-.09.06-.17.13-.26.19-.05-.05-.1-.09-.15-.14.07-.09.13-.18.2-.27.07.07.14.14.21.22Z"/>
      <path class="cls-1" d="m30.42,72.51c-.09.07-.17.14-.26.21-.03-.03-.06-.05-.09-.08.07-.09.14-.18.21-.27.05.05.1.09.15.14Z"/>
      <path class="cls-1" d="m30.16,72.72c-.12.05-.23.1-.35.14l.03.03c.08-.08.15-.17.23-.25.03.03.06.05.09.08Z"/>
      <path class="cls-1" d="m29.81,72.87c.05.22-.02.32-.25.24,0,0,.04.02.04.02.08-.08.16-.16.24-.24,0,0-.03-.03-.03-.03Z"/>
      <path class="cls-1" d="m29.56,73.11c-.02.12-.05.24-.07.35-.05-.04-.09-.07-.14-.11.08-.07.17-.15.25-.22l-.04-.02Z"/>
      <path class="cls-1" d="m29.48,73.46c-.08.09-.16.18-.25.27-.06-.06-.11-.12-.17-.18.09-.07.18-.13.27-.2.05.04.09.07.14.11Z"/>
      <path class="cls-1" d="m99.72,67.47c-.09.07-.18.15-.27.22-.05-.06-.11-.11-.16-.17.07-.08.14-.16.22-.25.07.06.14.13.22.19Z"/>
      <path class="cls-1" d="m117.61,37.86c.08.08.15.17.23.25,0,0,.02-.03.02-.03-.19.28-.26-.01-.39-.07.05-.05.09-.1.14-.16Z"/>
      <path class="cls-1" d="m109.3.87c-.05-.02-.45.22-.38-.12.04-.17.59-.27.92-.32.17-.02.37.13.56.21-.25.36-.61.29-1.1.23Z"/>
      <path class="cls-1" d="m32.24,70c-.08.43-.36.55-.75.51.07-.44.35-.56.75-.51Z"/>
      <path class="cls-1" d="m29.64,65.71c-.04.06-.09.12-.13.18-.04-.06-.12-.13-.11-.18.02-.07.1-.13.15-.19.03.06.06.13.08.2Z"/>
      <path class="cls-1" d="m74.9,75.18s.04-.04.05-.06c-.03,0-.06.01-.09.02.03.01.05.02.08.04,0,0-.05,0-.05,0Z"/>
      <path class="cls-1" d="m60.42,56.96c.08-.03.17-.06.25-.09-.04.07-.08.15-.12.22-.05-.04-.09-.09-.14-.13Z"/>
      <path class="cls-1" d="m104.66,50.07c.05.23-.05.33-.28.28.09-.09.19-.19.28-.28Z"/>
      <path class="cls-1" d="m104.9,49.83c-.09.09-.19.19-.28.28.09-.09.19-.19.28-.28Z"/>
      <path class="cls-1" d="m105.15,49.6c.04.23-.05.32-.28.28.09-.09.19-.19.28-.28Z"/>
      <path class="cls-1" d="m113.68,8.99c.15-.05.31-.11.46-.16-.08.13-.16.26-.25.39-.07-.08-.14-.16-.21-.23Z"/>
      <path class="cls-1" d="m113.89,9.23c-.09.07-.19.13-.28.2-.04-.05-.09-.1-.14-.15.07-.09.14-.19.21-.28.07.08.14.16.21.23Z"/>
      <path class="cls-1" d="m66.16,82.62c-.19-.31-.32-.44-.31-.54.04-.25.15-.49.23-.74.08.09.23.18.23.28,0,.25-.07.51-.15,1Z"/>
    </g>
  </g>
</svg>