<?xml version="1.0" encoding="UTF-8"?>
<svg id="Layer_2" data-name="Layer 2" xmlns="http://www.w3.org/2000/svg" viewBox="0 0 73.96 70.1">
  <defs>
    <style>
      .cls-1 {
        fill: currentColor;
        stroke-width: 0px;
      }
    </style>
  </defs>
  <g id="Layer_1-2" data-name="Layer 1">
    <g>
      <path class="cls-1" d="m60.99,20.25s0,0,0,0c0,0,0,0,0-.01,0,0,0,0,0,.01Z"/>
      <path class="cls-1" d="m27.44,62.08s0,0,0,0c0,0,0,0,0,0,0,0,0,0,0-.01Z"/>
      <path class="cls-1" d="m54.46,29.37s-.01-.03-.02-.04c0,0-.01,0-.02,0,.01.01.02.03.03.04Z"/>
      <path class="cls-1" d="m55.18,30.63s.1.02.14.03c-.02-.03-.04-.06-.06-.08-.01,0-.03,0-.04,0,.01,0,.03,0,.04,0-.03.01-.06.03-.09.04Z"/>
      <path class="cls-1" d="m50.1,59.61s0,.01.01.02c0,0,0,0,.01,0,0-.01,0-.02,0-.03-.01,0-.02,0-.03,0Z"/>
      <path class="cls-1" d="m61.71,2.49c-.28-.71-1.7-.98-2.6-1.46-.03.46-.27,1.08-.06,1.35,2.26,2.82-.61,2.6-1.92,3.31-.28.15-.57.29-.83.47-.77.55-1.31.71-1.47-.55-.22-1.74-1.84-1.39-2.91-1.65-.82-.2-.95.74-1.19,1.37-.39,1-.91,1.54-2.17,1.04-.84-.34-1.82-1.01-2.83-.09-.19.17-.81-.15-1.24-.24.26-.21.51-.45.78-.64,1.39-.97,1.31-2.58,1.66-3.97.15-.6-.25-.29-.56-.17-1.64.63-2.99,1.49-3.92,3.12-.51.89-1.63,1.39-2.72,1.61-.34.07-.85.11-1.03-.07-.35-.36.19-.59.35-.87.56-1.01,2.22-2.39-.78-2.16-.4.03-.82-.28-1.24-.39-.28-.07-.59-.31-.88.02.21.14.4.34.63.42,1.16.41.53,1.33.58,2.04.03.44-.46.54-.69.33-.51-.48-1.75.04-1.67-1.37.03-.5.59-1.12.18-1.39-.64-.41-.96.53-1.47.69-.75.23-1.58.23-2.38.32-.05-.39-.2-.8-.11-1.15.2-.88.83-1.39,1.68-1.71.66-.25.96.58,1.61.47-.58-.99-1.55-1.43-2.36-.97-1.13.65-1.75,1.82-1.54,3.26.06.44,1.04,1.31-.54,1.17-.47-.04.1.31.21.44.14.15.56.28.26.47-.56.36-1.22.58-1.85.83-.06.03-.29-.14-.28-.18.23-.86.49-1.71.75-2.56.08-.26.77-.1.45-.57-.07-.1-.75.03-.93.24-1.35,1.54-2.75,2.93-4.92,3.27-.36.06-.72.95-1.1.65-.27-.21-.13-1.01-.1-1.55.02-.44.18-.89-.32-1.17-.13-.07-.3-.06-.45-.08,0,.14-.02.3.03.42.83,1.78-.49,2.03-1.64,2.01-.56,0-1.67-.1-1.64-1.16.02-.79.27-1.39,1.37-.88.45.21.66-1.02,1.45-.78-.05-.1-.08-.26-.16-.29-.5-.21-1.02-.28-1.5.01-.53.33-1.46.37-1.5,1.06-.11,1.96-1.05.76-1.74.54-.49-.16-.97-.37-1.48-.48-.92-.2-1.4-.37-.34-1.21.67-.53.8-1.45.72-2.32-.02-.18.03-.6-.36-.38-.87.48-2.19.83-2.45,1.55-.63,1.75-1.91,1.68-3.29,1.95-.55.11-1.08.12-1.61.09-.36.65-.69,1.32-.98,1.97,3.57-.27,7.85,1.47,9.75,4.27.46.68.04,1.81-.44,2.28-1.83,1.77-2.63,4.17-4.07,6.17-.19.27-.32.72-.79.24-.33-.34-.45-1.44-1.04-.86-.58.56-1.02,1.87-.2,2.48,1.12.84.85,1.65.62,2.68-.67,2.98-.62,6.01-.51,9.04.03.71-.18,1.16-1.06.93-2.18-.56-3.99-1.57-5.52-3.33-1.04-1.2-2.27-2.14-2.4-3.89-.03.51-.06,1.02-.1,1.66-1.27-3.61.9-6.62,4.53-6.47.05-.06.11-.13.16-.19C2.15,20.76-.12,23.03,0,27.12c.14,4.48,3.61,7.73,8.1,7.59,1.55-.05,3.37,2.2,2.99,3.78-.1.43-.12.65.26.87.84.48.75,1.33.57,2.03-.2.76-.9.35-1.42.29-.14-.02-.29,0-.44,0,.03.11.03.26.1.33,1.2,1.12,1.19,3.31,3.27,3.68.23.04.4.42.6.64-.15.12-.32.35-.46.33-.36-.05-.7-.21-1.05-.33.24-.58-.17-.55-.44-.37-.75.48-.99,1.3-1.23,2.11.25.04.49.11.74.1.62-.04,1.49-.35,1.7.35.28.91-.74.65-1.22.87-.11.05-.3.07-.32.14-.79,3.13-3.71,1.58-5.51,2.5-.46.23-.66.34-.18.66,1.02.67,1.84,1.69,3.15,1.87.95.13.94.52.29,1.11-1.54,1.38-.35,2.88-.12,4.31.07.41.54.22.74-.07.84-1.21,1.82-2.36,1.43-4.02-.09-.37-.05-.8.07-1.17.08-.27.38-.46.59-.69.1.23.23.45.3.69.22.7.67,1.18,1.33,1.44.44.17.92.3,1.36-.05-.28-.15-.58-.27-.83-.46-.44-.34-.53-.82-.27-1.28.2-.37.48-.91.79-.96.67-.11.4.62.56.96.61,1.33,1.55,1.52,2.77.89-.06-.05-.12-.1-.19-.15-.52.18-1.14.31-1.28-.37-.15-.74.2-1.59.82-1.88.66-.31,1.18.31,1.31,1.07.5-.3-.15-1.22.65-1.08.59.11.21.74.21,1.14-.02,2.22,1.68,3.35,3.02,4.67.53.52.92-.11.93-.59.05-1.98.7-2.45,2.36-1.13.57.46,1.53.17,2.05.85.16.2.25.46.37.69-.22.03-.45.11-.67.1-.7-.06-1.29.21-1.35.89-.06.8.68.7,1.22.73.28.02.64-.05.67.32.02.25-.17.51-.26.76-.12.36-.81.25-.67.82,0,0,0,0,0,0,0,0,0,0,0,0,0,0,0,0,0,.01.27.21.63.41.21.8-.11.1-.37.24-.39.22-.31-.4.1-.68.18-1.02,0,0,0,0,0,0-1.03.56-2.03,3.47-1.5,4.5.23.45.52.16.76-.04.4-.33.77-.69,1.2-.98.27-.18.59-.59.93-.28.17.16.2.61.13.89-.41,1.58.84,2.49,1.43,3.65.2.4.56.32.71-.06.53-1.3.97-2.83-.2-3.81-1.91-1.61-1.18-3.77-1.6-5.68-.02-.11.37-.36.6-.46.37-.16.6.06.74.4.36.83,1.07,1.29,1.84,1.62.58.25,1.2.02,1.34-.62.46-2.11,2.03-2.2,3.71-2.19.45,0,.63.29.78.62.21.45-.14.62-.42.85-1.02.85-1.33,5.17-.48,6.19.37.45.63.14.89-.08.93-.8,1.97-1.46,2.66-2.54.37-.58,1.03-.79,1.73-.96.55-.13,1.76.09,1.11-1.26-.15-.3.25-.45.52-.53.35-.09.71-.02.72.39.02.66,0,1.25.93,1.08.88-.16,1.58-.5,1.79-1.5.09-.45-.31-1.17.47-1.27.32-.04.77.26,1.01.54.44.53-.03.94-.32,1.37-.96,1.45-.75,4.25.41,5.59.24.28.64.27.65-.01.05-1.55,1.43-2.46,1.75-3.88.18-.78-.95-1.76.38-2.4.13-.06-.37-.12-.57-.15-.89-.1-1.72-.23-1.4-1.46,0,0,0,0-.01,0,0,0,0-.01-.01-.02-.69.28-1.13-.34-1.67-.53-2.51-.87-3.89,1.52-5.93,1.99-.37.09-.47,1.08-.79.69-.38-.45-.64-1.29-.14-1.98,1.06-1.43,3.01-1.03,4.34-1.99.12-.09.46.02.62-.45.26-.78.93-1.21,1.77-1.02,1.19.28,1.81,1.09,1.86,2.32.01.32-.38.62-.05.96.01,0,.02,0,.03,0,0,.01,0,.02,0,.03.65.52,1.94-1.83,2.2.49.01.1.22.17.34.25.42-1.14,1.75-1.02,2.41-1.78.16-.18-.04-.67-.08-1.02-.28.11-.63.15-.82.34-.32.34-.62.31-.96.13-.41-.23-.36-.49-.14-.88.28-.52-.61-.69-.48-1.1.38-1.11,1.2-2.17,2.21-2.43,1.27-.32,2.72-.87,3.94.82.99,1.37,2.38.45,3.39-.52.4-.38.53-.62,1,.07.62.92,1.28,2.07,2.81,1.81-.47-.69-1.76-.5-1.68-1.66.02-.23.18-.72.22-.6.27.94,2.24.41,1.69,1.99-.26.76.37,1.35.58,2.01.14.43.51.16.57-.11.35-1.5.72-3,.45-4.56-.07-.4-.02-.52.39-.41.31.08.64.1.93.21,1.35.47,2.01-.68,2.92-1.22-.64-.5-1.22-1.26-1.93-1.43-.94-.23-1.94-.88-2.99-.23-.25.15-.53.15-.73-.16-.21-.33-.01-.51.2-.7.06-.05.11-.11.17-.17.53-.5,1.06-1.01,1.58-1.51-.81-.67-1.84-.98-2.78-.88-1.33.15-1.54-.83-1.89-1.55-.35-.71.53-.81.94-1.12,1.06-.8,1.8-4.72,1.03-5.6-.06-.07-.35-.04-.46.04-.61.44-1.21.91-1.8,1.38-.32.25-.45.97-.94.72-.49-.25-.22-.87-.09-1.32.87-3.15,1.61-3.78,4.85-4.12,4.89-.51,8.51-7.13,5.91-10.78.17.73.38,1.45.51,2.18.04.26.23.68-.21.79-.08.02-.28-.48-.42-.73-.29.34.17,1.16-.34,1.15-.63-.01-.5-.77-.52-1.27-.1-2.26-1.56-3.58-3.68-3.33-.25.03-.71.04-.72,0-.08-.43.25-.65.57-.78,1.71-.68,3.17-.29,4.38,1.08-.63-1.88-2.15-1.91-3.7-1.69-1.63.23-2.65,1.21-3,2.83-.07.32.04.65.38.81.48.22.85-.03,1.18-.33.59-.55,1.17-1.59,2.05-.91.88.68,1.73,1.55,1.63,2.94-.33,4.44-2.19,6.42-6.35,6.73-.68.05-.86-.16-.84-.76.19-4.33-.09-8.61-1.64-12.7-.4-1.05.34-1.21.94-1.67.52-.4,1.88-.64,1.31-1.39-.52-.69-1.87-.95-2.83-.18-.4.32-.74.67-1.27.71.64.3.91.92,1.08,1.5.72,2.56,1.38,5.13,2.03,7.71.09.35-.01.76-.03,1.14-.51-.19-.48-.66-.56-1.08-.44-2.25-.76-4.54-2.05-6.52,0,0,0,0,0,0,.4,1.95.72,3.92,1.23,5.84.63,2.37.45,4.71,0,7.06-.11.6-.59.33-.97.28-2.6-.32-4.54-1.74-6.19-3.68-.16-.18-.22-.58-.62-.43,0,.01.01.03.02.04-.01-.01-.02-.03-.03-.04,0,0,0,0,0,0,.17.39.34.78.5,1.17.1.02.2.05.3.07.01,0,.03,0,.04,0,.02.03.04.06.06.08-.05,0-.1-.02-.14-.03.03-.02.06-.03.09-.04-.01,0-.03,0-.04,0-.14,0-.27.01-.41.02-1.93-1.48-2.45-3.64-2.76-5.86-.18-1.29-.18-2.62-.15-3.95.79,2.87.3,6.12,2.51,8.55,0,0,.01,0,.02,0-1.36-3.32-2.1-6.73-1.49-10.35.32-1.91,1.06-3.66,1.99-5.33.24-.44.56-1.01,1.17-.79.54.2.5.73.31,1.23-.05.13-.06.39.02.45,2.1,1.46,2.92,3.87,4.38,5.8,0,0,.1-.06.17-.09,0,0,0,0,0-.01,0,0,0,0,0,.01,0,0,.01,0,.01,0-.43-2.63-2.37-4.44-3.63-6.62,0-.09-.02-.18-.02-.27.07.04.14.08.2.12l.37.11s.1-.09.15-.14c-.39-1.22-.97-2.33.35-3.51,2.83-2.53,5.78-3.66,8.89-3.36-.24-.67-.45-1.36-.72-2.02-1.68.2-3.9.48-4.88-2.07Zm8.31,49.16c.12-.03.27.11.71.31-.63.17-.95.3-1.28.33-.12.01-.26-.2-.39-.31.32-.11.63-.25.96-.33Zm-6.77-18.58c.17-.14.38.45.29.74-.27.84.09,1.81-.56,2.57-.07-.47-.13-.94-.16-1.17.11-.9-.13-1.68.43-2.14Zm-11.03-28.57c.77.01,2.09.51,2.2,1.67.11,1.19-1.31,1.25-1.95,2.06-.17-1.1-1.94-.38-1.79-1.49.12-.88.5-2.26,1.55-2.24Zm-5.13,1.84c.43.2.6.27.77.35-.14.05-.27.14-.41.14-.14,0-.34-.06-.4-.16-.06-.08.03-.27.04-.33Zm-.55,0c.06,0,.11.06.17.1-.06.03-.11.06-.17.1-.06-.04-.12-.08-.18-.11.06-.03.12-.09.17-.08Zm-2.84-2.16c.26-.51.34-1.21.99-1.38.53-.13-.05.6.69.67-.62.42-1.02.73-1.46.98-.35.2-.3-.13-.22-.27Zm0,1.53c.1,0,.2.09.37.17-.12.07-.19.15-.26.14-.1-.01-.19-.08-.29-.13.06-.07.12-.19.17-.18Zm-1.78.73c.25.16.46.29.67.43-.1.07-.23.21-.3.19-.24-.07-.46-.21-.69-.32.09-.08.18-.16.32-.29Zm-7.53,1.55c.56-.37.29-1.44,1.35-1.45.87,0,1.39.19,1.45,1.1-.09.76-.31,1.38-1.02,1.8-.68.41-1.21.16-1.77-.15-.76-.42-.66-.87-.01-1.3Zm-3.1-.08c.32.39.44-.65.98-.59.17.32-.74,1.49.68.92.34-.13.42.31.36.58-.18.79-.74,1.21-1.5,1.33-.78.13-1.54.1-1.91-.78-.18-.43-.3-.88-.45-1.32.62.21,1.04-1.13,1.84-.15Zm-1.29-1.07c.15,0,.3.03.98.11-.8.25-1.09.39-1.38.41-.14.01-.45-.26-.43-.28.18-.37.53-.25.83-.23Zm-1.13,5.2c-.18.41-.37.82-.55,1.23-.31-.39-.71-.73-.91-1.17-.12-.26-.04-.74.48-.78.02.57,1.31-.5.98.72Zm-2.2-5.43c.26-.06.56.04.85.07-.21.15-.41.37-.64.43-2.04.55-3.38,2.53-6.01,2.87,2.05-1.55,3.69-2.88,5.8-3.37Zm-15.54-.76c-.17-.05-.32-.2-.48-.3.19-.09.37-.22.56-.25.47-.06.95-.07,1.43-.1.72.06,1.45.06,2.14.21,1.56.34,3.3.49,3.53,2.65.08.73,1.79.86,1.04,1.68-.79.87-1.36-.54-2.02-.89-2.04-1.08-3.95-2.37-6.2-3.01Zm7.8,5.09c-.1.09-.2.2-.21.19-.14-.12-.28-.25-.4-.39-.01-.02.09-.13.14-.2.14.12.28.24.47.4Zm-1.53-.91c.16-.02.32-.03.48-.05.13.16.26.31.39.47-.06.03-.15.09-.17.08-.13-.13-.24-.27-.36-.4-.11-.03-.23-.06-.34-.09,0,0,0,0-.01,0-.02-.02-.04-.04-.05-.07.04,0,.08,0,.12.01-.02.02-.04.03-.07.05,0,0,0,0,.01,0Zm-6.41,23.84c-.05-.32-.12-.75.23-.82.52-.11.33.44.36.67.2,1.26.33,2.54.56,4.36-.87-1.69-.95-2.96-1.14-4.21Zm1.34-7.77c.45-1.8.75-3.63,1.12-5.45-1.31,1.69-1.45,3.77-1.94,5.74-.11.45-.29.87-.44,1.31-.37-.41-.24-.91-.13-1.32,1.21-4.47,2.06-9.1,5.49-12.59.24-.25.44-.69.93-.56-.17.34-.33.69-.52,1.01-1.17,1.93-3.07,3.47-3.19,5.96.8-.99,1.89-1.32,3.12-1.39.34-.02,1.04-.36.37-.69-2.43-1.24-.34-2.08.26-2.91.35-.49,1.03-.7.67-1.52-.14-.33.06-.78.44-.86.56-.12.87.36,1.1.76,1.84,3.13,2.56,6.51,2.1,10.12-.18,1.43-.52,2.81-1.03,4.17-.13.34-1.22.97.08,1.4.23.08-.22.6-.45.83-.3.29-.29.11-.45-.22-.27-.54-.48.1-.63.26-1.65,1.61-3.41,3-5.81,3.29-.37.05-.77.31-.94-.33-.6-2.32-.76-4.63-.16-6.99Zm10.21-5.01c.09.36.19.72.25.97-.31,1.87-.27,3.65-.94,5.31-.07.17-.24.3-.39.44.31.19-.13.57-.26.86-.12.19-.05.56-.45.48.06-.23.12-.46.17-.69.15-.24.13-.81.47-.68-.03-.2-.09-.42-.02-.59.61-1.63.69-3.35.9-5.05.04-.35-.15-.79.27-1.05Zm-.18-1.12s.08-.07.12-.1c.02.06.05.13.07.19-.05.04-.09.07-.14.1-.02-.06-.06-.13-.06-.19Zm-8.88,21.7c-.55.1-.67-.16-.68-.45-.01-.32.19-.54.52-.47.34.07.76.19.75.59,0,.14-.48.26-.6.32Zm-1.2,10.39c-.12.15-.66-.19-.58-.66.14-.83.48-1.55,1.41-1.67.75-.1.91.63,1.35,1.16-.6.64-1.63.47-2.18,1.18Zm4.33-1.71c-.73-.49-2.06-.32-2.13-1.45-.04-.61.58-1.27.91-1.91,1.33.57,2.11,1.42,2.36,2.59.17.8-.9.93-1.13.77Zm.34-6.89c1.53-.12,1.34,1.68,2.36,2.25-.6.67-.81,1.65-1.74,1.63-.67-.02-1.46-.35-1.48-1.19-.02-.96-1.39-2.51.85-2.68Zm1.71,8.81c-.44-.67-1.42.64-1.76-.37-.06-.17.27-1.35,1.15-1.14.56.13,1.35.15,1.42,1.01.04.5-.3.58-.81.5Zm1.19-3.25c-.33-.17-.56-.55-.83-.83-.19-.13-.47-.32-.2-.52.32-.25.32.14.4.32.27-.5.54-1,.85-1.57.03.46.06.86.09,1.24.53-.05-.12-1.03.68-.73.53.2,1.18.55.68,1.22-.37.49-.77,1.33-1.66.88Zm-.11-5.25c0-.05.26-.22.3-.2.3.23.57.5.9.8-.13.09-.25.19-.26.18-.31-.27-.86-.26-.93-.78Zm1.84,9.98c-.08.2-.24.37-.36.56-.04-.13-.13-.28-.1-.4.05-.2.19-.39.38-.76.05.34.13.5.08.61Zm1.42,2.75c0-1.01-1.8-1.54-.76-2.77.19-.22.44-.38.66-.57.16.31.46.63.45.94-.04.8-.22,1.6-.35,2.39Zm14.14,1.72c.67-.59,1.11-.63,1.58-.57.04,0,.06.17.09.26-.44.08-.88.16-1.67.31Zm1.93,3.86c-.15.51-.38,1.01-.57,1.51-.42-.28-.21-.71-.2-1.05,0-.38-.15-.88.37-1.09.37.1.49.36.4.64Zm1.64-6.72c-1.01.33-1.12-1.04-1.96-1.07-.02,0-.1-.44-.02-.6.21-.39.63-.45,1.15-.46.5.49,1.25.29,1.93.47.23.06.72.11.57.45-.3.69-.98,1-1.67,1.23Zm-.76-5.43c.56-.11,1.33.69,1.14.91-.48.56-.17,1.65-1.06,1.78-.43.07-1.27.05-1.05-1.1-.81-1.01.08-1.41.97-1.59Zm13.65,3.87c-.14-.13-.32-.23-.42-.38-.3-.49-.61-1.13-1.25-.83-.66.31.13.78.09,1.19-.03.35.29.82-.46.9-.72.08-1.14-.13-1.2-.8-.04-.49.03-.86-.64-.95-.83-.12-1.64-.28-2.44.1-.11.05-.21.4-.15.5.25.4.66.34.65.34.84-.17,1.42-.25,1.52.23.09.46.58,1.03.13,1.44-.44.4-1.11.63-1.68.32-1.03-.56-1.64-.83-2.21.7-.41,1.11-1.97.73-3.04.95-.04,0-.2-.28-.17-.32.43-.53.13-1.54,1.02-1.72.99-.21,1.73-.4,1.85-1.72.09-1.05,4.41-3.02,5.46-2.72.28.08.49.13.16.41-.19.15-.71.19-.42.5.18.19.93.2,1.07.02.42-.53.74-.08,1.09-.11,1.55-.14.72,1.18,1.15,1.69.03.03-.08.19-.13.29Zm-10.39.61c.09-.23.45-.41.72-.5.24-.08.46.09.47.39-.07.38-.36.53-.68.57-.32.04-.63-.17-.51-.46Zm19.06-1.25c-.41.74-1.03,1.19-2.14,1.18-.86-.14-1.83-.47-2.12-1.66-.25-1.01.44-1.52,1.18-1.97.33-.2.71-.26.51.26-.39,1.06-.02.95.71.58.57-.29,1.13-.28,1.57.3.3.4.56.82.29,1.31Zm-2.04-11.73c-.06.29.06.72-.42.67-.11-.01-.31-.39-.26-.53.08-.28.3-.73.48-.74.44-.03.13.4.21.6Zm-.12.95c.03.06.05.11.08.17-.05.04-.1.07-.14.11-.03-.06-.08-.12-.07-.18,0-.03.09-.07.14-.1Zm4.18,5.78c1.3-.15,1.57.71,1.56,1.75-.01,1.38-.86,2.46-2.08,2.34-1.43-.14-2.19-1.14-.63-2.3-.35-1.24.24-1.68,1.16-1.79Zm-1.84-4.03c1.47.17.82,1.62,1.12,2.43.15,1.24-1.1.2-1.26.87-.23-.57-.65-1.14-.63-1.71.02-.57-.05-1.69.77-1.6Zm-10.04-16.16c1.46,3.68,4.41,6.06,8.34,6.8,1.62.3,1.68.98,1.32,2.17-.12.42-.3.82-.48,1.22-.2.45-.44.89-.66,1.34-.29-.37-.6-.72-.86-1.1-.47-.69-.76-.56-1.22.08-.96,1.36-1.48,2.68-.6,4.31.34.63.43,1.39-.61,1.7-1.67.5-2.73,1.3-1.32,3.14.07.1-.1.38-.17.59,0,0,.01,0,.02,0,0,.01-.01.02-.02.04.52.12,1.03.24,1.55.37.06-.06.12-.12.17-.18-.34-.44-.72-.84-1-1.31-.3-.5-1.03-1.11-.33-1.65.62-.47,1.5-1.04,2.31-.48.73.5,1.03,1.37,1.13,2.27-2.67-.42-.57,2.86-2.48,3.23-.42.08-.94.67-1.42.31-.67-.5-.46-1.28-.23-1.98.07-.21.2-.39.31-.58,0,0,0,0-.01,0,0,0,0-.02.01-.03-.49-.06-.61.41-.9.63-.43.32-1,.34-.98-.24.04-1.13-.56-2.27.04-3.39.19-.35.33-.77,0-1.11-.11-.11-.39-.15-.54-.1-.5.16-.47.56-.37.98.03.14-.03.3-.05.45-.17-.07-.39-.09-.5-.21-.95-.98-2.2-1.02-3.44-1.12-.52-.04-1.09.22-.51.69,1.7,1.35,1.79,4.35,4.65,4.48.24.01.49.56.28.51-1.09-.26.11,2.35-1.23,1.09-1.78-1.67-3.2-1.61-4.77.08-.18.19-.65.44-.69.39-1.82-2.09-.75.51-1.13.72-.35.2-.78.93-.94.7-.35-.51-.68-1.37-.48-1.88.75-1.97-.88-2.06-1.89-2.65,0,.01.01.02.02.03,0,0-.01,0-.02,0,.16.33.3.68.5.98.24.36.28.73.17,1.13-.25-.11-.6-.14-.73-.33-.45-.7-1.07,1.03-1.38-.11-.33-1.2.42-1.58,1.44-1.68,0-.01-.01-.03-.02-.04,0,0,.01,0,.02,0-.49-.91-1.49-.22-1.54-.06-.45,1.28-1.9,1.11-2.61,1.93-.63.74-1.07,1.54-.26,2.45.19.21.38.42.12.71-1.09,1.22.26,1.72.75,2.46.53.8,1.22.51,1.92.23.26-.1.62-.48.82-.1.1.19-.18.65-.4.89-.45.5-1.1.52-1.68.39-1.85-.42-3.52.15-5.19.8-.5.19-1.15.39-1.42-.09-.28-.5.49-.57.77-.85.72-.71,1.12-1.79,2.29-2.01.09-.02.19-.32.18-.48,0-.09-.25-.28-.32-.25-1.38.54-3.38-.33-4.09,2.09-.11-.46-.15-.66-.2-.85-.24-.77-.69-1.58-1.51-1.4-.77.17-.27,1.1-.39,1.68-.11.53.77,1.14-.1,1.57-.8.4-.98-.4-1.46-.74-1.03-.73-2.32-1.07-3.15-2.11-.14-.18-.26-.39-.39-.58.21-.04.43-.05.63-.12,1.43-.53,3.04-.69,4.07-2.01.1-.13.12-.32.18-.49-.18.01-.41-.04-.52.05-.87.76-1.63.47-2.49-.07-.83-.52-1.83-.35-2.68-.07-1.09.35-1.84-.35-2.71-.63-.56-.18-.26-.59.09-.77.85-.43,1.05-1.37,1.64-2,.07-.07.12-.16.18-.24-.84-.58-1.35-1.22-.57-2.25.18-.23-.79-.69-.43-.61,1.35.28,1.58-3.13,3.29-.92.64.83.87,1.58-.13,2.35-.39.3-.62.81-.92,1.23.13.03.31.13.37.08.7-.59,1.31-1.29,1.53-2.18.09-.38-.1-.88-.29-1.26-.53-1.03-1.84-1.82-.94-3.28.05-.09-.31-.61-.42-.59-.52.09-.07.39-.06.6.02.69-.31,1.12-.96,1.33-.9.3-1.63-.14-2.04-.79-1.15-1.8-.78-2.22,1.89-2.23-1.09-.42-2.41-2.12-2.95.61-.09.46-.63.06-.95.17.05.98-1.04,1.2-1.36,2.01-.13.33.95,1.19-.15.83-.86-.27-2.4-.59-2.33-1.52.08-.94.54-2.59,2.37-2.1.25.07.53.05.79.07-1.71-1.38-2.84-1.12-3.31.77-.08.33-.1.45-.52.24-1.87-.96-2.16-2.82-2.64-4.55-.1-.36.05-.63.53-.76,7.17-1.85,10.43-6.19,10.26-13.7-.07-3.18-.98-6.12-2.73-8.79,0,0-.02,0-.03-.01-.09.07-.16.09-.21.09-.03.03-.05.05-.05.07.46,1.17,1.31,2.19,1.3,3.53.01.02.02.03.03.05.05.08.09.17.14.25-.06-.08-.11-.15-.17-.23,0-.03,0-.05,0-.08-.86-1.18-1.52-2.44-1.57-3.94,0,0,0,0,0,0-.03.05-.06.11-.09.16,0-.03.02-.06.03-.09.02-.03.04-.05.06-.08,0,0,0,0,0,0h0s0,0,0,0c.09.14.16.34.31.34.04-.04.09-.08.13-.11.01-.01.05,0,.08.02,0,0,.01,0,.02-.01-.33-.68.43-1.13.65-1.21,2.06-.75,3.4-2.64,5.44-3.37.38-.14.89-.7,1.24-.09.31.54.12,1.1-.1,1.76-.46,1.38-2.25,2.67-.87,4.29.52.61-.55,1.76.4,1.57,1.26-.25,2.34-1.24,2.76-2.6.27-.88.37-1.43,1.25-.37.77.92,1.97.4,2.96.49.46.04.51-.53.19-.91-.33-.4-.63-.84-1.03-1.16-.39-.31-.38-.55-.1-.88.27-.31.53-.21.84-.02,1.52.9,3.35-.12,3.54-1.93.04-.43-.34-1.24.53-1.17.77.06,1.87,0,2,1.11.23,2.06,2.46,2.04,3.36,3.41.24.36.68-.14.68-.61,0-.8-.06-1.6,0-2.39.04-.44-.57-1.09.27-1.3.81-.21,1.66,0,2.24.54.62.56-.33.8-.48,1.22-.09.25-.12.51-.18.77.26.01.52.02.78.04,1.21.09,2.44-.96,3.63.08.1.09.2.17.3.26-1.38.31-1.13.88-.42,1.77.18.23-.18,1.04.4,1.31.56.26,1.07-.09,1.54-.41.33-.22.52-1.01.96-.58.3.3.3,1.01-.01,1.58-2.6,4.66-2.83,9.57-.91,14.43Zm1.2,19.2c-.13.11-.22.19-.31.26-.08-.12-.2-.24-.22-.37-.02-.11.09-.23.15-.35.11.13.22.26.38.45Zm-2.13-.53c.03.06-.12.22-.18.34-.21-.21-.42-.41-.61-.63-.02-.03.13-.19.28-.4.23.3.4.48.52.7Zm-26.75,5.81h1.66c-.6.35-1.06.49-1.66,0ZM56.72,10.32c-.06.07-.12.13-.18.2-.38.36-.76.71-1.14,1.07l-.24.24c-.12.33-.28.57-.68.34,0,.05.01.1.02.15.02.18.05.36.07.53,0,0-.01,0-.02,0,0,.08,0,.17,0,.25-.11-.01-.23-.02-.34-.03,0,1.22-.65,2.15-1.38,3.05.39-1.05.51-2.21,1.36-3.05,0,0,.01,0,.02,0,0,0,0,0,0,0-.1-.42.21-.18.34-.22,0-.01,0-.02,0-.03-.02-.17-.04-.34-.06-.51l-.02-.15s0,0,0,0c0,0,0,0,0,0,.17-.16.35-.32.53-.48.08-.09.15-.18.23-.27.36-.36.72-.72,1.08-1.08.08-.08.16-.16.24-.23.11-.04.23-.08.34-.13-.06.11-.11.23-.17.34Zm.7-.52s0,0,0,0c-.07,0-.14,0-.2,0,0-.03.01-.06.02-.09.06.03.12.06.18.09h0s-.05-.08-.08-.12c.03,0,.06-.02.09-.03,0,.05,0,.1-.01.15Zm5.84-3.86c-2.29.56-4.16,1.94-6.18,3.05-.26.14-.57.2-.86.29.06-.48-.74-.64-.43-1.26-.04-.74.31-1.25,1.04-1.63,2.02-1.05,4.16-1.26,6.38-1.05.18.02.35.12.52.18-.16.14-.3.37-.48.41Z"/>
      <path class="cls-1" d="m56.13,48.25s.01-.02.02-.04c0,0-.01,0-.02,0,0,.01,0,.02-.01.03,0,0,0,0,.01,0Z"/>
      <path class="cls-1" d="m21.72,16.34c-.05-.08-.09-.17-.14-.25-.01-.02-.02-.03-.03-.05,0,.03,0,.05,0,.08.06.08.11.15.17.23Z"/>
      <path class="cls-1" d="m42.68,48.28s.01,0,.02,0c0-.01-.01-.02-.02-.03,0,0-.01,0-.02,0,0,.01.01.03.02.04Z"/>
      <polygon class="cls-1" points="19.97 12.1 19.97 12.1 19.97 12.09 19.97 12.1"/>
      <path class="cls-1" d="m54.2,13.08s0,0,0,0c.11.01.23.02.34.03,0-.08,0-.17,0-.25-.14.04-.45-.2-.34.22Z"/>
      <path class="cls-1" d="m23.6,39.07s-.05,0-.08,0c.03.01.06.03.09.04l-.02-.04Z"/>
      <path class="cls-1" d="m20.28,12.44c.06,0,.13-.02.21-.09-.03-.01-.07-.03-.08-.02-.04.03-.09.07-.13.11Z"/>
      <path class="cls-1" d="m17.44,10s-.08,0-.12-.01c.02.02.04.04.05.07,0,0,0,0,.01,0,0,0,0,0-.01,0,.02-.02.05-.03.07-.05Z"/>
      <path class="cls-1" d="m21.37,27.8s0,.06.01.09c.02-.02.04-.04.06-.05,0,0-.01-.01-.02-.02-.02,0-.03,0-.05-.01Z"/>
      <path class="cls-1" d="m54.49,12.32s-.01-.1-.02-.15c0,0,0,0,0,0l.02.15Z"/>
      <polygon class="cls-1" points="60.51 17.5 60.52 17.5 60.52 17.5 60.51 17.5"/>
      <path class="cls-1" d="m57.42,9.8h0s0,0,0,0c0-.05,0-.1.01-.15-.03,0-.06.02-.09.03.03.04.05.08.08.12Z"/>
      <path class="cls-1" d="m6.09,21.77c.41.31.89.55,1.2.94.49.62,1.09,1.5.42,2.14-.74.7-1.32-.19-1.83-.73-.41-.43-.98-.79-1.47-.36-.79.68-1.63,1.44-1.65,2.6,0,.76.3,1.55-.35,2.2-.47-.68-.23-1.46-.24-2.18-.04-2.67,1.19-3.75,3.84-3.48.18.02.36,0,.54,0-.2-.31-.41-.63-.61-.94.05-.06.11-.11.16-.17Z"/>
      <path class="cls-1" d="m60.52,17.5c-.38-.72-.75-1.45-1.13-2.17.72.57,1.21,1.24,1.12,2.17,0,0,0,0,0,0Z"/>
      <path class="cls-1" d="m18.04,55.1c.21-.22.07-.87.53-.67.23.1-.05.6-.34.82-.06-.05-.12-.1-.19-.15Z"/>
      <path class="cls-1" d="m73.13,24.08c-.17-.34-.34-.67-.51-1.01.49.17.51.59.51,1.01Z"/>
      <path class="cls-1" d="m59,14.43c.13.16.26.32.39.48,0,0-.05.05-.07.08-.12-.17-.25-.34-.37-.51,0,0,.06-.06.06-.06Z"/>
      <path class="cls-1" d="m5.59,21.53c.17.08.33.16.5.24-.05.06-.1.12-.16.17-.17-.07-.33-.15-.5-.22.05-.06.11-.13.16-.19Z"/>
      <path class="cls-1" d="m58.06,13.45c.06.07.13.15.19.22-.11-.03-.22-.06-.33-.08.05-.05.1-.09.15-.14Z"/>
      <path class="cls-1" d="m58.94,14.49c-.06-.06-.13-.12-.19-.18.02-.02.05-.05.07-.07.06.07.11.13.17.2,0,0-.06.06-.06.06Z"/>
      <path class="cls-1" d="m19.66,39.9c-.09-.09-.19-.19-.28-.28.09.09.19.19.28.28Z"/>
      <path class="cls-1" d="m19.43,39.66c-.09-.09-.19-.19-.28-.28.09.09.19.19.28.28Z"/>
      <path class="cls-1" d="m23.62,39.11s-.05-.02-.08-.03c.02,0,.04,0,.06,0,0,0,.02.04.02.04Z"/>
      <path class="cls-1" d="m19.19,39.42c-.09-.1-.18-.19-.28-.29.09.1.18.19.28.29Z"/>
      <path class="cls-1" d="m13.4,20.71c-.08-.25-.04-.45.26-.51.28.35.04.45-.26.51Z"/>
      <path class="cls-1" d="m57.85,48.44c.04.06.09.12.13.18-.1,0-.2,0-.3,0,.06-.06.12-.12.17-.18Z"/>
      <path class="cls-1" d="m41.4,54.37c-.33.38-.62.51-1.02.32.23-.36.55-.38,1.02-.32Z"/>
    </g>
  </g>
</svg>