<?xml version="1.0" encoding="UTF-8"?>
<svg id="Layer_2" data-name="Layer 2" xmlns="http://www.w3.org/2000/svg" viewBox="0 0 109 273.79">
  <defs>
    <style>
      .cls-1 {
        fill: currentColor;
        stroke-width: 0px;
      }
    </style>
  </defs>
  <g id="Layer_1-2" data-name="Layer 1">
    <g>
      <path class="cls-1" d="m24.76,209.29s0,0,.01,0c0-.02-.01-.03-.02-.05,0,.02,0,.04,0,.06Z"/>
      <path class="cls-1" d="m31.8,159.2l-.04-.03s0,.02,0,.03c.01,0,.03,0,.04,0Z"/>
      <path class="cls-1" d="m30.12,162.27s-.02,0-.04,0c0,0,0,.01,0,.02.01,0,.03-.01.04-.02Z"/>
      <path class="cls-1" d="m24.36,111.73s.03,0,.04,0c0,0,0-.01,0-.02,0,0-.01,0-.02-.01,0,0,0,.02-.01.02Z"/>
      <path class="cls-1" d="m27.47,133.97s0,0,0,.01c.01,0,.02-.02.03-.02,0,0,0,0,0-.01-.01,0-.02.02-.04.02Z"/>
      <path class="cls-1" d="m34.42,157.99s0,0,.01,0c0-.01-.02-.02-.02-.03,0,0-.01-.01-.02-.02,0,.02.02.03.03.04Z"/>
      <path class="cls-1" d="m59.28,151.99s.03-.02.04-.03c0,0,0,0,0-.01,0,0-.02-.02-.03-.03,0,.02,0,.05,0,.07Z"/>
      <path class="cls-1" d="m17.39,172.26s0,.05,0,.07c.02-.02.04-.04.06-.06h-.05Z"/>
      <polygon class="cls-1" points="13.07 166.87 13.07 166.87 13.07 166.87 13.07 166.87"/>
      <path class="cls-1" d="m17.86,175.51s.02,0,.03,0c0,0-.02,0-.02-.01v.02Z"/>
      <polygon class="cls-1" points="13.06 166.86 13.07 166.87 13.07 166.86 13.06 166.86"/>
      <path class="cls-1" d="m12.11,64.21s0,0,0,0c0,0,.02,0,.03,0,0,0,0-.01,0-.02-.01,0-.03.01-.04.02Z"/>
      <path class="cls-1" d="m19.32,168.85c.01.07.1.12.35.14-.09-.22-.21-.2-.35-.14Z"/>
      <path class="cls-1" d="m14.23,169.26s.02.01.03.02c0,0,0,0,0-.01-.01,0-.02,0-.04,0Z"/>
      <path class="cls-1" d="m107.06.13c-4.94-.5-9.58.45-13.95,2.81-.71.38-1.47.73-2.26.23-1.77-1.11-3.43-.67-5.07.29-2.12,1.23-3.69,3.04-5.24,4.88-.69.82-1.46,1.26-2.56,1.26-3.63,0-6.94.89-10.1,2.85-1.8,1.12-4.18,1.22-6.23.4-1.56-.62-3.08-1.32-4.72-.97-2.74.57-5.61.18-8.29,1.16-.46.17-1.19.46-1.38-.39-.42-1.92-.71-3.88.02-5.78.64-1.66,2-1.89,3.22-.65.27.28.59.62,1.02.25.42-.36.36-.76.05-1.16-.68-.88-1.54-1.42-2.68-1.28-1.54.19-2.66,1.01-3.33,2.41-.91,1.88-.57,3.83-.28,5.77.14.93-.05,1.32-1.05,1.71-1.77.68-3.42,1.69-5.06,2.65-.53.31-.88.23-1.45.19-1.54-.12-1.88-1.06-2.36-2.24-.28-.68-.6-.99.08-1.61.72-.66.92-.11,1.4.26.56.43,1.49.76,2,.37.64-.49-.33-.85-.56-1.27-.31-.58-.18-.71.44-.82,1.13-.2,1.63-1.23,1.59-2.12-.04-.81-.97-.04-1.5-.23-1.14-.39-2.86.98-3.44-1.29-.15-.61-1.13-.24-1.72-.01-.28.11-.58.33-.85.3-1.51-.22-2.36.1-1.7,1.84.11.3.12.57-.2.7-.42.18-.45-.23-.52-.46-.51-1.57-2.16-.91-3.13-1.59-.27-.19-.33.3-.26.47.8,2.03-.68,2.52-2.05,3.1-.86.37-.63.7,0,1.1,1.22.77,2.29.37,3.32-.37.48-.34.96-.33,1.46-.1.1.05.22.28.19.35-.23.48-.72.39-1.13.52-.97.29-1.93.62-2.03,1.88-.03.42-.25.61-.63.32-1.71-1.28-4.36-1.83-3.48-5.02.35-1.26-1.2-1.65-1.75-2.53-.03-.05-.34-.03-.38.04-.45.8-.45,1.68-.31,2.54.15.88.5,1.72,1.2,2.3.84.7.49.74-.3.98-1.22.38-2.29,1.1-3.09,2.14-.38.49-.38.76.37.95,1.7.44,3.22.2,4.69-.74.65-.42,1.34-1.05,2.17-.4.83.65.15,1.4,0,2.08-.22,1-.45,1.94.96,2.21.24.05.47.17.71.26-.23.22-.44.58-.69.61-.54.08-1.17.15-1.63-.06-1.94-.89-2.85,1.23-4.4,1.43-.03,0-.08.3-.03.4.32.62,3.99,1.08,4.41.49.89-1.25,1.31-1.22,1.49.36.06.55.35,1.24.9,1.31.61.08.27-.79.6-1.06.59-.47.58-1.78,1.43-1.59,1.11.24,1.18,1.42,1.06,2.39-.12,1.02-.43,2.02-.65,3.02-.07.32-.52.7-.04.93.42.21.59-.31.77-.59.91-1.44.89-3.05.65-4.65-.17-1.1.62-1.54,1.27-1.74.8-.25.64.72.79,1.17.39,1.19-1.85,5.46-3,6.44-1.22,1.04-2.22,1.29-3.68.47-.73-.41-1.77-.26-2.54.49-2.29,2.22-3.37,4.88-3.18,8.07.05.76-.06,1.47-.7,2.07-1.46,1.37-2.53,2.97-2.67,5.06-.02.25-.15.59-.34.71-.3.2-.46-.16-.65-.35-.22-.21-.29-.81-.77-.47-.46.32-.16.8.08,1.04,1.59,1.59,1.52,3.69,1.82,5.67.04.28.32.67-.12.81-.15.05-.5-.22-.61-.43-.79-1.44-2.07-1.24-3.37-1.06-.63.09-.55.31-.28.77.66,1.11,1.92,2.24-.01,3.41-.32.19-.42.75-.61,1.15-.17.34-.33.61-.81.5-2.16-.51-2.79.84-3.08,2.57-.12.71.05,1.79-.35,2.08-1.28.93-1.66,2.88-1.36,3.44,1.02,1.9.03,2.84-.84,4.24-.64,1.03-.47,2.57-1.8,3.31-.14.08-.17.33-.26.49.18,0,.36.02.53,0,2.22-.28,4.49-.49,4.75-3.47.03-.34.27-.6.67-.51.38.08.29.39.28.67-.02,1.23.82,2.13,1.25,3.19.1.24.3.41.48.04.54-1.12,1.72-1.91,1.63-3.37-.06-.93.56-1.04,1.28-.68,1.21.61,1.97.12,2.5-.98.37-.75.74-1.51,1.16-2.23.18-.31.38-.68.93-.37,1.12.64,1.93,1.29,1.5,2.82-.35,1.22-.33,2.52-.21,3.81.08.89.65,2.39-1.37,1.16-.89-.54-1.87.27-2.6,1,1.25.15,1.6,2.11,3.04,1.66,1.42-.44,1.8.32,2.08,1.37.5,1.87-.77,3.46-.88,5.24-.03.39-.52.2-.83.19-.59-.03-1.55-.27-1.69-.04-.36.61.32,1.21.56,1.82.27.68.95.94,1.46,1.38.19.16.29.43.43.64-.21.09-.43.25-.65.26-1.55.08-2.28,1.35-3.27,2.24-.24.22-.21.39.13.48.81.2,1.66.69,2.41.56,1.49-.26,1.73.39,1.71,1.61-.01.9-.46,2.04,1.05,2.35.23.05.34.73.5,1.11-.34.01-.76.16-1,.02-1.01-.64-1.97-1.37-2.95-2.07,0,0,0,0,0,.01,0,0-.02,0-.03,0,0,.5.46,1.08-.21,1.47-.66.38-1.31-.03-1.95-.11-.16-.02-.42-.48-.37-.68.13-.57.67-.81,1.18-.87.44-.05.9.11,1.35.19,0,0,0-.02,0-.02,0,0,.02.01.03.02-.19-.96-.94-.98-1.56-.71-1.75.77-2.83-.48-4.09-1.21-.18-.11-.32-.27-.49-.41-.04.21-.1.43-.12.64-.13,1.81-.18,3.61.63,5.31.01,0,.03-.02.04-.03,0,0,0,0,0,0,0,0,0,0,0,0,.33-.22.65-.45.98-.67.52-.34,1.16-.42,1.51.08.56.79-.61.21-.65.67-.01.18-.26.39-.45.49-.45.23-.27,1.16-.84.99-.67-.2-.41-1.01-.55-1.55,0,0,0,0,0,0-.16.71-.1,1.61-.52,2.1-1.22,1.41-1.04,3.83-3.4,4.47-.66.18-.94,1.46-2.04,1.36-.09,0-.2.18-.29.28.13.13.24.32.4.39,1.69.78,3.38,1.23,5.01-.13.12-.08.24-.16.35-.24-.03.17-.06.35-.08.52-.34.32-.65.68-1.01.96-1.72,1.31-.9,3.15-.98,4.78-.02.31.47.34.8.17,1.67-.89,2.44-2.19,2.03-4.13-.11-.49-.86-1.17.02-1.53.96-.4,2.13-.82,2.88.36.68,1.07,1.53,1.52,2.78,1.41.99-.08.55.86.76,1.32.12.27.12.99-.28.83-2.04-.79-2.33,1.35-3.51,1.97,0,.01,0,.02,0,.03,1.09.02,2.3-.34,2.85,1.16.11.31.55.33.89-.18.51-.78,1.36-.67,2.14-.4.7.25.38.79.33,1.25,0,0,.02.01.02.02.02.02.02.05.03.07.45.27.36-1.42,1.1-.35.24.34,1.19.43.88.95-.41.67-1.34.49-2.01.28-.57-.18.15-.57.03-.89-.02-.01-.04-.02-.06-.04,0-.02,0-.03,0-.05-.58-.56-1.23-.9-2.12-.55.3.15.59.26.85.42.24.15.78.17.57.58-.18.34-.55-.03-.84-.08-1.14-.21-2.38-.11-3.26-1.13-.1-.11-.49-.22-.38.24.38.97.82,1.77,2.12,1.67.52-.04.77.55.93,1.09.23.75-.75.64-.82,1.25-.02.16-.62-.37-.94-.61-.59-.44-1.1-1.06-1.75-1.35-1.7-.77.37-1.46-.02-2.17.15.04.3.09.45.13.11-.76-.93-.68-1-1.32-.02,0-.04,0-.05,0,.02,0,.03-.02.05-.03,0,0,0-.01,0-.02-.63.44-1,.97-.98,1.81.04,1.59-.52,2.25-1.74,2.26-.07,0-.2.15-.19.21.17.92-.61.84-1.06.89-1.61.2-2.46,1.52-3.6,2.38-.44.33.13.53.37.62,1.55.6,3.03,1.79,4.83.7.16-.1.49-.24.42.23-.15.99-3.16,3.64-4.16,3.36-2.5-.71-3.77,1.22-5.48,2.23-.4.23-.39.52.08.63,1.66.38,3.34,1.02,4.86-.37.11-.06.23-.12.34-.18-.04.13-.09.25-.13.38-.75,1.26-1.48,2.53-2.24,3.78-2.23,3.62-2.06,7.99-3.67,11.8-.09.21-.01.63.15.77.33.29.41-.19.61-.32,1.85-1.2,2.14-2.79,1.31-4.76-.19-.44-.1-1.02-.06-1.53.03-.34.2-.96.29-.96.53.01.36.58.55.89.33.54.68,1.07,1.06,1.58.08.1.59.36.41-.07-.85-2.06,1.41-4.23-.29-6.26-.17-.2.13-.81.25-1.21.04-.12.23-.19.35-.28.04.14.11.29.1.43,0,2.05,1.6,2.78,3,3.66.24.15.8.28.57-.28-.54-1.32-.31-2.7-.36-4.02-.09-2.08-1.06-4.27.76-6.24.96-1.04,1.56-2.4,3.08-2.82.69-.19,1.41-.16,1.94.26.6.47.3,1.17.1,1.78-.4,1.2-.6,2.48-.18,3.65.65,1.82-.08,2.21-1.7,2.05-.8-.08-1.81-.12-2.17.6-.26.52.85.19,1.14.72.52.98,1.25,1.86,2.45,1.89,1.25.03,1.3.74,1.42,1.7.63,4.72-.6,9.4-.26,14.12.21,2.95-1.44,5.04-3.73,6.52-1.03.67-2.55.98-3.75.1-1.73-1.26-3.29-.09-4.92.16-.32.05-.3.27-.17.54.79,1.57,3.39,2.19,4.8,1.14.41-.31.83-.64,1.29-.85.43-.2.77-.15.65.52-.46,2.69-4.93,5.3-7.46,4.37-1.61-.59-3.17-.8-4.48.74-.52.61-.4,1.5.27,1.94,2.21,1.43,3.94.43,5.58-1.03.51-.46.97-.96,1.67-1.1.29-.06.6-.05.9-.08-.12.28-.22.58-.37.84-.83,1.41-1.74,2.77-2.48,4.22-.2.4-.89,1.23-.2,1.47.66.23,1.19-.61,1.51-1.28.07-.14.08-.31.11-.46.08-.49.15-.98.23-1.48.33.37.64.77.99,1.11.25.25.56.44.84.65.08-.12.26-.26.24-.35-.29-1.07.37-2.11-.19-3.27-.5-1.04.67-1.73,1.36-2.43.17-.17.51-.32.59-.02.54,2.08,1.12,1.46,1.83.09.13-.24.53-.33.79-.52.92-.66,1.5-1.62,1.2-2.68-.46-1.6.57-2.36,1.33-3.43,1.58-2.23,2.36-1.84,2.78.62.14.79,1.21,1.64.56,2.24-.57.53-1.68-.05-2.46-.39-.73-.32-.87-.1-.68.53.39,1.27.53,2.57.72,3.87.17,1.16,1.02,1.88,2.24,1.98,1.03.09,1.86.44,2.6,1.21.87.91.93,2.15,1.57,3.14.21.32.44.72.79.56.4-.18-.03-.45-.14-.66-.15-.27-.23-.58.07-.73.2-.1.65-.11.74.02.55.74,1.47.72,2.17,1.13.22.13.4.32.59.49-.23,0-.45-.02-.68,0-.56.04-1.46-.53-1.31.8.04.34-.44.41-.86.36-1.73-.2-3.41-2.01-3.7-4.1-.47.94-.09,1.68.56,2.25.63.56.89,1.31,1.27,2,.09.17,0,.46-.08.68-.01.05-.34.08-.41,0-1.01-.95-2.74-1.85-2.84-2.89-.17-1.87.1-3.18-2.44-3.45-.99-.11-1.69-.82-2.36.39-.26.48-.72.7-1.21.92-1.09.48-1.36,1.33-.94,2.42,0,0,0,0,0,0,0-.04-.02-.07-.02-.11.17-.84.25-1.77,1.42-1.81.32-.01.83.22.69.44-.47.75-.93,1.66-2.09,1.48,0,0,0,0,0,0,.88.57.22,1.9,1.19,2.42,0,0,0-.01,0-.01-.01,0-.02-.01-.03-.02.01,0,.02,0,.04,0,.13-.5-.6-1.33.49-1.45.48-.05.99.11,1.48.19.02,0,.04.28-.01.31-.62.39-1.06,1.17-1.96.95,0,0,0,0,0,.01,1.86,1.09,3.61-.25,5.42-.27,0-.01-.01-.02-.02-.03-.25-.01-.33-.07-.35-.14-.06.03-.12.06-.18.08-.6.22-1.16.24-1.55-.39-.3-.49.07-.82.31-1.15.38-.51,1.1-.51,1.47-.36.49.21.27.89.18,1.4-.02.1-.27.29-.25.43.13-.06.26-.09.35.14,0,0,0,0,.01,0,.35-.81,1-.89,1.44-.27.87,1.2-.61,1.91-.9,2.87-.17.56-1.31.81-2.01,1.21-.28.17-.41.74-.81.47-.15-.1-.04-.58-.02-.93-1.94,1.88-1.93,1.9-.11,3.04.04-.05.08-.09.12-.14.03-.32-.93-.92-.15-.83,2.38.27,4.26-1.13,6.42-1.53.28-.05.55-.11.83-.17.03.44-.18.78-.51,1.02-1.54,1.15-3.24,1.81-5.19,1.74-.3-.01-.61.03-.91.05.7.55,1.5.18,2.25.24.26.02.52.06.78.09-.11.23-.18.5-.33.7-1.25,1.55-2.57,2.94-4.85,2.76-.92-.07-1.63.53-2.21,1.23.06.06.12.11.18.17.22-.03.56-.15.63-.06.24.31-.09.56-.3.63-.26.09-.53.78-.87.09-.08-.08-.16-.16-.25-.24-.75.92-1.62,1.65-2.98,1.63.53.6,1.61.37,1.59,1.08-.02.59-.93.55-1.47.74-.8.28-1.52-.16-2.29-.23,0,.01.01.02.02.03,0,0-.01,0-.02,0,.14.3.33.67-.29.59-.4-.05-.89.06-1.14-.42.25-.06.49-.14.74-.17.22-.03.46,0,.68,0,0-.01-.01-.02-.02-.03,0,0,.01,0,.02,0-.07-.11-.13-.26-.24-.3-1.98-.84-3.69.78-5.6.63-.02,0-.11.27-.07.36.7,1.57,4.09,2.59,5.53,1.51.99-.75,2-1.27,3.19-1.49.5-.09,1.13-.88,1.43-.3.39.74-.65.77-1.04,1.15-.39.38-.71.86-.94,1.36-.49,1.06-.35,2.38-1.36,3.26-.32.28.04.36.29.34,2.41-.2,4.24-2.51,3.94-4.97-.07-.58-.35-1.47.32-1.61,2.21-.49,3.16-2.23,4.25-3.87.09-.05.17-.1.26-.15,0,.13-.02.26-.03.39.24.77-.3,1.62.26,2.35.57-.49,1.03-1.06,1.19-1.82,0,0,0,0,0,0,0,0-.01.02-.02.02,0-.01-.01-.02-.02-.03-.26-.05-.56.63-.76,0-.06-.2.15-.49.23-.74.17.25.35.5.52.74.01,0,.03,0,.04,0,.65-.59.4-1.39.48-2.1.12-1.01.88-2.03,1.59-1.99.76.04-.16,1.02-.05,1.63.15.82.15,1.66.2,2.5.05.82.32,1.67-.44,2.36-.17.15-.56.33-.24.64.06.06.45-.19.65-.34.98-.71,2.88-1.4,3.14-1.08.81,1,.9,2.48.39,3.82-.13.34-.27.66-.42.99-.58,1.3-.9,2.65-.84,4.07.03.81-.05,1.4-1.09.97-.12-.05-.29.04-.43.06.09.11.18.22.26.33.58.77,1.21,1.52,1.72,2.34.15.24.12.81-.06.98-.34.32-.67-.09-.88-.34-.51-.6-1.26-1.19-1.4-1.88-.34-1.72-2.06-1.75-2.99-2.72-.29-.3-1.09-.29-1.53.22-.98,1.12-2.46,1.47-3.7,2.03-1.73.78-2,1.87-1.68,3.35.16.72.28,1.28-.22,1.88-.33.4-.45.9-.06,1.31.4.41.78.96,1.49.81,1.32-.28,2.21.37,2.92,1.36.18.25.34.6-.09.81-1.15.56-1.73-.43-2.48-.94-.02-.01-.11.06-.19.11.74,1.06,1.76,1.46,3.01,1.31.97-.11,1.72,0,1.83,1.22.12,1.36,1.2,2.11,2.05,2.98.35.35.41.14.69-.24,1.08-1.45,1.06-3.03.87-4.67-.1-.88.51-1.21,1.08-1.59.09-.06.32-.08.38-.02.46.47.32.93-.03,1.43-.11.15-.02.47.02.7.2,1.22.42,2.43.62,3.65.34,2.05-.62,3.1-2.49,2.77-.65-.11-1.1.25-1.33.79-.31.72-.76.86-1.5.79-.98-.09-1.68.3-1.49,1.89.18-.53.21-.7.29-.85.43-.85,1.25-.73,1.99-.74.24,0,.69.27.68.33-.14.62-.89.64-1.18,1.06-.68,1.01-1.35,2.06-1.8,3.18-.2.5-.47.68-.86.84-.12.05-.43-.06-.49-.18-.19-.41-.22-.82.09-1.23.33-.44.6-.93.87-1.42.06-.11.07-.35,0-.41-.09-.08-.33-.12-.43-.05-.86.58-.89,1.56-1.05,2.44-.12.67-.03,1.64.67,1.74,1.04.15,1.38.7,1.68,1.53.07.21.41.4.66.44.31.06.22-.23.18-.41-.07-.33-.37-.76.17-.89.43-.1.51.4.71.68.23.32.55.57.81.86.27.3,1.14.26.87.71-.29.5-.93.03-1.37-.22-.33-.18-.63-.59-1.06-.29-.47.33-.4.84-.27,1.31.19.7.47,1.36,1.18,1.7.04-.05.09-.1.13-.14-.11-.35-.61-.68-.23-1.06.37-.36.74.05,1.07.23.42.23.85.46,1.22.75.39.3,1.11.61.88,1.08-.14.28-.98.16-1.52-.16-.82-.48-1.05-.43-1-.12.28,1.79-.77,2.81-2.23,3.1-1.41.28-2.65-.53-3.58-1.68-.67-.84-4.17-1.12-4.84-.39-.08.09-.14.35-.09.39.96.81,1.27,2.44,2.94,2.34.46-.03.92-.04,1.37-.06-.2.47-.3,1.02-.6,1.4-1.09,1.37-2.23,2.26.88,2.69,2.09.29,2.94-.22,3.68-1.82.26-.57.51-1.15.76-1.72,0,0-.02.01-.02.02-.02,0-.04-.01-.06-.02-.89.09-1.08.92-1.53,1.49-.25.32.05,1.13-.82.88-.39-.11-1.02-.05-1.16-.29-.39-.68.69-.57.74-1.09-.06-.08-.12-.16-.18-.24-.57.02-1.44.78-1.52.37-.18-.86.8-.82,1.44-.97,1-.23,2-.5,3.02-.15.03,0,.06-.01.09-.01,0,0,0,.01,0,.02,1.11-.73,2.37-1.3,2.72-2.8.08-.36.11-1.01.77-.83.53.14.5.67.48,1.1-.08,1.96-.93,3.69-1.64,5.45-.87,2.16-2.17,4.19-1.64,6.7.09.42.11.85.17,1.28-.42-.17-.83-.34-1.25-.51-.38-.15-.93-.68-1.13-.23-.19.44.5.66.95.85.43.18,1.39.15.65,1.1-.18.23-.61.48-.14.87.6.5,1.27.9,2.04.89.77-.01.05-.5.13-.77.15-.47.5-.62.79-.36.63.56,1.73,1.42,1.6,1.8-.29.84-.89-.57-1.5-.23-.03.02-.04.06-.07.1h.04c-1.3.9-2.43.19-3.55-.41-.71-.37-1.35-.94-2.2-.44-1.14.67-1.18-.74-1.85-.97-.1-.03-.09-.42-.12-.64.67-.06,1.31.03,1.91.39.23.13.21.7.68.4-.17-.25-.3-.55-.52-.75-.92-.87-2.28-.62-3.28-1.26-1.69-1.09-3.76-1.21-5.61.39-1.6,1.39-.42,3.34-1.03,4.95-.26.69.3,2.04-.04,2.27-.73.48-1.3.82-1.27,1.77.04,1.22,1.32,1.66,1.66,2.7.07.21.2-.04.22-.18.08-.52.23-1.02.9-.7.64.31.47,1.13.24,1.34-1.08.99.08.73.45.89.81.36,3.14,0,.81,1.79-.23.18-.3.56-.47.82-.8,1.23-1.87,2.37-3.25,2.67-3.14.69-5.09,4.42-3.58,7.29.04.07.23.12.32.09,1.8-.7,3.28-3.17,3.1-5.13-.04-.39-.09-.8,0-1.18.06-.27.29-.67.5-.71.45-.09.36.4.47.68.22.6.32,1.29.69,1.77.39.51,1.04.82,1.59,1.2.02.01.27-.23.32-.38.37-1.22.52-2.36-.41-3.49-1.3-1.59,1.15-2.05,1.14-3.33,0-.45.38-.93.91-1,.52-.07.62.45.76.78.53,1.32,1.75,1.93,2.89,1.85,1.22-.08,2.23-1,2.28-2.51,0-.23.25-.46.39-.68.14.1.37.16.42.3.35.92,1.15.89,1.9.92,1.43.07,2.28,1.09,3.27,1.9-.95.49-1.95.78-3.04.72-.36-.02-.74.07-1.08-.02-1.56-.4-1.85,1.66-3.21,1.63.04.13.05.31.14.37.81.52,1.35,1.5,2.53,1.38.36-.04.9-.17,1.07.29.15.43-.32.68-.6.95-2.32,2.25-3.55,4.79-2.18,8.06.15.35.09.78.13,1.17.04.33-.73.3-.36.68.1.11.7-.11.93-.32.34-.31.59-.73.81-1.14,1.1-2.02,1.44-4.09.5-6.3-.26-.62.08-1.32.64-1.51.55-.18.43.59.62.91.3.5.51,1.05.86,1.79.71-2.44-.46-5.01,1.22-7.11.29-.36.31-.9.95-.79.49.09.77.32.72.9-.17,1.98.08,3.89,1.11,5.65.39.66.46,1.33.29,1.94.23.3.34.64.38.98.42.01.29,1.05.17,1.54-.4,1.67.32,3.23.34,4.91.12-1.61.64-2.52,2.5-2.41,1.3.08,1.67-1.3,2.17-2.28.04-.08-.11-.37-.15-.36-.62.05-1.29,0-1.83.24-.81.35-1.38,1.06-1.88,1.8-.12.17-.34.26-.52.39-.05-.22-.18-.44-.15-.65.27-2.02.02-4.03-.52-5.93-.4-1.4-1.37-2.64-1.36-4.2,0-.16-.02-.32,0-.48.1-1.24-.23-3.27.88-3.42,1.22-.16.5,1.88,1.25,3.26-.15-1.5-.16-2.58-.41-3.59-.15-.6-.49-1.1.1-1.61.27-.23.6-.63.91-.36.52.45,1.38.8,1.35,1.56-.08,1.95.78,3.02,2.66,3.33.08.01.21.06.21.09.04,2.02,2.4,2.15,3.04,3.79.72,1.85,1.81,3.55,2.71,5.33.17.33.04.68-.2,1-1.38,1.76-.63,3.46.17,5.16.15.32.25.43.59.13,1.35-1.19,1.66-3.29.67-4.75-.32-.48-1-1.07-.55-1.55.49-.52.88.4,1.36.57.15.05.27.17.41.25,1.84,1.08,4.8.63,5.12,3.79.02.22.46.42.72.6.7.49,2.05,1.27,2.18.89.31-.92.16-2.19-.72-2.97-1.04-.91-1.9-1.5.36-1.81.91-.12,2.09-.72,2.25-1.68.08-.47-1.3-.08-1.98-.41-1.58-.76-2.67-.52-3.61,1.21-.64,1.18-2.02.58-3.01.13-2.84-1.31-4.74-3.58-6.15-6.31-1.2-2.33-2.99-4.39-3.02-7.26-.01-.96-.95-1.7-1.97-1.57-2.67.33-3.02-1.29-2.92-3.28.06-1.15-.25-2.09-.94-3-.31-.41-1.19-.99.13-1.49.62-.24-.17-.66-.3-1.01,0-.4-.64-.85-.16-1.14.55-.34.3.26.34.48.03.15.05.3.07.46,1.53-.37,3.12.19,4.65-.33.42-.14.55.28.24.56-.33.29-.76.66-1.14.65-2.67-.08-2.43,1.56-2.08,3.34.09.45.01.93.01,1.39.04-.06.09-.11.11-.18.42-1.14.15-2.83,1.75-3.11,1.48-.27,2.23,1,3.05,2.08,1.06,1.39,5.08.96,6.3-.57.32-.4.7-.76,1.04-1.14.3-.34.98-.58.71-1.11-.3-.58-.7.34-.97.15-1.38-.94-2.93-1.28-4.55-1.53-.31-.05.14-.73.39-.78,3.99-.74,4.05-3.75,3.9-6.86-.72.64-1.06,1.5-1.25,2.47-.2,1.04-.59,1.69-1.93,1.55-1.27-.13-1.3,1.05-1.38,1.95-.11,1.33-1.92,2.88-3.26,2.72-.13-.02-.37-.17-.37-.19.09-.25.16-.61.35-.7,2.37-1.16,3.33-3.02,3.15-5.65-.07-.99.27-2.04.57-3.02.49-1.56,0-2.72-1.23-3.67-.15.9,1.17,1.74.11,2.68-.2.18-.43.45-.63.44-.17,0-.49-.39-.47-.56.17-1.02-.43-1.4-1.23-1.29-1.28.18-1.02-.72-.87-1.26.22-.81.97-.63,1.59-.48.34.08.68.19,1.01.29-.81-1.11-2.39-1.4-3.36-.63-1.31,1.04-3.52.32-3.98-1.28-.14-.49-.42-.94-.63-1.4-.29.33-.59.65-.85,1-.85,1.15-1.24,2.39-1.56,3.85-.24,1.12-.83,2.68-1.92,3.66-.1.09-.26.12-.4.18-.02-.19-.06-.38-.05-.58.05-2.17.99-4.11,1.85-6.01.61-1.35,1.23-2.66,1.55-4.11.07-.32.29-.61.44-.92.24.18.49.35.71.54.35.31.59.94,1.08.8.45-.13.16-.7.15-1.08,0-.63.47-.53.83-.62.68-.16.71.37.77.79.18,1.28.59,2.9,1.87,2.86,1.51-.04,2.1,1.29,3.32,1.39.14.01.29-.04.44-.07-.07-.16-.09-.4-.21-.46-.43-.23-.59-.62-.74-1.04-.08-.24-.14-1.15-.31-.01-.05.35-.34.17-.42.03-.27-.48-.54-.97-.71-1.49-.08-.25.2-.26.41-.19,1.05.34.38-.32.26-.51-.56-.95-1.32-1.47-2.52-1.5-1.57-.04-3.25,0-4.39-1.43-.18-.23-.22-.57-.33-.86.26,0,.57.09.76-.03,1.62-.99,3.48.79,5.14-.44.14-.11,1.05-.16,1.31.43,0-.66.13-1.26.9-1.63.19-.09.32-.31.48-.47-.13-.06-.26-.13-.4-.17-.69-.16-1.18-.4-1.06-1.3.12-.95.8-.82,1.4-.93.1-.08.2-.16.29-.23-1.4-.87-1.53-1.9-.62-3.28.64-.97-.76-2.66-2.08-2.66.54.45,1.19.78,1.46,1.49.13.35.37.87-.24.93-.3.03-.68.35-1.15-.38-.61-.94-2.01-1.37-3.09-1.99-.27-.16-.81.14-.87-.36-.03-.25.22-.58.42-.79.33-.36.73-.24,1.07.02.33.26.64.55.95.83.12-1.05-.84-1.48-1.36-1.28-1.28.51-1.58-.2-1.92-1.05,0,0,0,0-.01,0,.01.06.03.12.03.17-.02.49.18,1.03-.29,1.41-.04.03-.38-.18-.39-.29-.04-.55.05-1.06.65-1.29,0-.02,0-.04,0-.06,0,.02.01.03.02.05,0,0,0,0,.02,0-.5-1.64-.18-3.31-.14-4.96.01-.49.09-.97.72-1.07.53-.08.82.17.99.64.05.15.13.32.25.4.55.38,1.2,1.09,1.67,1,.62-.12.07-.95.08-1.47.03-2.15.1-4.38-2.78-4.9-.31-.06-.27-.35-.23-.59.1-.47.49-.62.88-.7.49-.09.99-.25,1.41.28,1.54,1.89,4.84,2.53,6.85,1.39.53-.3.89-.54.03-.86-.6-.23-.91-.72-1.21-1.26-1.24-2.26-3.85-2.77-5.85-1.15-.49.4-1.14.78-1.63.52-.55-.29.09-.87.14-1.33.22-2.01,1-3.71,2.55-5.08.58-.51.76-1.31.8-2.08.02-.37.18-.81-.26-1.09-.07.28-.11.57-.22.83-.05.13-.23.22-.35.32-.23-.95-.43-1.75-.94-.08-.09.31-.34-.08-.34-.3,0-.7.08-1.39.91-1.56.72-.15.46-.7.54-1.11.02-.12-.08-.26-.13-.39-.24.25-.46.51-.73.73-1.48,1.26-1.32,2.82-.86,4.46.08.3.14.89-.28.92-.42.04-.26-.54-.38-.84-.76-1.87-.72-3.93-.3-5.73.33-1.4,1.66-2.61,2.09-4.17.13-.46.14-1.34.65-1.24.57.12.42.95.31,1.49-.41,2,1.33,3.12,1.9,4.71.02.07.22.07.34.11.08-.34.2-.67.23-1.01.04-.39-.43-.91.17-1.14.48-.18.78.28,1.08.6.08.09.14.21.24.26,3.28,1.73.93,2.02-.64,2.31-2.07.38-2.3,1.65-1.72,3.27.35,1,.96,1.9,1.45,2.85.74-.66.74-1.91,1.79-2.32.6-.23.07-1.65.67-1.17.92.75,1.3,2.09.58,3.37-.35.62-.79,1.2-1.04,1.86-.19.49-.85,1.35-.4,1.46.79.21,1.77-.1,2.19-1.06.14-.32.15-.7.24-1.04.06-.24-.1-.6.3-.66.04,0,.15.39.2.61.68,2.79.81,5.59.29,8.43-.17.93-.15,1.91-.17,2.87-.03,1.45.82,3.18-1.98,3.17-1.52,0-2.58,4.23-1.52,5.37.07.07.33.1.37.05,1.04-1.48,3.6-1.83,3.27-4.35-.02-.16.1-.45.21-.49.29-.1.39.17.46.4.32,1.05.3,2.12.23,3.21-.12,1.86,1.01,3,2.87,3.11.98.06,1.96.34,2.94.49.18.03.38-.09.57-.14-.07-.11-.12-.28-.22-.33-1.56-.8-2.49-2.16-3.29-3.64-.27.09-.49.68-.81.09-.12-.22-.13-.5-.19-.75.25.15.51.3.76.45.27-.34-.06-.59-.23-.66-2.66-1.13-2.52-3.64-2.78-5.85-.19-1.6.04-3.26.11-4.89,0-.19.17-.37.27-.56.11.16.26.3.33.48.13.38.22.77.31,1.15.6,2.45,2.86,3.56,5.17,2.52.14-.06.26-.17.39-.26-.09-.11-.17-.3-.28-.33-1.03-.22-1.31-1.11-1.65-1.9-.6-1.37-1.48-2.33-3.07-2.5-.78-.08-1.15-.64-1.25-1.39-.41-3.2-.61-6.46-2.62-9.21-.16-.22-.26-.54.09-.72.31-.16.53.01.67.29,1.1,2.19,3.01,1.67,4.83,1.44.26-.03.66-.1.49-.47-.12-.26-.63-.63-.74-.57-1.32.74-1.22-.78-1.83-1.13-.03-.02.04-.34.11-.35.47-.1.86.02,1.05.5.08-.8-.08-1.46-1.1-1.08-.84.32-1.46-.34-1.77-.66-.4-.41.5-.86.88-.97.65-.19,1.08-1.74,2.05-.44.01.02.28-.09.35-.19.4-.59.89-1.15.64-1.96-.21-.68-.4-1.36-.62-2.04-.29-.91-.24-1.54,1.02-1.29-.32-.14-.66-.41-.97-.38-3.24.26-1.93-2.88-3.12-4.15-.05-.05.06-.26.09-.4.29.11.61.17.86.34,1.07.75,2.05,1.73,3.54,1.29.29-.08.54-.26.81-.4-.18-.2-.4-.37-.54-.59-1.89-3.05-5.02-3.74-8.18-4.5-1.07-.25-1.81-.97-2.9.27-.8.92-2.09.35-2.92-.59-.39-.44-.28-.94.31-.93,2.16.03,3.77-1.48,5.62-1.95,1.67-.42,1.31-1.66,2-2.38.24-.25.18-.63-.35-.51-.2-.02-.39-.05-.59-.07.12-.07.24-.14.37-.21.77-.03,1.04-.33,1-1.19-.07-1.62-.43-3.01-1.84-3.96,0,.01.02.02.02.03,0,0,0,0-.01,0,.18.27.44.54.49.83.06.39.07.93-.15,1.19-.32.38-.46-.16-.67-.34-.14-.12-.33-.18-.5-.26-.08.36-.06.94-.26,1.03-.49.22-.34-.47-.61-.64-.33-.21-.65-.43-.97-.64,0,0,0,0,0,0l.04.03s-.03,0-.04,0c0,.76-.11,1.29-1.16,1.4-.84.09-.48,1.05-.51,1.67.01,0,.02,0,.04,0-.01,0-.03.01-.04.02,0,0,0,.01,0,.02.51-.21.26-1.12,1.02-1.08.05,0,.16.26.13.38-.15.65-.5,1.08-1.19,1.34-.6.23-1.86-.62-1.76.99.01.19-.67.17-.95-.09-.28-.26-.65-.59-.68-.91-.03-.37.47-.24.75-.33.88-.26,1.84.22,2.68-.31,0,0,0-.01,0-.02-.96.05-.34-.65-.45-1.01-.12-.4.48-.91-.22-1.23-.55-.25-1.01-.27-1.54.11-.29.2-.76.75-1.08.16-.29-.54.24-.85.69-1.04.99-.43,1.92-1.09,2.7.49.27.54.87-.72,1.57-.56,0-.01,0-.02,0-.03-.22-.18-.44-.36-.66-.53-.38-.31-.43-.76-.14-1.04.53-.53.43.21.63.37.43.34.94.87,1.38.83.72-.06-.14-.6.06-.88.5-.74.91.34,1.4.09-.01-.02-.02-.03-.03-.04,0,0,.01.01.02.02-.67-1.02-1.73-1.59-2.83-1.58-1.12,0-1.46-.43-1.64-1.35-.39-1.96-1.28-3.71-2.26-5.43-.05-.05-.1-.09-.15-.14.1,0,.2-.02.29-.02,1.42.37,2.84.74,4.26,1.1.54.14.56.57.67,1.01.4,1.56,1.22,2.79,2.9,3.17,1.29.29,2.59.49,3.52,1.57.1.11.33.11.5.16.06-.3.25-.65.15-.89-.32-.77-.75-1.49-1.11-2.25-.11-.23-.12-.51-.18-.76.29.07.68.04.85.22,1.49,1.52,3,3.1,2.64,5.47-.22,1.44.09,2.66.82,3.87.32.52.36,1.21.56,1.8.11.32-.33.87.12.91.62.06.39-.63.53-1,1.3-3.45-.3-6.25-2.01-9.03-.15-.24-.2-.54-.29-.82.29.08.63.09.87.24,1.48.9,2.73,2.05,3.72,3.49.4.59.48,1.14.25,1.8-.59,1.66-.3,3.16.92,4.43,1.08,1.13,2.25,2.19,1.76,4.05.9-1.59,1.01-3.21.52-4.85-.6-2-1.63-3.81-2.7-5.59-.15-.25-.58-.51-.27-.8.38-.35.64.1.85.35,1.48,1.81,3.35,2.89,5.7,3.07,1.55.12,1.83-1.49,2.83-2.13-.46-.61-1.16-.83-1.81-.66-1.27.33-2.6.16-3.85.73-1.08.49-1.83-.28-2.52-1.1-.65-.76-1.45-1.38-2.19-2.07,1.02-.12,2.04-.19,3.05-.38,1.94-.36,3.53-1.42,5.02-2.66.96-.8,1.86-1.32,2.47.47.53,1.52,3.13,2.44,4.12,1.36.64-.71-.61-1.26-1.17-1.8,0,0,0,0,0,.01-.01,0-.03.02-.04.03l-.02.36c-.09-.06-.18-.12-.27-.19.1-.06.2-.12.29-.17,0-.02,0-.05,0-.07,0,0,.02.02.03.03-.54-1.08-1.58-.83-2.49-.93-.26-.03-.51-.17-.77-.27.21-.14.42-.28.64-.4.06-.04.16-.02.23-.04,1.48-.45,2.11-1.6,2.48-2.97.06-.24-.04-.42-.29-.38-1.42.23-3.04.04-3.91,1.59-.47.83-.82,1.73-1.28,2.56-.13.24-.51.58-.68.53-.38-.11-.26-.55-.14-.82.52-1.2-.39-1.85-.97-2.62-.2-.27-.34.02-.4.17-.37.98-.83,1.98.15,2.87.66.6.45,1.2-.1,1.62-.85.66-1.81,1.18-2.91,1.3-.27.03-.71.28-.8-.17-.07-.37.37-.45.66-.55.34-.12.99.16.98-.39,0-.56-.68-.42-1.07-.51-1.44-.32-2.79-.31-4.11.61-1.42.99-2.81.04-4.04-.58-.99-.5-1.94-1.08-3-1.45-.26-.09-.76-.07-.6-.52.06-.17.6-.32.84-.24.74.24,1.42.78,2.17.88,2.47.32,4.31-1.14,6.19-2.43.13-.09.38-.38.07-.41-1.57-.15-2.55-1.7-4.16-1.7-.21,0-.61.1-.61.16,0,.36.32.24.53.28.72.15,2.03.29,1.83.86-.24.67-1.52.76-2.39,1.05-1.19.39-2.53-.37-3.6.58-.13.12-.38.2-.55.17-2.29-.38-4.61.23-6.89-.29-2.13-.49-3.81-1.38-4.07-3.87-.32-3.02-2.46-5.18-3.83-7.84-.22,2.92,2.76,4.42,2.9,7.21-2.16-1.86-4.05-4.06-3.44-6.78.37-1.64-.85-3.54.79-4.9.2-.17.39-.35.58-.52.09.24.3.5.25.72-.6,2.91,1.76,4.29,3.19,6.12.41.52.39-.18.51-.39.29-.51.32-1.44,1.14-1.23.85.22.81,1.03.66,1.8-.19.94,2.11,4.26,3.01,4.4.11.02.34-.18.36-.31.26-1.31.98-2.57.47-3.97-.28-.78.04-.93.76-.75,2.19.57,3.87-.45,4.46-2.63.12-.45-.07-.53-.39-.45-1.77.43-4.25-.71-4.89,2.23-.03.16-.34.35-.54.37-2.44.25-5.11-2.47-4.73-4.8-.01,0-.02.02-.03.02,0,0,0,0,0-.01-.54.24-.49,1.52-1.65.79-1.17-.74-1.24-1.97-1.13-2.9.11-.93.65.19,1.02.27.93.22,1.64.78,1.75,1.84.01,0,.02-.02.04-.02,0,0,0,0,0,.01.52-.37.97-.69,1.61,0,.6.64,1.32.47,1.79-.3.24-.4.81-.93-.37-.81-.37.04-.9-.48-1.18-.88-.39-.56.52-.42.63-.88.11-.47.6-.34.93-.03.08-.37.15-.74.26-1.1.13-.44.49-1.19.42-1.24-.58-.34-.38.65-.87.6-.34-.03-.85.07-.97-.1-.25-.36-.53-1.01-.37-1.29.39-.67,1.05-.15,1.61-.07.07-.06.14-.13.21-.19-.93-.47-1.98-1.9-2.58.34-.05.18-.57.42-.61.37-.45-.45-.43-1.02-.45-1.64-.01-.49,1.24-.47.4-1.1-.66-.48-1.59-.59-2.14-.12-.84.73-2.13.69-2.73,1.83-.32.61-.58-.06-.67-.31-.34-.99-.72-1.99-.89-3.01-.08-.47-.72-1.28.1-1.51.81-.23.84.76,1.17,1.27.36-.41.44-.86.19-1.32-.41-.75-.34-1.22.62-1.34.18-.02.5-.37.48-.41-.18-.32-.38,0-.58.03-.38.07-.86.3-1.08-.14-.23-.45.37-.38.55-.59.24-.29.33-.48-.2-.46-.35.01-.74.02-1.05-.11-.39-.16-.73-.45-1.09-.69.36-.13.72-.26,1.08-.38.7-.23,1.54-.1,2.09-.76l-.26-.22c-.54.1-1.09.14-1.6.31-.3.1-.54.16-.74-.07-.1-.12-.18-.42-.11-.51.18-.23.44-.51.69-.55,2.99-.41,3.51.17,3.07,3.32-.04.29-.08.67.3.62.54-.07,1.15-.7.98-.99-.74-1.25.32-1.17.91-1.48.35-.18.72-.36,1.01-.62.22-.19.53-.63.46-.75-.26-.41-.49.08-.75.13-.37.07-.75.04-1.13.05,0-.26-.04-.53.02-.78.13-.49.35-.92.99-.68.08-.08.16-.15.24-.23-.61-1.7-1.79-2.81-3.47-3.43,0,0,0,.01,0,.02-.01,0-.03,0-.04,0-.2.58-.67.77-1.22.81-.04,0-.18-.27-.15-.36.29-.63.84-.51,1.37-.45,0,0,0-.01.01-.02,0,0,.01,0,.02.01-.32-.95-.98-1-1.77-.63-.58.27-1.1.15-1.57-.2-.57-.43-.07-.89.07-1.28.29-.81.4-1.61.41-2.46,0-.44-.39-1.2.47-1.21.64-.01,1.19.35,1.4,1.09.65,2.3,3.49,3.82,5.75,3.1.1-.03.21-.37.16-.43-.29-.36-.09-1.16-.85-1.1-1.12.1-1.77-.51-2.26-1.39-.08-.15-.52-.24-.15-.48.09-.06.47.07.48.16.11.62.72.71,1.08,1.05.22.2.71.46.81.37.32-.27-.09-.53-.2-.79-.55-1.25.44-1.07,1.02-1.02,2.09.18,3.74-.27,4.28-2.6.05-.23.4-.66-.14-.55-1.72.35-3.7-.24-5.03,1.62-.86,1.19-4.08,1.2-5.02.23-.29-.3.06-.38.19-.52.44-.45.97-.84,1.33-1.35.42-.6.32-1.28-.29-1.7-.84-.58-.22.58-.69.63-1.3.14-1.33,2.11-2.89,2.05-.63-.03-1.19-.07-1.37-.67-.21-.68.53-.31.8-.5.86-.61,1.8-1.11,2.47-1.97.23-.29.45-.74,1.06-.37.58.34,1.02-.18,1.35-.61.38-.49.29-.96-.14-1.39-.43-.42-.88-.82-1.25-1.29-1.38-1.75-1.05-2.94,1.05-3.65.78-.26.65.58.53.78-1.16,1.98.99,3.44.8,5.26-.04.38.22.13.36.02,1.93-1.51,1.9-3.85-.05-5.31-.3-.22-.48-.59-.7-.91,0-.01.19-.24.31-.26.51-.08.79.26,1.06.63,1.3,1.76,2.95,2.5,5.11,1.72.19-.07.37-.15.55-.22-.14-.12-.28-.24-.41-.37-.32-.34-.68-.66-.95-1.04-.83-1.15-1.78-1.95-3.34-1.45-.33.11-.73.13-1.07.05-.52-.13-1.48.25-1.34-.83.12-.92.95-.9,1.58-.8.72.11,1.41.31,2.11.05.19-.07.33-.28.49-.43-.21-.04-.42-.13-.62-.1-.39.06-.91.31-1.11-.06-.31-.56.43-.61.68-.92.68-.83.29-1.54-.26-2.22-.27-.34-.87-.56-.35-1.14.2-.22.38-.68.53-.67.57.06.41.67.62,1.03.45.77,1.26,1.3,1.29,2.36.01.45.3.03.38-.11.82-1.37.06-4.49-.56-5.79-1.07-2.25-3.02-1.95-4.8-2.34-.22-.05-.42-.18-.63-.28.2-.15.39-.33.61-.44.76-.39,1.55-.19,2.35-.11.89.09,1.55-.33,1.97-1.1.2-.36-.17-.45-.42-.56-.8-.35-1.57-.86-2.43-.1-.33.29-.41,1.12-.98.79-.31-.18-.48-.94-.41-1.38.2-1.18-.28-.72-.86-.48-1.86.75-2.09,2.38-2.31,4.05-.13.98-.33,1.94-.54,2.9-.04.19-.29.33-.45.49-.07-.21-.25-.46-.2-.64.41-1.37.6-2.82.91-4.18.34-1.45.38-3.2.19-4.87-.42.23-.07,1.03-.59.93-.22-.04-.39-.73-.45-1.14-.48-3.08.1-6.12.47-9.37.63,1.7.45,3.34.68,5.09.43-1.43-.14-2.65-.05-3.89.02-.24-.15-.63.28-.64.13,0,.38.33.38.51-.08,2.28,1.75,3.02,3.22,4.06.42.3.84.4.75-.25-.24-1.78.33-4.12-2.64-4.23-.15,0-.29-.19-.44-.29.17-.16.34-.32.5-.49.47-.49,1.91-.76,1.58-1.01-1-.79-1.82-2.32-3.55-1.7-.65.23-1.3.5-1.98.61-.44.07-.93-.12-1.39-.19.02-.1.05-.29.07-.29.62.01.74-.98,1.52-.7,1.5.54,2.53-.77,3.83-1.05.17-.04.35-.4.1-.42-1.21-.12-2.12-1.68-3.55-.74-.4.26-.81.45-1.03-.21-.64-1.95-.97-3.88.58-5.61.17-.19.39-.3.05-.53-.26-.18-.44-.14-.56.14-.24.59-.45,1.19-.69,1.78-.11.27-.26.52-.39.78-.17-.26-.41-.49-.5-.77-.38-1.26-.74-2.52-1.06-3.8-.17-.69-.31-1.39-.03-2.09.7.31,1.42.59,2.09.95,1.21.65,1.77,2.37,3.53,2.12.07,0,.25.21.24.31-.05.4-.35.58-.71.71-1.2.4-2.34,2.71-1.55,3.53.61.63,1.63,0,2.35-.54.27-.2.55-.4.82-.6.04.34.12.67.11,1.01-.04,1.33.85,1.88,1.91,2.24.74.25.71.86.71,1.41.01,1.96.78,3.14,2.72,4,1.57.69,1.14,2.64,1.06,4.13-.11,2.1-1.62,3.35-2.97,4.7-.37.36-.94.97-.63,1.41.42.6,1.25.32,1.91.23.68-.09,1.04-.51,1.12-1.2.07-.6-.29-1.69.24-1.67.62.02.37,1.14.53,1.76.91,3.59,2.39,6.78,5.79,8.7.72.41.85.98.71,1.72-.19,1.02-.36,2.06-.01,3.08.24.71.53,1.93,1.06,1.83.74-.13,1.22-1.12,1.47-2.01.13-.46-.15-1.28.38-1.33.58-.06.71.76.93,1.25,1.23,2.76,1.02,6.06-.46,7.42-.26.24-.59.4-.87.62-.24.19-1.01-.22-.74.47.17.44.78.27,1.17.01,1.7-1.12,2.52-2.78,2.61-4.75.09-2.07-.35-4.05-1.81-5.65-.48-.53-.48-.87.3-1.06.35-.08.69-.2,1-.38.65-.36,1.28-.77,1.92-1.16-.74-.4-1.46-.84-2.22-1.19-.19-.09-.66,0-.74.14-.27.49.25.3.44.41.09.05.16.13.23.2-.09.05-.18.12-.27.16-2.67,1.14-7.26-.88-8.13-3.56-.11-.35-.11-.55.32-.52.12,0,.23.05.35.08,1.42.36,2.55-.38,3.71-.99.06-.03.02-.37.02-.37-1.57-.06-2.74-1.95-4.47-1.06-1.04.53-1.3.19-1.61-.79-.79-2.49-.54-5.02-.55-7.56,0-1.44-.47-2.88-.71-4.32-.02-.13.03-.28.05-.42.15.03.31.03.43.11.47.3.93.56,1.54.58,1.15.05,1.78-.72,2.48-1.41-.75-.56-1.68-.85-2.48-.57-1.66.57-1.73,0-1.48-1.42.48-2.69-.04-5.36-1.57-7.53-.73-1.03-.23-1.64-.17-2.44.03-.35.2-.83.79-.4.25.18.28.09.29-.19.01-.45-1.07-.92-.06-1.33.84-.34,1.69-.34,2.43.41,1.26,1.29,2.7,1.15,4.19.44.58-.28.85-.54.2-1.11-1.01-.88-1.95-1.66-3.5-1.32-1.4.31-.78-1.2-.81-1.57-.23-2.75-1.36-.77-2.03-.41-.54.29-.66.96-.74,1.57-.03.26,0,.65-.47.37-.23-.13-.44-.73-.67-.24-.13.27-.14.93.37,1.25.13.08.22.25.32.37-.11.03-.22.09-.33.07-.65-.11-.67-.11-.7.75-.02.4-.13.85-.51.81-.55-.06-.3-.57-.2-.87.59-1.73.27-3.1-1.46-3.97-.3-.15-.29-.37-.13-.58.22-.29.5-.16.75-.03.7.34,1.19.97,1.19-.65,0-3.78-1.21-5.37-5.14-5.77-.56-.06-.56-.29-.47-.69-.27.29-.53.6-.82.86-.42.38-.29,1.5-1.01,1.23-.69-.25-.33-1.23-.27-1.85.22-2.54,1.41-4.51,3.62-5.87.77-.48,1.63-.32,2.14,0,.64.41-.35.84-.47,1.32-.27,1.16.06,2.62-1.53,3.13.74-.22,1.59-.26,1.94.46,1.1,2.22,3.25,1.19,4.89,1.64.68.19.15-.53.02-.66-1.2-1.25-1.83-3.58-4.38-2.42-.07.03-.23-.12-.35-.19.08-.13.14-.28.25-.38,1.31-1.25,3.42-1.1,4.52.41.62.86,1.1,1.85,1.54,2.82.85,1.87,3.1,2.76,4.9,1.8.92-.49-.12-.59-.28-.8-.3-.4-.79-.67-.72-1.27.39.15.76.31,1.16.43,1.25.38,1.71,1.12,1.61,2.5-.13,1.79,1.9,3.8,3.69,3.97.64.06.65-.38.57-.77-.24-1.13-.54-2.24-.82-3.36-.08-.3-.18-.59-.27-.89.3,0,.61-.05.9,0,.39.07.88.15.84.68-.14,1.87.97,2.74,2.52,3.31.23.08.42.52.67.17.12-.17.02-.53-.02-.8-.51-3.58-2.87-4.43-6.74-3.85,1.55-.82,2.46-.62,3.38-.46,3.03.52,5.02-1.68,4.25-4.65-.09-.34-.15-.41-.39-.09-.69.94-1.77.99-2.78,1.2-1.07.23-2.06.69-2.4,1.76-.45,1.43-1.6,1.48-2.57,1.22-1.65-.44-3.2-1.23-4.6-2.25-.23-.17-.52-.5-.5-.74.04-.45.5-.24.78-.26,2.38-.18,3.63-1.72,3.32-4.13-.05-.36-.2-.43-.57-.34-1.28.34-2.74.02-3.8,1.14-.38.41-.55.05-.77-.3-1.8-2.83-.63-6.56,2.86-9.08.32-.23.65-.48,1.01-.63.71-.29,1.43-1.11,2.18-.63.74.47-.12,1.22-.14,1.86-.05,1.13,1.81,3.83,2.83,3.95.23.03.49-.05.37-.27-.69-1.2.11-2.44-.16-3.64-.19-.83-.62-1.45-1.35-1.88-.28-.17-.51-.42-.76-.64.32-.15.62-.38.95-.42,2.92-.39,5.81-.6,8.29,1.49,2.05,1.73,4.66,1.93,7.12,2.54.48.12,1.12.04,1.29.67.16.6-.11,1.13-.6,1.46-.9.62-1.13,1.49-1.07,2.51.03.49.05,1-.63,1.08-.37.04-.79.09-.72.56.02.12.54.23.83.24,2.45.11,4.06-2.25,3.27-5.02-.29-1.03.08-1.12.86-1.02,1.68.2,3.33.08,4.95-.44.46-.15.77-.08,1.05.44,1.59,2.94,1.15,9.25-.88,11.87-1.22,1.57-3.66,1.43-4.67-.28-.57-.97-1.33-1.56-2.49-1.61-.4-.02-.8-.05-1.19-.15-.79-.21-1.56-.47-2.34-.71.06.17.07.39.19.5,1.22,1.2.98,3.8,3.53,3.71.43-.01.86-.08,1.29-.13-.22.36-.47.7-.64,1.07-.42.89-.9,1.77-1.19,2.7-.24.76.44.4.75.41,3.08.07,5.5-.96,6.74-4.01.12-.29.65-.71.71-.67.42.31.06.69,0,1.05-.66,3.5-2.76,6.16-5.19,8.57-3.41,3.37-5.27,7.25-4.47,12.15.11.67-.09,1.21-.62,1.7-.65.59-.92,1.41-.81,2.29.04.36.17.9.42,1.02.42.2.45-.43.71-.63.34-.26.7-.48,1.05-.72.17.35.4.68.51,1.04.79,2.64,1.36,5.3-.04,7.91-.39.73-.78,1.68-1.94.59-.51-.48-1.45-.7-2.25-.35-.15.07-.25.62-.14.84.4.87.98,1.56,2.09,1.47,1.74-.14,2.56-1.32,3.13-2.75,1.11-2.79.53-5.58-.01-8.37-.06-.3-.07-.61-.1-.91.29.07.59.12.86.23,1.49.55,3.19-.44,3.31-1.94.03-.38-.02-.74-.44-.88-.4-.13-.6.13-.7.47-.63,2.23-1.89,1.25-2.98.52-.83-.56-1.17-1.51-1.34-2.47-.69-3.88,2.68-10.32,6.28-12.02.18-.08.41-.05.62-.07,0,.39.14.88-.04,1.16-1.06,1.67-.88,3.95-2.65,5.3-.49.37-.73,1.18-.46,1.75.21.45.79,0,1.18-.1.55-.14.61.2.69.55.16.69.49,1.27,1.04,1.7.71.56,1.42,1.51,2.29,1.25.36-.11.25-1.51-.06-2.31-.11-.3-.03-.54.3-.67.84-.33.66-.54-.07-.78-.57-.19-.74-.88-.41-1.16.57-.51,1.48-.47,2.02.01.53.47.84-.08.95-.16.38-.32-.17-.19-.26-.31-.28-.34-.62-.63-.93-.93.94.05.29-1.94,1.65-1.31.25.12.42.25.53.4,0-.95-.19-1.81-.35-1.7-.8.57-1.52.2-2.27.29-.55.07-.84.12-1.09-.45-.28-.62.07-.89.48-1.17.45-.32.89-.49,1.41-.05.24.2.34.94.8.48.28-.28-.16-.71-.47-.98-.18-.16-.5-.3-.51-.46-.28-3.22-1.51-.35-2.28-.35-.19,0-.38.22-.57.34-.1-.25-.34-.56-.27-.74.85-2.17,1.7-4.35,2.67-6.47.24-.51.38.17.44.31.42.86.24,1.8.28,2.71.08,2.28,2.09,3.58,4.24,2.79.43-.16.26-.3.05-.45-.9-.62-1.02-1.57-1.1-2.54-.09-1.05-.61-1.85-1.6-2.19-1.24-.44-1.67-1.37-1.53-2.52.41-3.3.82-6.58.41-9.91-.02-.18.15-.55.23-.55.36,0,.69.46,1.08.06-.33-.25-.69-.47-1-.75-1.73-1.55-1.54-2.65.56-3.53,2.64-1.1,4.87-2.88,7.17-4.53.92-.66,1.88-1.47,2.16.57.06.44.41,1.13.99,1.03.88-.16-.04-1.14.51-1.53-.79-.59-.49-1.49-.06-1.84,1.17-.95,1.43-2.54,2.69-3.39.55-.37,1.04-.83,1.72-.54,2.39,1.01,4.68.46,6.94-.41,1.28-.49,1.39.76,1.81,1.27,1.06,1.3-.18,2.2-.96,2.98-.62.62-1.41,1.61-2.46.32-1.15-1.41-2.66-.61-4.04-.5-.36.03-.16.35-.09.57.59,1.83,2.69,2.67,4.34,1.74.14-.08.27-.18.41-.25.76-.43,1.34-1.19,2.29-1.24-.05,1.02-.66,1.79-1.25,2.53-1.66,2.09-3.93,3.35-6.29,4.45-.83.38-1.62.11-2.28-.57-1.73-1.79-3.63-1.89-5.52-.34-.17.14-.28.21-.13.46.95,1.59,3.33,2.22,5.04,1.33.34-.18.77-.58,1.06-.19.33.45-.27.72-.54.87-2.42,1.4-2.39,3.74-2.4,6.07,0,.29.02.29.59.14,2-.5,2.64-1.99,2.53-3.81-.11-1.79.67-2.82,2.21-3.54,1.94-.91,3.96-1.72,5.5-3.33.11-.11.34-.1.51-.15,0,.26.08.58-.04.78-.78,1.24-1.54,2.5-2.43,3.66-1.05,1.36-.34,2.28.62,3.19.09.09.25.1.38.14-.09-1.32,1.55-2.27.83-3.68-.33-.64-.54-1.14.1-1.68.78-.66.91.31,1.29.54.69.43,1.3.99,1.94,1.49.43-.81-.25-1.55-.16-2.37.1-.89-.09-1.74-.97-2.29-.87-.56-.44-1.35-.24-2.05.34-1.14.81-2.25,1.08-3.41.25-1.06.49-1.95,1.88-1.75.5.07.6-.21.39-.68-1.01-2.15-.55-3.53,1.34-4.99,2.41-1.87,4.79-3.71,7.82-4.5.47-.12.97-.2,1.48-.24.3-.65.62-1.32.98-1.97-.65-.03-1.29-.13-1.94-.19Zm-56.14,5.27c.12.07.24.13.45.25-.17.1-.26.2-.31.19-.1-.03-.2-.12-.25-.21-.02-.04.07-.15.11-.23Zm-1.27-.78c-.73.16-1.09.24-1.55.34.36-.55.76-.51,1.55-.34Zm-21.13,6.33c-.14-.1-.32-.22-.5-.35.46-.17.74-.5.84-.98.14.12.41.34.4.36-.22.32-.07.9-.74.97Zm-1.53,7.17s0,.02-.01.03c0,0-.02,0-.03,0-.07.17-.12.34-.2.5-.22.45.11,1.38-.8,1.21-.45-.08-.53-.74-.41-1.24.22-.92.84-.62,1.42-.48,0,0,0-.01,0-.02h.04c.02-.05.05-.1.07-.14.02.04.05.08.07.12-.05,0-.09.01-.14.02Zm1.2-.57c-.17-.35-.36-.69-.51-1.05-.03-.07.12-.22.27-.48.21.54.37.91.49,1.3.01.05-.17.15-.26.23Zm1.59,2.24c-.72.04-1.07-.46-1.18-1.11-.06-.41.36-.9.52-.76.51.47,1.11.69,1.76.89-.28.54-.59.96-1.1.98Zm-14.89,74.29s.04-.04.05-.05c0,.03-.02.05-.03.08,0-.01-.02-.01-.03-.02,0,0-.01.01-.02.02,0,0,0-.02,0-.03-.26-.28-1.05.02-.85-.76.02-.08.23-.2.29-.17.4.18.8.38.56.93,0,0,0,0,0,0Zm-4.22,11.34c-.11,0-.37-.27-.35-.3.37-.68.98-1.09,1.67-1.39.07-.03.24.17.37.28-.46.71-.85,1.35-1.7,1.41Zm1.83-2.25c-.13-.08-.22-.14-.31-.2.07-.1.15-.19.22-.29.07.07.18.13.2.21.02.07-.07.17-.11.27Zm-.49,7.28c-.33-1.02.15-1.7.51-2.42,0,0,.19.06.19.09-.04.77-.1,1.55-.7,2.33Zm1.92-9.36c-.14-.05-.33-.24-.33-.37,0-.13.2-.27.31-.41.15.14.29.28.54.51-.24.14-.41.3-.51.27Zm-4.94,28.95s.23-.12.23-.11c.34.54.76,1.06.68,1.9-.64-.6-.88-1.15-.91-1.8Zm5.17-9.29s-.05,0-.07,0c.01-.05.03-.1.04-.15.02.03.05.05.07.08-.01.03-.02.06-.04.07Zm-.44-1.12c-.5.06-.8-.24-1.02-.65.44-.21.88-.42,1.17-.56.52-.03.9.02.87.42-.04.57-.54.73-1.02.79Zm1.75.1c-.14-.65-.53-1.32.13-1.77.11-.07.35.05.54.09-.22.56-.44,1.12-.66,1.68Zm-6.19,35.85c-.58-.2-1.22-.07-1.59-.63.3-.08.63-.28.88-.21.53.15,1.18.06,1.53.64-.29.07-.57.14-.82.2Zm3.32,2.87c-.14.12-.5.07-.49-.29.02-.69.4-1.17,1-1.68.22.38.51.7.58,1.06.16.85-.74.58-1.1.91Zm3.31,6.22c-.23-.06-.41-.3-.61-.46.39-.24.77-.5,1.18-.68.09-.04.32.24.47.36-.3.45-.49.92-1.04.78Zm3.32-.2c-.13.55-.49.87-1.05.93-.39-.04-.63-.22-.51-.61.16-.53.56-.84,1.13-.85.33,0,.51.19.43.53Zm-8.81,23.78c.18-1.01.44-1.69,1.15-2.1.05-.03.32.16.31.23-.08.85-.87,1.11-1.46,1.86Zm4.97-7.19c-.15.03-.47-.18-.51-.33-.08-.37.24-.43.52-.42.19,0,.37.09.77.2-.38.28-.57.51-.79.55Zm-2.18,13.88c-.24.68-.5,1.36-.85,1.98-.03.06-.14-.51-.25-.77.15-.62.08-1.34.76-1.65.27-.12.43.18.34.43Zm8.09-.05c.43.14.41.54.31.91-.32,1.23-1.34,2.16-1.51,3.48-.02.15-.47.38-.65.33-.48-.13-.66-.53-.55-1.55.31-.76,1.48-1.64,1.69-3.01.01-.09.5-.23.72-.16Zm-3.97-1.52c.32-.69,1.11-.48,1.68-.68.08-.03.24.15.36.23-1.81.55,1.04,1.81-.45,2.47-.1-.11-.34-.28-.31-.36.41-1.22-1.86-.39-1.28-1.66Zm-.41,1.8c.25,0,.5.15.93.29-.27.18-.38.31-.47.3-.3-.06-.58-.17-.87-.26.14-.12.28-.34.41-.33Zm-1.24-.75c.08-.04.46.36.44.39-.48.77-.93,1.59-1.56,2.23-.16.16-.21-.45-.22-.72-.04-.98.54-1.53,1.33-1.9Zm-1.18,4.6c-.62.19-.68-.17-.67-.48.03-.65.59-.65,1.03-.73.58-.1,1.06.32,1.01.74-.12,1.04-1.13-.1-1.38.46Zm3.63-.2c.42,1.71-1.16,1.29-1.81,1.98-.42-.59-1.33-.16-1.45-.57-.14-.48.68-.48,1.05-.75.29-.21.63-.38.61-.81-.03-1.07.57-1.74,1.43-2.26.3-.18.59-.56.88-.07.17.29.34.71-.11.93-.69.34-.73,1.04-.6,1.54Zm1.67,7.35c-.6.03-.67-.7-.84-1.11-.08-.19.38-.86.61-.86.87-.02.1.78.5,1-.2.37.35.95-.28.98Zm-.08-3.71c-.74.04-1.17-.15-1.11-.7.16-1.33,1.46-.68,2.15-1.15.52-.36.84.06.91.59.07.61-1.03,1.24-1.95,1.26Zm-6.53,24.16c-.16-.3-.3-.53-.39-.79-.01-.04.28-.24.44-.25.31-.02.57.15.55.48,0,.11-.22.22-.6.55Zm-7.74,22.97c-.14-.13-.31-.23-.4-.39-.03-.06.12-.22.24-.41.19.18.38.29.43.43.03.09-.17.24-.27.37Zm-2.37,13.15c0-.76-.34-1.27-1.08-1.49.14-.39.42-.59.83-.52.38.06.74.18,1.12.28-.28.73-.33,1.35-.86,1.73Zm3.66-3.6c-.19-.12-.33-.3-.49-.46.1-.07.19-.14.24-.18.29.06.62-.08.59.29,0,.13-.31.37-.34.34Zm11.02.08c-.64.41-1.26.34-1.97-.23.79-.04,1.44-.08,2.09-.11-.04.12-.04.29-.12.35Zm-.41,6.38c.01.41-.16.92-.62,1.02-.36.08-.56-.34-.52-.64.05-.34-.14-.88.65-.95.12.13.48.35.49.57Zm26.09,3.25c.09.02.16.09.24.13-.06.03-.13.06-.21.11-.07-.05-.15-.1-.22-.16.06-.03.14-.09.19-.08Zm-14.3-14.71c.52.22,1.05.46.9,1.18-.05.23-.19.43-.38.87-.38-.79-.7-1.33-.89-1.91-.11-.32.21-.2.37-.13Zm5.29-9.35c.67.11,1.17.21,1.69.27.69.08,1.48.46,1.39,1.03-.1.65-1.25.88-1.67.71-.64-.26-1.23-.13-1.8-.27-.77-.19-2.33.05-2.18-.46.3-.99,1.73-.94,2.58-1.29Zm-13.14-4.09s-.26-.15-.25-.22c.02-.35.22-.57.66-.63.09.06.24.17.39.27-.26.2-.52.41-.8.58Zm-3.78,2.33c.39.45.79.89,1.22,1.38-.25.28-.39.45-.53.61-.33-.57-.67-1.14-.99-1.72-.02-.03.19-.18.3-.27Zm-7.53-1.34c.54-.73,1.38.02,2.06.31.88.37,1.76.75,2.22,1.69.23.48.25.77-.41.61-.28-.14-.75-.12-.49.18.58.66-1.76.73-.22,1.42.04.02.62.68.1,1.04-.32.22-.68.36-1.05-.06-.87-.97-2.27-1.82-.25-3.07.58-.36.11-.73-.33-.9-.71-.27-1.85-.94-1.64-1.23Zm-3.67-.95c.48-1.14,1.53-1.42,2.86-1.56-.08-.03.06.02.19.07-.09.16-.14.39-.27.48-.64.41-.99,1.02-1.08,1.73-.09.76-.52.94-1.12.74-.7-.24-.84-.85-.58-1.46Zm8.58,9.8c-.86.33-.94.81-.62,1.52.28.64-.03,1.03-.59,1.09-.52.06-.89-.25-.84-.89.09-1.11.25-2.13-1.52-1.3-.85.4-1.78-.08-2.25-1.04-.03-.01-.05-.01-.08-.02,0-.01,0-.02.01-.04-.45.03-.97.54-1.34-.12-.33-.58-1.03-1.12-.26-1.88.59-.58-.67-.89-.24-1.45.24-.31.23-.88.8-.87,0-.01,0-.02,0-.04.01,0,.02,0,.03,0-.02-.77-1.13-.37-1.23-1.13-.04-.33-.57-.61-.06-.99.43-.32.78-.29,1.11.15.29.39.73.46,1.18.42.62-.06,1.21-.05,1.61.49.19.25.01.46-.22.69-.55.53-1.06.97-1.86.45-.14-.09-.36-.06-.54-.07,0,.01,0,.02,0,.03-.01,0-.03,0-.04,0-.25,1.36,1.26,1.8,1.53,2.88.09.36,1.53,1.15-.28,1-.06,0-.14.27-.21.44,0,0,.02,0,.03,0,.01.02.02.04.03.06,1.36.54,2.65-.39,4.04-.25.89.09,1.54-.88,1.2-1.97-.39-1.27.7-1.83,1.25-2.63.31-.46.38.44.81.3.36-.12.39.33.46.56.35,1.07-.92,4.2-1.95,4.59Zm9.74,1.13c-.06.24-.28.44-.43.66-.17-.2-.4-.38-.49-.61-.56-1.45-1.09-2.92-1.63-4.38.32,1.68.21,3.42,1.38,4.97.54.71-.82.87-1.3,1.05-.63.23-1.7,1.51-2.1-.37-.08-.36-.41-.03-.51.13-.65,1-1.62.56-2.22.23-.71-.39-.73-1.41-.56-2.16.24-1.04.7-2.03,1.09-3.03.06-.16.23-.29.35-.43l.12.68.08.08c.23,1.11.95,1.97,1.5,2.91.13.23-.11.75.43.64.44-.09.71-.53.58-.92-.48-1.47-.84-3.03-1.63-4.32-.6-.98-.36-1.66.07-2.39.35-.6,1.17-.43,1.62-.28.82.28.89,1.13.79,1.93-.06.48-.11.97.34,1.32.38-.47-.31-1.37.45-1.55.72-.17.72.8,1.16,1.16,1.57,1.3,1.36,3,.92,4.7Zm-1.92-7.28c.02-.21.16-.41.32-.78.23.45.4.74.53,1.06.09.21.04.4-.23.39-.43,0-.66-.25-.62-.67Zm.66-7.81s-.18-.28-.12-.38c.29-.46.59-.98,1.21-1.03.38-.03.91.37.74.54-.4.38-1.02.52-1.83.88Zm2.54.73c.26-.02.85.57.8.68-.24.61-1.27.45-1.37,1.29-.09-.18-.17-.37-.25-.55.36-.49-.01-1.37.82-1.43Zm4.46,2.2c.08-.02.18-.36.12-.47-.48-.88.14-1.97-.59-2.84-.32-.39.29-.5.51-.5.78.03,1.1.71,1.48,1.24.29.41.66,1.05.18,1.41-.77.56-.58,1.16-.41,1.85.3,1.15-1.69,1.15-1.21,2.4-.52.11-.45-.34-.54-.6-.17-.46-.5-.76-.96-.79-.64-.04-.42.52-.53.86-.06.18-.15.37-.28.51-.26.27-3.81-.28-4-.59-.26-.46.11-.61.39-.65.7-.08,1.41-.14,2.11-.1,1.16.08,1.35-.07,1.33-1.63,0-.07-.04-.47-.12-.86-.06-.29-.19-.57-.29-.86.17.06.37.09.51.19.34.26.79.47.55,1.04-.11.25-.54.69-.07.75.58.08,1.22-.2,1.82-.37Zm-6.66-7.33c.81-.63,1.67-.79,2.53-.3.53.3.85.61,1.64.42.82-.2,1.46.86,1.38,1.6-.11.97-.46,2.1-1.12,2.75-.45.44-1.33-.33-1.81-.94-.12-.14-.25-.27-.37-.41.25-.08.5-.2.76-.25.5-.08,1.05.14,1.47-.28.05-.05-.03-.36-.08-.36-.85-.1-1.1-1.11-2.17-1.15-.89-.03-.68,1.36-1.54.81-.44.07-1.19.28-1.23.19-.33-.79-.2-1.51.54-2.09Zm-1.9,2.2c.08.22.19.37.15.42-.1.15-.26.26-.4.38-.07-.09-.22-.23-.19-.27.08-.15.22-.28.44-.53Zm-1.49,3.25c.08-.62.5-.86,1.09-.89.04,0,.08,0,.32,0,.19.08.71.14.86.41.26.48-.38.3-.57.5-.23.24-.27.4-.12.72.2.39,1.11.38.82.62-.4.33-1.26.38-1.8.2-.59-.19-.67-.93-.59-1.56Zm8.74-40.11c.93.45,2.13-.04,2.85.79.14.16-.61.71-1.23.77-.75-.31-1.86-.09-2.19-1.22-.12-.41.37-.44.57-.34Zm2.87-8.05c-.17,0-.49-.37-.46-.51.08-.35.26-.88.5-.94.47-.12.31.4.38.68-.15.26.12.79-.43.78Zm3.07,20.17c-.13-.07-.31-.17-.49-.28.35-.43.77-.79,1.34-.84.16-.02.35.2.53.31-.33.42-.74.71-1.37.81Zm5.73,4.79s.1.08.14.12c-.05.04-.1.11-.14.1-.06-.01-.12-.08-.18-.12.06-.04.12-.1.17-.1Zm-.18-14.35c.19-.05.53,0,.62.13.32.5.56,1.05.83,1.58.01.1.03.2.04.3-.06-.06-.12-.11-.18-.17-.94.05-.78-1.15-1.52-1.34.07-.18.1-.48.21-.5Zm-8.83-20.78c-.07.58-1.08.8-.69,1.66-.28-.26-.66-.47-.81-.79-.25-.56-.02-1.15.43-1.49.34-.26.85-.31,1.29-.45-.08.36-.18.71-.23,1.08Zm2.56,1.61c.27-.33.32-1.13,1.04-.85.29.11.56.45.67.74.08.22-.1.54-.22,1.05-.49-1.58-.67-.82-1.2-.29-.43.42.84.9-.18,1-.49.05-.75-.23-.91-.6-.32-.75.53-.72.81-1.06Zm2.89-.11c-.01,1.1.23,1.82,1.49,1.32.04-.02.22.17.21.18-.28.43-.56.86-.88,1.26-.06.07-.4.03-.41.02-.17-1.81-1.23.24-1.66-.37-.01,0-.02,0-.03,0-.55,1.11-1.46.38-2.21.37-.19,0,.1-.6.55-.6.55,0,1.11.15,1.66.23,0,0,0-.01.01-.02,0,0,.01.01.02.02,0,0,0,0,0,0-.58-1.3,1.13-1.39,1.24-2.41Zm-3.03-10.38c1.32.16,2.36.67,2.73,2.07.08.32-.11.53-.36.36-1.04-.71-2.07-1.44-3.02-2.25-.12-.11.4-.17.65-.18Zm-.97,2.37c-.23-.64.49-.33.7-.03.77,1.12,1.48,2.27,2.22,3.4.45.7-.62.85-.49,1.42-.46-.1-.14-.56-.33-.74-.23-.22-.36-1.06-.92-.23-.13.2-.24.13-.2-.54-.04-.23.27-.64-.13-.68-2.13-.23-.53-1.76-.84-2.61Zm.75,6.53c.15-.06.3-.13.45-.19-.1.13-.2.25-.3.38-.36.32-.57.97-1.19.74-.26-.1-.51-.5-.55-.8-.02-.21.28-.51.51-.68.71-.56.51.74,1.07.55Zm-4.69-7.89c.41-1.01,1.47-1.32,2.14-1.14,1.04.29.97,1.59,1.33,2.56-.55,1.19-.57,2.42-.21,3.7.15.52-.3.42-.61.4-.44-.03-.93-.13-1.23.26-1.05,1.4-1.51.35-1.53-.51-.04-1.75-.61-3.53.1-5.27Zm-4.86-2.17c.13-.09.27-.19.44-.3.22.13.4.23.58.34-.15.08-.31.23-.45.21-.19-.02-.37-.16-.56-.25Zm-.91,9.62c-.17.71.21,1.97-.58,1.97-.89,0,.16-1.23-.37-1.79-.04-.04-.03-.18.01-.22.45-.49-.26-1.68.65-1.65.55.02.17,1.1.28,1.69Zm-.91-2.75c-.3.07-.35-.14-.33-.33.07-.56.53-.74.98-.89.09-.03.33.1.33.1-.15.52-.53.85-.98,1.12Zm1.49,43.49c-.52.11-.9-.07-.83-.67.05-.45-.04-.93-.5-.9-.52.03-.05.71-.14.73-.48.08-1.24.24-1.44,0-.6-.73-1.28-1.24-2.13-1.6-.55-.23-.82-.65-.43-1.24.41-.63.66-.03,1.03.08.71.22,1.13,1.4,2.17.65.3-.21,3.18,2.12,3.17,2.61-.27.11-.58.27-.91.34Zm.72-1.43c-.21-.02-.59-.33-.56-.44.13-.51.67-.39,1.03-.52.28-.1.32.24.32.49-.05.51-.47.5-.79.47Zm4.51-2.74c.61.07.26.62.48.92-.08.26-.15.5-.22.74-.18-.37-.4-.72-.5-1.11-.04-.15.18-.55.25-.54Zm-.24,4.16c-.36.56-.93,1.03-1.44.93-.7-.14-1.73.16-2.03-.86-.12-.41.54-.77.65-.64.8.94,2.13-.9,2.82.57Zm-.43-2.74c-.17.56-.27,1.31-1.26,1.12-.45.11-.86-.31-.68-.6.32-.53.87-.99,1.43-1.27.27-.14.63.37.52.75Zm-2.4-4c.71,0,1.22.35,1.47.99.08.21.03.6-.12.74-.25.23-.46,0-.66-.24-.24-.28-.57-.5-.87-.73-.25-.19-.85.29-.81-.29.03-.43.6-.41.99-.46Zm-.71,1.6c.11.02.29.28.27.32-.32.5-.82.31-1.27.3-.95-.26-1.43.5-2.05.96-.21.16-.45.41-.72.15-.32-.29-.12-.62.1-.84,1.03-1.07,2.32-1.15,3.68-.89Zm-1.19-1.64c.02.6-.61.55-1.08.62-.78.11-1.67-.08-2.04,1.04-.23.68-1.01.81-1.71.73-.16-.02-.46-.34-.43-.41.27-.62.69-.95,1.4-1.24.92-.38,1.64-1.28,3.11-1.02.06.02.73-.38.75.28Zm-.27-8.9s.13-.04.2-.06c.05.54.1,1.08.2,2.05-.65-.93-.54-1.46-.39-1.99Zm-.42-4.44c-.12.01-.38-.26-.37-.28.26-.47.62-.84,1.18-.88.12,0,.25.22.37.33-.3.53-.69.78-1.18.83Zm2.36-7.5c-.16.87-.32,1.81-.53,2.73-.08.33-.31.63-.46.95-.17-.34-.52-.71-.48-1.03.24-2.05-.07-4.14.57-6.15.05-.15.18-.27.27-.41.07.13.18.26.2.4.15,1.14.29,2.28.44,3.51Zm-2-11.1c-.53.16-.2-.29-.12.02-.21-2.24,1.25-3.43,1.51-5.06.02-.11.19-.18.29-.28.14.18.32.35.41.55.29.69-1.37,4.54-2.09,4.75Zm4.56-10.08c-.88,2.83-.12,5.72-.46,8.55-.1.84-.39,1.62-.89,2.3-.25.33-.31,1.02-.8.91-.59-.13-.23-.82-.46-1.33.14-.34.29-.74.46-1.13.77-1.75,1.02-3.51.17-5.3-.67-1.41-.69-2.85-.2-4.3.16-.47.26-1.16.96-.97.61.16,1.39.73,1.22,1.28Zm.73-4.56c.31-.07.64-.07.95-.14.71-.16,1.86-.12,1.72-1.03-.11-.68-1.11-.1-1.73-.08-.34,0-.68-.11-1.02-.17.12-.37.17-.78.37-1.09.37-.56.46-.02.71.18.15.12.57.08.77-.05.77-.49,1.36-.78,1.44.57.03.45.44.25.59.01.29-.47.44-1.04.78-1.46.27-.33-.55-1.09.29-.95.54.09.39.86.24,1.37-.58,2.04-2.59,3.79-4.41,3.72-.14-.02-.42-.03-.69-.11-.33-.1-.74-.08-.89-.51.29-.09.57-.21.87-.28Zm-.99-14.03c.46,1.25.84,2.2,1.15,3.17.11.35.08.75.11,1.13-.26-.03-.54-.02-.79-.09-.49-.14-.69-.53-.67-1,.04-.94.12-1.89.2-3.2Zm30.38,0s-.05.04-.07.06c.03-.02.05-.03.07-.06-.08.07-.15.13-.23.2.05-.05.1-.09.15-.14-.46.36-.69-.09-.95-.43.34.12.68.25,1.02.37Zm-2.28-3.75c.35-.32.75-.54,1.31-.48-.33.47-.72.71-1.22.73-.03,0-.11-.22-.09-.25Zm-9.27,4.81c.25,0,.5.24.75.38-.22.2-.44.4-.6.55-.38-.08-.78.02-.67-.41.06-.21.34-.51.52-.51Zm-10.96-2.83c.38.47,1.02,1.15,1.53,1.93.14.21-.35.27-.51.15-.74-.52-1.46-1.07-2.18-1.62-.06-.05-.06-.17-.09-.26.23-.04.47-.08,1.25-.2Zm-4.84-10.88c.46.15.87.45,1.33.71-1.19.54.49,1.97-.46,2-.68.02-.65-1.5-1.04-2.29-.08-.17-.09-.51.17-.42Zm-13.92-18.45c-.41-.07-.85.1-.92-.31-.04-.26.16-.6.34-.82.21-.25.3-.76.9-.47.61.3,1.29.39,1.92-.06.21-.15.49-.21.57.1.05.19-.05.58-.18.64-.89.36-1.81.65-2.62.93Zm1.12,7.49c-.69-.64-.87-1.48-.85-2.39.05-.5-.05-1.36.37-1.37.55-.01.22.78.36,1.21.23.71.52,1.41.75,2.12.08.25.04.53.06.79-.23-.12-.5-.2-.69-.37Zm2,32.62c-.07.14-.5.18-.74.13-.73-.16-2.21-2.26-2.21-3.07.04-.47.08-.88.76-.74,1.29.26,2.73,2.6,2.18,3.68Zm7.26,3.94c-1.76.19-2.41-.88-2.83-2.21-.12-.4-.02-.79.38-1.03.14.25.39.51.39.76,0,1.37,1.4,1.59,2.06,2.49Zm-2.61-5.12c.19-.18.38-.37.59-.52.05-.03.19.07.38.15-.25.3-.42.5-.58.7-.13-.11-.26-.22-.39-.34Zm1.26-1.15s-.18-.18-.28-.28c.22-.2.43-.44.68-.59.09-.06.29.07.67.19-.49.32-.77.52-1.07.69Zm-4.22-16.51c.43.71.42,1.42-.18,1.97-1.84,1.69-.65,3.65-.54,5.5.02.37.33.27.5.06.73-.94,1.44-1.89,2.15-2.84.18-.24.33-.49.5-.74.18.2.36.4.54.6,1.99,2.2,2.83,4.74,2.33,7.71-.14.83-.36,1.7-1.29,1.45-.94-.25.12-.85.08-1.33-.06-.79.02-1.6-.05-2.38-.05-.49-.37-.9-.87-1.05-.52-.16-.78.22-1.07.57-.28.33-.6.68-.98.84-.84.35-1.89.68-1.58,1.74.25.86.58,2.06,2.01,1.95.87-.06,0,.71.37.93.51-.14,1-.98,1.53-.22.44.63-.36.99-.6,1.48-.08.16-.41.26-.4.37.05.87-.41,1.43-1.19,1.23-1-.27-.19-1.03-.19-1.58,0-.13-.06-.26-.09-.39-1.25-.1-1.64-1.19-2.08-2.04-1.13-2.17-1.85-4.58-1.96-6.98-.08-1.66.74-3.37,1.24-5.03.8-2.67.19-5.24-.64-7.74-.39-1.17-.36-2.34-.58-3.5-.03-.16.06-.45.17-.51.28-.14.43.1.5.34.45,1.5,1.44,2.8,1.25,4.54-.19,1.77.23,3.5,1.16,5.05Zm1.92,12.37c-.19.17-.33.39-.43.37-.14-.02-.32-.2-.36-.34-.02-.1.18-.35.28-.35.14,0,.28.17.51.33Zm-5.31-8.06c.52-3.08.39-6.19.6-9.28.71,3.16.43,6.25-.6,9.28Zm4.49-17.26c.58-.95.44-2.75,1.92-2.71,1.61.04.21,1.63.77,2.23.04,1.22-.85,1.22-1.55,1.32-.59.08-1.41-.4-1.14-.83Zm-1.82-2.11c1.67,1.14.55,2.86,1.78,3.7.29.2.51.52.13.89-.53.53-.97,1.19-1.58,1.55-.21.12-.18-.74-.33-1.13-1.01-2.73-2.05-5.45-3.01-8.19-.46-1.33.42-2.31,1.27-3.1.37-.34.27.31.32.76-1.91,2.28.32,4.78,1.41,5.52Zm.47-11.21c-.47-.11-.86-.37-1.09-.81-.02-.03.14-.16.25-.28.45.38.84.69,1.22,1.01-.13.03-.27.1-.38.07Zm3.72-1.04c.32-.08.36.2.37.45-.06.42-.23.76-.66.86-.06.01-.27-.25-.26-.37.04-.39.1-.82.56-.93Zm-7.68-18.7c.41.03,1.05-.15.99.48-.05.6-.55.97-1.26.89-.49-.05-1.24.04-1.21-.56.04-.76.82-.81,1.48-.81Zm0,5.29c.01.23-.06.52-.26.38-.4-.28-.73-.67-1.08-1.02.14-.1.29-.29.41-.27.51.09.8.45.94.91Zm-2.56-3.83c.35-.08.45.22.58.48-.22.39-.35.91-.67,1.06-.25.13-.4-.39-.4-.7,0-.35.06-.75.49-.85Zm-.44,5.41c-.25-.31-.31-.63,0-.82.52-.32.19.25.32.38.6.57,1.28.15,1.92.2.64.06,1.39-.12,1.64.71-.01.41-.24.88-.46.77-1.08-.58-2.52-.12-3.4-1.23Zm5.65,2.32c.2.59.41,1.19.6,1.74-.2.52-.06,1.11-.58,1.44-.08-.37-.18-.73-.25-1.11-.13-.74-.56-.82-1.11-.48-.65.41-1.27.41-1.9.02-.41-.25-.92-.55-.68-1.1.22-.5.73-.35,1.13-.11.36.21.76.19.99-.07.54-.6,1.22-.11,1.79-.34Zm-.21-4.04c-.59.42-1.11-.27-1.69-.14,0-.25-.09-.54,0-.75.16-.37.55-.57.88-.32.78.59,1.13.16,1.38-.52.08-.21,0-.57.31-.48.19.05.29.42.42.62-.21.76-.74,1.19-1.29,1.58Zm1.13-3.75c-.6-.34-1.32-.56-1.54-1.34-.01-.04.34-.28.41-.23.6.35,1.18.74,1.73,1.09-.16.44-.36.62-.61.48Zm7.68-15.36c.33.49.66.99,1.02,1.52-.17.2-.31.44-.37.43-.86-.26-.14-1.41-.95-1.72.1-.08.2-.15.3-.23Zm-6.17,11.18c.19-.65.38-1.3.57-1.95.1.05.28.09.29.15.1.73-.37,1.26-.85,1.8Zm4.32-5.15c-.71-.24-1.48-.56-1.99-1.08-.32-.33-1.25-.86-.5-1.56.75-.69.8.42,1.21.59.69.28,1.67.12,1.64.83.01.79-.09,1.31-.37,1.21Zm.33-4.07c.38.05.8.34.66.66-.26.6-.34-.23-.59-.17-.33.07-.65,1.23-1.02.01.2-.39.54-.55.96-.5Zm-2.47-6.2c.22-.12.3.14.16.8.05-.03-.25.15-.54.32-.07-.15-.24-.35-.19-.44.14-.26.33-.56.58-.69Zm.29,4.45c.63-.04,1.09.49,1.19.97.11.57-.56.11-.86.42-.48-.21-1.28-.33-1.4-.69-.14-.39.61-.67,1.07-.7Zm-1.4,1.33c.38.03.47.36.4.58-.16.52-.42,1.01-.64,1.51-.29-.32-.76-.6-.82-.95-.1-.68.63-.81,1.06-1.13Zm.95,5.08c.08-.12.66.12,1.01.21.57.14,1.25.44,1.13,1.02-.14.64-.44-.42-.83-.13-.7.52-1.55.56-2.39.59-.73.02-1.03-.32-.99-.63.08-2.42,1.53-.3,2.08-1.05Zm-2.09,8.16c.34.28.57.73.74,1.15.05.12-.3.57-.44.56-.8-.07-.22-.88-.58-1.15-.01-.31.11-.7.28-.56Zm-1.04-7.42c.62.03.65.95.84,1.47-.05.34-.08.62-.15.89-.13.57.31,1.64-.26,1.64-.74,0-.45-1.09-.6-1.71-.07-.3-.09-.63-.05-.94.06-.47-.26-1.35.21-1.33Zm-7.41-37.74c.35-.02.84-.03.9.35.06.39-.44.3-.72.39-.37.01-.79-.03-.82-.46-.03-.39.4-.26.64-.28Zm-.77,7.43c.68-.07,1.21.25,1.39.88.27.94.4,1.92.58,2.88,0,.02-.19.12-.23.09-.23-.14-.64-.42-.62-.46.48-.9-.85-1.44-.45-2.21.14-.73-.08-.79-.61-.53-.39.19-.83-.04-.83-.39,0-.44.49-.23.77-.26Zm-.88.79c.03.08.2.36.16.4-.51.48-1.06.91-1.6,1.36-.06-.09-.2-.23-.17-.27.36-.55.68-1.16,1.61-1.5Zm-2.39-.31c.4-.32.96-.32,1.17.03.28.46-.37.43-.6.57-.56.32-.94.68-.95,1.37,0,.18-.2.35-.3.52-.09-.2-.18-.39-.21-.46.09-.88.29-1.55.89-2.03Zm1.54,6.52c.08.34-.41.53-.7.48-.92-.15-1.11-1.12-1.69-1.66-.12-.11.11-.33.42-.25.71.35,1.73.41,1.97,1.43Zm-.8,5.84c-.1,0-.26-.45-.31-.71-.06-.27,0-.6.34-.61.09,0,.19.43.26.59-.13.32.12.7-.28.72Zm.96-1.05c-.49-.16-.36-.62-.39-.99-.01-.14.1-.3.2-.58.22.49.4.82.5,1.18.03.1-.25.41-.31.39Zm.92-3.28c-.47.73-1.14,1.1-2.17,1.03-.47-1-2.37,1.38-2.5-.97-.03-.51.16-.84.68-.61,1.26.56,2.49,1.16,3.79.1.06-.05.21.02.31.03-.04.14-.05.3-.12.42Zm1.56-2.6c-.51.87-1.35.29-2.03.18-.83-.14-.55-.78-.49-1.31,0,0-.02,0-.03,0,0,0,0,0,0,0-.18.1-.35.21-.54.27-.35.1-.71.49-1.08.08-.09-.09-.11-.41-.07-.43.45-.23.9-.54,1.39-.61.55-.08.12.48.3.69.01,0,.02-.01.04-.02,0,0,0,.01,0,.02.28-.09.57-.16.82-.3.6-.34,1.33-.71,1.83-.19.26.27.13,1.18-.12,1.62Zm3.31.43c-.53,1.09-1.39,1.92-2.3,2.69-.04.03-.15.04-.16.04-.17-.53-.33-1.06-.43-1.38.05-1.62,1.53-2.18,1.87-3.41,0-.01.55.02.61.15.3.59.75,1.19.4,1.91Zm.43-1.58c-.09-.11-.22-.21-.26-.34-.03-.1.05-.24.13-.53.21.29.35.42.39.57.02.07-.17.19-.26.29Zm-.63-9c.75,1.53,1.84,2.92,1.76,4.85-.04,1.12-.58,1.63-1.27,2.17-.22.17-.64.27-.89.18-.39-.13-.29-.63-.15-.82.5-.7-.14-1.31-.26-1.85-.15-.67.01-1.17.37-1.31.57-.22.83.39,1.08.86.13.24-.06.88.43.67.35-.15.25-.73,0-1.07-.45-.61-1.08-1.01-1.84-.9-.59.08-.86-.22-1.19-.83-.14.84.22,1.76-.56,1.95-.26.06-.81-1.03-1.2-1.61-.19-.28-.37-.93.04-.79,1.62.54,1.27-.86,1.69-1.51.67-1.05,1.62-.79,2.01,0Zm25,27.29c.08-.05.3.16.58.32-.29.18-.45.32-.64.4-.19.09-.42.05-.36-.21.05-.2.24-.41.42-.52Zm-.5.54c.02.09.05.26.05.26-.26.07-.53.13-.8.19l-.05-.23c.27-.07.53-.15.8-.22Zm-5.54-5.95c-.53-.07-.94-.13-1.97-.28,1.1-.13,1.53-.19,1.97.28Zm-14.44-29.87c-.11.36-.3.7-.52,1.2-.12-.42-.26-.67-.25-.93,0-.37.19-.7.63-.7.05,0,.19.31.15.43Zm6.16,3.38c.1.13.21.26.48.6-.22.1-.4.25-.54.22-.15-.03-.27-.24-.41-.37.16-.15.31-.3.47-.45Zm-.32,2.43c2.06.04,2.35,1.6,2.65,3.08.16.81.12,1.67.15,2.34,0,.29.02.41,0,.52-.21.83.38,2.18-.46,2.42-1.28.36-3.29-1.93-2.87-3.26.38-1.22-.87-2.64.55-3.65.03-.02-.06-.2-.09-.31-.14.07-.3.12-.41.21-.43.36-.86.86-1.46.64-.68-.24-2,.2-1.81-1.13.17-1.21,1.1-.37,1.65-.27.83.15,1.32-.62,2.1-.6Zm-1.08-.44c-.18.06-.55.08-.56.06-.44-1.76-2.64-1.24-3.37-2.61-.07-.13-.15-.25-.22-.38.15,0,.3-.04.44,0,1.6.45,2.69-.16,3.37-1.62.08-.18.34-.4.35-.24.01,1.05,1.03,2.1.06,3.17h.01c.32.57,1.34,1.17-.08,1.63Zm-4.1-5.55c.04-.16.19-.29.3-.43.05.13.11.26.18.45-.12.13-.23.25-.34.37-.05-.13-.17-.28-.14-.39Zm.94.2c.24-.38.64-.66.97-.98.12.12.35.26.33.37-.05.53-.38.85-.89.98-.28.02-.58-.1-.41-.37Zm3.84-1.31c-.23.2-.37.38-.43.36-.43-.17-.84-.39-1.26-.59.1-.14.25-.41.3-.39.43.16.84.37,1.38.62Zm-5.43-5.68c.41.04,1.08.09.76-.6-.22-.47-.78-.81.05-1.13.69-.27,1.44-.36,1.84.48.21.43.39.78.93.73,1.97-.18,2.48.99,2.45,2.46.08,1-.08,1.5-1.1,1.19-.36-.11-1.11,0-1.21.22-.64,1.48-1.99.65-2.96.99-.46.16-.53-.24-.64-.51-.34-.85-.65-1.71-.99-2.56-.35-.86-.29-1.41.86-1.29Zm-.67,5.06c.21.33.12.32-.18.4-.96.26-1.43,1.06-1.92,1.84-.21.33.03,1.15-.79.86-.66-.24-1.2-.64-1.14-1.72.38-1.62.75-3.5,2.13-4.96.2-.21.34-.66.72-.44.17.1.21.47.28.72.28,1.11.27,2.3.91,3.3Zm20.6-5.61c.74.12.75.71.81,1.26,0,.01.02.03.03.05.01,0,.03,0,.04,0,0,.01-.02.02-.03.04,0,.01.01.01.02.03,0,0-.02,0-.03-.01,0,0-.01.01-.02.02,0-.01,0-.02,0-.03-.01,0-.03-.01-.04-.02.01,0,.02,0,.04,0,0-.02,0-.03,0-.05-.24-.38-.55.8-.81.06-.16-.44-.41-.84-.61-1.25.21-.03.42-.1.62-.07Zm-6.54-7.2c.35-.65.89-1.14,1.64-1.25.18-.03.41.28.62.44-.63.38-1.27.77-1.78,1.07-.36.02-.63.02-.48-.26Zm31.57,16.95c.19.36.35.55.37.75.01.1-.25.22-.39.33-.09-.16-.24-.31-.25-.47-.01-.15.13-.31.27-.61Zm-2.37,4.54c-.05.22-.1.5-.16.78-.51-.2-.34-.65-.35-1.01,0-.28-.11-.81.3-.74.45.07.08.59.21.98Zm.3-1.83c-.67,0-1.19-.28-1.24-1.01-.03-.52.3-1.03.8-1.03.79,0,.66.93,1.08,1.28-.01.49-.19.76-.64.76Zm.34-4.55c.45,0,.81.29.73.75-.07.43-.23.93-.71,1-.64-.05-.79-.41-.77-.84.01-.47.21-.9.75-.91Zm28.88-27.11c.33.58.56.89.68,1.24.06.18-.07.42-.12.63-.21-.36-.43-.72-.6-1.09-.06-.13,0-.32.04-.78Zm-15.94-10.41s0,.07,0,.07c-.28.03-.56.05-.84.08,0-.08,0-.15,0-.23.28.02.56.05.84.08Zm-6.13,1.3c1.57-1.12,3.33-.9,5.07-.64.11.02.2.17.29.26-.13.14-.25.3-.4.42-1.36.98-2.99,1.02-4.62,1.31-.36,0-.72-.17-.89-.57-.2-.48.27-.59.54-.78Zm-4.87,2.69c.76-.15,1.48-.58,2.18-.95.88-.47,1.41-.51,2.33.31,1,.89,2.52.04,3.68-.41,1.75-.67,3.39-1.61,4.87-2.82.22-.19.89-.05,1.21.15.33.21.34.79.08,1.07-2.67,2.86-5.98,4.61-9.76,5.48-.2,0-.4-.02-.6,0-.61.06-1.51-.54-1.75.05-.27.65.75.86,1.23,1.21.54.4.46.63-.05.94-2.85,1.73-3.41.93-5.05-1.81-1.72-2.87-.35-2.82,1.64-3.21Zm-18.94.35c1.07-.09,4.25,2.88,4.27,3.98.06.31-.1.51-.37.45-.53-.1-1.47-.23-1.5-.44-.19-1.61-1.69-2.15-2.47-3.25-.13-.18-.28-.35-.42-.52.16-.08.32-.22.49-.23Zm-12.81-4.51c.59.17.91.58.93,1.11.02.43-.19.87-.75.87-.67,0-.6-.52-.55-.93.04-.36-.24-.89.37-1.06Zm-1.15-1.84c.48-.02.75.26.78.72.04.74-.59.59-.92.69-.5.07-.85-.02-.79-.52.05-.54.38-.87.94-.89Zm-.03,4.82c-.45.03-.67-.22-.7-.63-.02-.2-.09-.55.32-.43.32.09.76.07.77.47.04.4-.09.56-.38.58Zm.17,6.44c-.08.52-.33.74-.74.75-.27,0-.35-.18-.19-.38.2-.26.05-.81.56-.77.15,0,.28.3.37.41Zm-2.45-10.75c.36-.05.57.17.71.49-.32.43-.48,1.01-1.05,1.05-.37.03-.46-.38-.47-.7-.01-.53.34-.77.81-.84Zm-1.12,3.07c.02-.21.4-.58.46-.55.4.19.93.4,1.06.74.13.35-.41.3-.64.35-.43-.06-.93.05-.88-.55Zm.58,6.37c.77-.78-.14-2.26.99-2.72.54-.22.77.64,1.01,1.26-.72.45-.57,1.66-1.66,1.87-.4.08-.42-.33-.34-.41Zm-2.84,15.08c-.58-.08-.43-.47-.46-.74-.02-.21-.09-.58.25-.49.24.06.49.39.56.64.04.16-.23.41-.35.59Zm6.88,2.8c.19.54-.6.07-.81.2-1.64.27-2.1-.99-2.66-1.98-.16-.29.38-.18.62-.21,1.55-.2,2.42.76,2.85,1.99Zm-.79-3.91c.47.19.05.91-.25,1.22-.35.36-1.07.46-1.32.17-.33-.38.34-.55.59-.81.14-.14.48-.46.17-.46-1.16-.01-2.11-1.31-3.4-.48-.58.37-1.39.38-1.64-.34-.34-1,.69-.24.94-.56.49-.66,1.68-.59,1.37-2.17-.19-.97,1.23-2.26,2.13-3.74.07,1.3-1.01,1.76-.85,2.65.53-.25.76-.23.78.52.04,1.46-.53,3.16,1.47,3.99Zm-1.16-6.94s-.06-.02-.07-.05c-.01-.02,0-.05,0-.08.05.01.1.03.15.04-.02.03-.05.05-.07.08Zm13.38-7.26s-.02,0,0,0c-3.57-.22-6.66.32-9.49,2.1-.43.27-.93.88-1.62.2-.2-.2-.63.31-.43.57.46.62-.04.84-.35,1.16-1.01,1.03-1.94,1.8-2.14-.52,0-.1-.09-.29-.14-.29-.48,0-.98.08-1.19-.53.54-.04,1.12-.23,1.6-.08,1.47.45,1.94-.36,1.98-1.55.04-.99.61-1.33,1.4-1.47.31-.06.67.1,1,.16-.16.25-.34.49-.49.74-.19.32-.37.66-.56.99.52.25.64-.33.97-.47,2.62-1.11,4.82-3.03,7.55-3.92.32-.11.54-.03.71.25.51.85,1.02,1.7,1.52,2.55-.15.05-.29.1-.33.11-.02,0-.02,0,0,0Zm-1.1-9.56c.3,4.13.57,7.92,4.57,10-3.4-.66-5.62-5.49-4.57-10Zm11.7,14.33c-2.72-.75-5.36-1.3-7.51-3.05-.14-.12-.25-.28-.37-.42.18,0,.39-.09.53-.01,2.26,1.25,4.73,1.89,7.18,2.57.29.08.51.44.76.67-.23.09-.47.19-.59.24Zm-1.36-2.63c-.42-.22-.15-.47.16-.53,1.21-.24,2.38-.31,3.22.84.15.21.21.48.31.72-.25.1-.49.2-.75.31-1.01-.45-2-.85-2.94-1.34Zm5.81,2.93c-.35.05-.71.01-1.07.01,0,.02,0,.04,0,.07-.28,0-.56,0-.83,0-.55-.01-1.01-.19-1.26-.72.39-.1.77-.25,1.17-.28.63-.06,1.27-.07,1.91-.05.4.01,1.04-.2,1.09.38.05.52-.59.54-1,.61Zm1.57-2.48c-.84-1.63-2.32-1.91-3.95-1.96-.33-.01-1.05.23-.81-.57.38-1.28.53-2.54.07-3.83-.87.95-1.88,1.73-2.91,2.51-.43.33-.51,1.13-.7,1.73-.17.56-.55.72-1.08.76-.69.04-.51-.48-.66-.86-.63-1.52-1.43-2.94-2.87-3.87-.15-.1-.25-.27-.37-.4.09-.04.18-.11.28-.13,2.28-.32,4.57-.63,6.54-.9,3.45.01,6.34,2.23,7.3,5.32.15.48.5.91.69,1.38.16.38.48.88-.16,1.1-.47.16-1.06.35-1.38-.27Zm18.45-7.62c-2.66,2.73-5.74,5.01-9.02,6.83-2.51,1.39-5.5,1.91-7.89,2.69-.73-.03-1.13.11-1.18-.36-.01-.12.29-.37.48-.4,6.85-.97,12.25-4.67,17.23-9.17.25-.23.57-.38.86-.57.22.51-.25.72-.49.97Zm1.2-3.12c-.66.69-1.63.2-2.22-.18-.56-.37.22-.88.5-1.16,2.09-2.12,4.2-4.24,6.85-5.17,1.08.11,2.08.11,2.31.82.2.61-.82.81-1.31,1.17-2.07,1.48-4.34,2.65-6.13,4.52Zm1.61.38c-.14.1-.33.12-.5.18.01-.14-.03-.35.05-.42,2.6-2.31,5.37-4.36,8.56-5.78.05-.02.15.04.43.14-3.25,1.55-5.78,3.87-8.54,5.88Zm9.49,1.66c-.06-.04-.11-.08-.17-.12.02-.03.07-.09.07-.09.06.04.12.08.18.13.03.08.07.16.1.24-.06-.05-.12-.1-.18-.15Zm2.13-2.31c-.26.67-.34,1.55-1.45,1.35-.22-.17-.95.15-.75-.3.33-.75,1.18-1.11,1.94-1.42.25-.1.33.18.25.37Zm-.88-1.21c-.6.06-.13-.57-.36-.8-.34-.34.24-1.21-.36-1.14-.7.08-1.05.79-.84,1.49.15.73.12,1.37-.49,1.69-2.07,1.09-4.14,2.3-6.64,1.36-.21-.08-.4-.19-.61-.29.12-.19.19-.45.36-.57,2.27-1.6,4.15-3.73,6.7-4.97.67-.33,1.24-.47,1.87.03.76.59,1.33,1.27,1.32,2.29,0,.6-.52.86-.96.9Zm7.97-5.34c-1.97,1.01-3.64,2.45-5.45,3.68-.58.4-.85.38-1.1-.31-.14-.4-.36-.87-.7-1.09-1.99-1.31-.54-1.74.55-2.18,1.99-.81,4.04-1.45,6.27-1.6.85.1,1.74.21,2.63.32-.45.92-1.47.8-2.21,1.18Z"/>
      <path class="cls-1" d="m19.14,181.19s.01-.02.02-.02c-.01,0-.03,0-.04,0,0,.01.01.02.02.03Z"/>
      <path class="cls-1" d="m7.78,184.37s.01,0,.02,0c0,0-.01-.02-.02-.03,0,0-.01,0-.02,0,0,.01.01.02.02.03Z"/>
      <path class="cls-1" d="m18.05,228.3s.04.01.06.02c0,0,.02-.01.02-.02,0,0,0-.01,0-.02-.03,0-.06.01-.09.01Z"/>
      <polygon class="cls-1" points="13.03 97.05 13.03 97.06 13.04 97.06 13.03 97.05"/>
      <path class="cls-1" d="m18.59,93.48s.02,0,.03,0c0,0,0,0,0-.01,0,0-.02-.01-.03-.02,0,0,0,.02,0,.02Z"/>
      <path class="cls-1" d="m15.94,111.97s0-.02,0-.03c-.02,0-.03.02-.05.03.02,0,.04,0,.05,0Z"/>
      <polygon class="cls-1" points="13.07 166.86 13.07 166.87 13.07 166.87 13.07 166.86 13.07 166.86"/>
      <path class="cls-1" d="m22.2,113.9s0-.05-.03-.07c0,0-.02-.01-.02-.02,0,.02,0,.03,0,.05.02.02.04.03.06.04Z"/>
      <path class="cls-1" d="m26.95,18.15s.02,0,.03,0c0,0,0-.02.01-.03h-.04s0,.02,0,.02Z"/>
      <path class="cls-1" d="m14.88,94.11s.01-.01.02-.02c0,0,0,0,0,0,0,0,0,.02,0,.03Z"/>
      <path class="cls-1" d="m58.63,152.19s-.05.04-.07.06c-.05.05-.1.09-.15.14.08-.07.15-.13.23-.2Z"/>
      <path class="cls-1" d="m32.75,27.53s0-.02,0-.04c0,0-.01,0-.02,0l.02.03Z"/>
      <path class="cls-1" d="m8.99,249.86s0,.03-.01.04c.03.01.05.01.08.02-.01-.02-.02-.04-.03-.06,0,0-.02,0-.03,0Z"/>
      <path class="cls-1" d="m7.99,245.51s-.02,0-.03,0c0,.01,0,.02,0,.04.01,0,.02,0,.04,0,0-.01,0-.02,0-.03Z"/>
      <path class="cls-1" d="m47.21,17.81h0s-.02,0,0,0Z"/>
      <path class="cls-1" d="m35.87,183.2s.02,0,.03,0c0,0-.01-.01-.02-.02,0,0,0,.01-.01.02Z"/>
      <path class="cls-1" d="m30.94,131.06s-.01-.01-.02-.02c0,0,0,0,0,0l.02.02Z"/>
      <path class="cls-1" d="m70.33,51.37c.42-.67.58-1.19.29-1.59,0,.56-.08,1.15-.29,1.59Z"/>
      <path class="cls-1" d="m70.33,51.37c-.09.14-.19.29-.3.45.12-.12.22-.27.3-.45Z"/>
      <path class="cls-1" d="m81.1,17.45s-.02.02-.03.03c0,0,0,0,0,0l.03-.03Z"/>
      <path class="cls-1" d="m43.11,41.06s-.01-.02-.02-.03c0,0,0,0-.01.01,0,0,.02,0,.03.01Z"/>
      <path class="cls-1" d="m43.13,41s-.03,0-.04,0c0,.01,0,.01.01.03,0-.01.02-.02.03-.04Z"/>
      <path class="cls-1" d="m43.08,41.01s-.02-.03-.03-.05c0,.02,0,.03,0,.05,0,0,.01,0,.02,0Z"/>
      <path class="cls-1" d="m43.06,41.04s.01,0,.02,0c0,0,0,0,.01-.01,0-.01,0-.02-.01-.03,0,0-.01,0-.02,0,0,0,0,.02,0,.03Z"/>
      <path class="cls-1" d="m30.61,223.2c.06-.28.03-.48-.04-.65,0,.21.01.44.02.65h.02Z"/>
      <path class="cls-1" d="m39.8,186.91s0,0,0-.01c0,.01,0,.02,0,.03v-.02Z"/>
      <polygon class="cls-1" points="29.48 211.87 29.49 211.87 29.48 211.87 29.48 211.87"/>
      <path class="cls-1" d="m28.07,211.63s-.02-.02-.03-.02c0,0,0,0,0,0,0,0,.03.02.03.02Z"/>
      <path class="cls-1" d="m43.07,41.07s.01-.01.02-.02c0,0-.01,0-.02,0,0,.01,0,.02,0,.03Z"/>
      <path class="cls-1" d="m43.02,41.02s.03.01.04.02c0,0,0-.02,0-.03-.01,0-.02,0-.04,0Z"/>
      <path class="cls-1" d="m17.87,175.49c-.2-.04-.39-.08-.59-.12.04-.05.08-.09.12-.14.15.09.3.18.45.27,0,0,.01-.02.01-.02Z"/>
      <path class="cls-1" d="m13.14,180.88c.13-.12.26-.24.39-.36.06.06.12.11.18.17-.11.13-.23.26-.34.39-.08-.07-.16-.13-.23-.2Z"/>
      <path class="cls-1" d="m19.42,223.34c.04.11.08.22.11.34-.08-.06-.16-.13-.25-.19.04-.05.09-.1.13-.14Z"/>
      <path class="cls-1" d="m17.44,172.27s-.05.03-.08.05c0-.02.01-.04.02-.06,0,0,.05.01.05.01Z"/>
      <path class="cls-1" d="m21.1,242.71c.02-.07.05-.15.07-.22.03.02.06.03.09.05-.06.06-.13.12-.2.18,0,0,.03,0,.03,0Z"/>
      <path class="cls-1" d="m12.93,181.11c.07-.08.14-.15.21-.23.08.07.16.13.23.2-.07.09-.13.18-.2.27-.08-.08-.16-.16-.25-.24Z"/>
      <path class="cls-1" d="m24.97,260.24c-.15.59-.3,1.18-.3,1.17-.01.02-.97-.82.26-1.15,0,0,.03-.01.03-.01Z"/>
      <path class="cls-1" d="m42.34,179.46c.38.29.09.57,0,.85v-.85Z"/>
      <path class="cls-1" d="m32.19,217.82c0,.3.02.6.03.9-.11-.22-.21-.44-.32-.67l.29-.23Z"/>
      <path class="cls-1" d="m31.55,131.99c-.05.04-.11.07-.14.12-.01.01.01.09.02.09.06,0,.11-.01.17-.02-.02-.06-.03-.12-.05-.19Z"/>
      <path class="cls-1" d="m33.78,167.31c.21-.15.42-.31.62-.46.03.06.09.13.07.17-.15.28-.38.37-.68.26v.04Z"/>
      <path class="cls-1" d="m30.29,223.48c-.25.15-.49.3-.8.49.1-.63.5-.43.8-.47,0,0,0-.02,0-.02Z"/>
      <path class="cls-1" d="m20.23,51.9c-.06.05-.11.08-.15.11-.07-.09-.13-.18-.2-.28.06-.03.15-.1.16-.1.07.08.12.18.18.27Z"/>
      <path class="cls-1" d="m24.94,260.25c.44-.23.05-.32-.09-.41-.04-.03-.17.07-.26.12.12.09.25.19.38.28,0,0-.03.01-.03.01Z"/>
      <path class="cls-1" d="m32.15,219.62c.01.07.03.14.04.21,0,.03-.04.05-.06.08-.01-.07-.03-.14-.03-.21,0-.03.04-.06.06-.08Z"/>
      <path class="cls-1" d="m32.51,231.87c-.37.33-.42,0-.52-.25.34-.26.39.08.52.25Z"/>
      <path class="cls-1" d="m81.07,17.48c-.05-.06-.1-.12-.14-.18-.02.02-.04.04-.06.06.08.03.15.06.23.09,0,0-.03.03-.03.03Z"/>
      <path class="cls-1" d="m27.87,115.14c.07.11.15.23.22.34-.15-.04-.31-.07-.46-.11.08-.08.16-.15.24-.23Z"/>
      <path class="cls-1" d="m23.9,36.35c.27.16.34-.06.45-.22-.29-.21-.38-.03-.45.22Z"/>
      <path class="cls-1" d="m24.32,36.15c.17-.09.34-.17.52-.26-.17.09-.34.17-.52.26Z"/>
      <path class="cls-1" d="m39.79,186.93c.09-.04.18-.07.26-.11.01.06.02.13.03.19-.09-.04-.19-.08-.28-.11,0,0-.01.03-.01.03Z"/>
      <path class="cls-1" d="m31.25,128.24c-.09-.13-.18-.26-.27-.4.07-.06.14-.13.21-.19.02.2.04.39.06.59h0Z"/>
      <path class="cls-1" d="m33.79,167.28l.04.07s0-.07.01-.1c-.02.02-.04.04-.07.06,0,0,.01-.03.01-.03Z"/>
      <path class="cls-1" d="m30.58,223.21c-.12,0-.24-.01-.36-.02.02.1.04.19.07.29,0,0,0,.02,0,.02.11-.1.21-.2.32-.3,0,0-.02,0-.02,0Z"/>
      <path class="cls-1" d="m31.25,128.24c.04-.08.07-.16.11-.24.01.02.04.05.03.06-.04.06-.09.11-.14.17,0,0,0,0,0,0Z"/>
      <path class="cls-1" d="m29.48,211.87s.04-.08.06-.12c-.01.01-.03.02-.03.04-.01.03-.02.06-.02.09,0,0,0,0,0,0Z"/>
      <polygon class="cls-1" points="30.91 131.04 30.97 131.01 30.93 131.06 30.91 131.04"/>
      <path class="cls-1" d="m23.84,117.17c-.02.14-.04.28-.06.42-.09-.07-.17-.15-.26-.22.11-.05.22-.1.33-.16,0,0-.01-.04-.01-.04Z"/>
      <path class="cls-1" d="m23.86,117.21c.05-.03.1-.06.15-.09-.01.05-.03.1-.04.14-.04-.03-.08-.06-.13-.09,0,0,.01.04.01.04Z"/>
      <path class="cls-1" d="m23.12,37.11c.09-.09.18-.18.27-.27-.09.09-.18.18-.27.27Z"/>
      <path class="cls-1" d="m23.36,36.87c.09-.09.18-.18.27-.27-.09.09-.18.18-.27.27Z"/>
      <path class="cls-1" d="m23.61,36.63c.08-.08.16-.16.25-.25-.08.08-.16.16-.25.25Z"/>
      <path class="cls-1" d="m28.05,211.61s.05-.02.07-.03c-.02.01-.03.03-.04.04,0,0-.02-.02-.02-.02Z"/>
      <path class="cls-1" d="m40.66,211.49c-.09-.09-.19-.18-.28-.27.31-.14.25.11.28.27Z"/>
      <path class="cls-1" d="m23.4,157.97c-.03.16.04.42-.28.27.09-.09.19-.18.28-.27Z"/>
      <path class="cls-1" d="m23.88,157.5c-.09.09-.19.19-.28.28,0-.2,0-.38.28-.28Z"/>
      <path class="cls-1" d="m24.12,157.26c-.09.09-.19.18-.28.28-.05-.23-.07-.44.28-.28Z"/>
      <path class="cls-1" d="m23.64,157.73c-.09.09-.19.19-.28.28.09-.09.19-.19.28-.28Z"/>
      <path class="cls-1" d="m18.39,248.47c-.05.03-.11.05-.16.08.03-.05.06-.1.08-.16,0,0,.08.08.08.08Z"/>
      <polygon class="cls-1" points="31.89 28.67 31.86 28.6 31.92 28.61 31.89 28.67"/>
      <path class="cls-1" d="m32.44,28.1s-.05.04-.07.06c-.02-.02-.06-.05-.05-.07,0-.02.04-.04.07-.06.02.02.04.05.06.07Z"/>
      <path class="cls-1" d="m32.73,27.5c-.03.06-.05.12-.08.17-.02-.04-.04-.09-.07-.13.06,0,.11-.01.17-.02,0,0-.02-.03-.02-.03Z"/>
      <path class="cls-1" d="m27.14,50.97c-.11-.03-.22-.1-.32-.08-.61.12-1.23.41-1.76-.18-.04-.05.04-.3.05-.3.7.08,1.44,0,2.01.55,0,0,.02.01.02.01Z"/>
      <path class="cls-1" d="m26.53,49.68c-.19.11-.31.21-.45.25-.04.01-.13-.13-.19-.2.12-.08.24-.19.38-.24.04-.02.14.1.26.19Z"/>
      <path class="cls-1" d="m8.75,248.76s-.1.17-.17.29c-.17-.16-.33-.31-.5-.47.11-.09.2-.22.33-.26.27-.08.33.12.34.44Z"/>
      <path class="cls-1" d="m15.11,229.05c.12.02.25.03.37.05-.07.06-.13.13-.2.19-.06-.08-.12-.16-.18-.24Z"/>
    </g>
  </g>
</svg>
