<?xml version="1.0" encoding="UTF-8"?>
<svg id="Layer_2" data-name="Layer 2" xmlns="http://www.w3.org/2000/svg" viewBox="0 0 110.67 287.46">
  <defs>
    <style>
      .cls-1 {
        fill: #b89c74;
        stroke-width: 0px;
      }
    </style>
  </defs>
  <g id="Layer_1-2" data-name="Layer 1">
    <g>
      <path class="cls-1" d="m58.76,153.65s-.01,0-.02-.01c0,0,0,0,0,0,0,0-.01.01-.01.02.01,0,.03,0,.04,0Z"/>
      <polygon class="cls-1" points="83.24 93.93 83.24 93.93 83.24 93.93 83.24 93.93 83.24 93.93"/>
      <path class="cls-1" d="m80.83,53.75s-.02-.02-.03-.03c0,0,0,.01,0,.02,0,0,.02.01.03.02,0,0,0,0,0,0Z"/>
      <polygon class="cls-1" points="94.17 200.3 94.17 200.3 94.17 200.29 94.17 200.3"/>
      <path class="cls-1" d="m92.69,106.49s0,0,0,0c0,0,.01,0,.02-.02,0,0,0,0,0-.01,0,0-.02.02-.02.02Z"/>
      <path class="cls-1" d="m72.71,19.5s.03.01.04.02c0,0,0-.02-.01-.02-.01,0-.02-.01-.03-.02,0,0,0,.01,0,.02Z"/>
      <polygon class="cls-1" points="95.11 113.23 95.11 113.23 95.12 113.24 95.11 113.23"/>
      <path class="cls-1" d="m91.66,175.41s-.02.01-.03.02c.02,0,.03,0,.05,0l-.02-.02Z"/>
      <path class="cls-1" d="m69.4,210.38s-.03.06-.03.08c0-.03.02-.06.03-.08Z"/>
      <path class="cls-1" d="m92.15,174.95v-.05s-.03,0-.05.01c0,0,.05.04.05.04Z"/>
      <path class="cls-1" d="m95.19,262.89s-.03-.04-.05-.05c-.34.56-.32.9-.13,1.16.17-.07.32-.16.41-.28.21-.27.05-.59-.23-.83Z"/>
      <path class="cls-1" d="m98.12,186.23s.02.01.04.02c0-.02,0-.03,0-.05l-.03.03Z"/>
      <path class="cls-1" d="m94.52,260.99s-.26.07-.3.15c-.34.66.33.89.6,1.28.1.14.2.29.33.41,0-.01,0-.02.01-.03.37-.59-.25-1.26-.63-1.82Z"/>
      <path class="cls-1" d="m97.91,185.96s-.03,0-.05,0c0,0,.01.01.02.02l.02-.03Z"/>
      <path class="cls-1" d="m58.24,18.37s0,0,0,0c0,0,0,0,0,0,0,0,0,0,0,.01Z"/>
      <path class="cls-1" d="m83.15,151.75s0,.03,0,.04c0-.02.01-.04.02-.06l-.03.02Z"/>
      <path class="cls-1" d="m110.6,162.24c-.66-1.23-4.37-2.51-5.86-2.01-2.69.89-5.7-.24-7.14-2.75-.34-.59-1.06-1.38-.51-1.9.39-.36,1.18.38,1.71.8,1.34,1.07,4.18.37,4.8-1.14.12-.29.06-.47-.24-.53-1.67-.33-3.32-1.41-5.01-.04-.43.35-.95.35-1.49.28-3.59-.47-6.23-3.81-5.83-7.45.14-1.24.12-2.46,0-3.7-.34-3.46-.7-6.92-.16-10.39.05-.33.2-.93.33-.93,1.74-.08,2.79-1.18,3.74-2.44.21-.28.87.12.76-.41-.05-.23-.63-.41-1-.49-.42-.1-.87-.11-1.31-.08-1.22.06-2.3.02-1.79-1.83-.44.76-.97,2.01-1.43,1.71-.65-.42.24-1.37.44-2.1.01-.04.03-.08.05-.11.46-.57-.32-1.8.5-1.81.59,0,.2,1.32.58,2.12.41-1.3.23-2.45-.09-3.61-.18-.64-.58-1.45.11-1.87.69-.42,1.58-.61,2.41-.21.81.38,1.54.91,1.96,1.7.9,1.66,2.36,2.98,1.54,5.39-.6,1.77.17,3.93-.47,5.87-.13.39.21.42.41.3,1.26-.74,2.62-1.41,3.12-2.95.08-.25,0-.56,0-.83.03-.61.25-.5.49-.1.31.52.62,1.01.12,1.63-.66.82-.64,1.76-.31,2.73.31.91.56,1.84.22,2.81-.06.16,0,.35,0,.53.16-.08.38-.12.48-.25.28-.34.5-.72.75-1.08.28-.41.15-1.05.71-1.3.14.56.3,1.11.41,1.67.04.19.03.42-.05.59-.96,2.03-.75,3.75,1.27,5.04.21.13.31.57.62.37.15-.1.22-.55.13-.75-1.13-2.45-1.23-5.17-2.01-7.71-.81-2.64-1.87-5.17-3.71-7.29-.2-.23-.23-.62-.33-.94.18.03.42,0,.53.11,1.35,1.24,2.84.72,4.31.35.25-.06.47-.22.7-.33-.18-.2-.34-.44-.56-.58-1.62-1.03-2.97-2.71-5.32-1.98-.63.19-1.42-.27-1.93-.8-.66-.69-1.22-1.46-1.82-2.2-.19-.24-.37-.48-.56-.72.35-.26.61.03.87.17,1.89,1.05,3.33-.25,4.89-.93.14-.06.45-.29.16-.42-1.21-.53-1.85-1.92-3.25-2.14-1.94-.31-2.89-1.52-3.09-3.42-.06-.56.02-.66.66-.67-1.36-.86-2.77-1.65-3.66-3.08-.12-.19-.58-.18-.88-.23-.44-.07-1.31.72-1.18-.51.08-.75-.08-1.74,1.33-1.54.93.13,1.8-.26,2-1.39,0,0-.01,0-.02.02,0,0,0,0,0,0-.78.83-1.63,1.29-2.82.74-.61-.28-1.19-.31-.93.73.06.25-.28.59-.44.89-.12-.27-.28-.53-.35-.81-.21-.83-.27-1.82.36-2.32.4-.32,1.34-.29,1.97.35.59.6,1.7-.98,2.21.42,0,0,.02-.02.02-.02,0,0,0,0,0,.01.93-.72,1.94-1.13,3.01-.39.93.64.08,1.47,0,2.17-.19,1.79.79,2.76,2.17,3.5.43.23.95.21.89-.47-.16-1.81.59-3.96-1.84-4.95-.21-.09-.47-.68-.38-.79.32-.41.54.08.74.24,1.67,1.35,3.24.52,4.81-.2.33-.15.35-.55-.06-.56-1.93-.05-2.21-2.84-4.31-2.54-.03-.3-.15-.64-.07-.9.53-1.58-1.63-2.17-1.3-3.65-.06-.01-.16-.05-.17-.03-1.06,1.52-1.17-.21-1.68-.51-.29-.17-1.09-.08-.68-.75.37-.6.98-.43,1.47-.07.35.26.39.35.84-.09,1.59-1.59.18-3.4.58-5.05.07-.3-.21-.32-.45-.09-1.25,1.22-2.59,2.13-4.48,1.36-.53-.22-1.09.07-1.34.55-.69,1.31-2.21,1.44-3.19,2.33-.23.2-.54.24-.75-.02-.3-.38.23-.4.31-.62.3-.76,1.58-.8,1.3-2.08-.33-1.51-.14-2.77,2.06-2.41.73.12,1.57-.44,2.36-.69-.46-.51-.96-1-1.37-1.55-.71-.95-2.6-.65-2.65-1.36-.06-.89,1.73-1.22,2.06-2.41.12-.44.53-1.05.37-1.28-.31-.46-.95-.05-1.45-.08-.44-.02-1.02.53-1.23-.37-.28-1.2-.63-2.39-.91-3.59-.39-1.65.68-2.98,2.28-2.75,1.46.21,1.66-1.59,2.89-1.67-.06-.1-.09-.24-.17-.28-.92-.41-1.74-1.45-2.91-.51-.69.55-1.01.36-.92-.49.22-1.88.11-3.73-.23-5.6-.23-1.27,1.04-1.52,1.77-1.98.72-.44.73.57,1.03.94.27.33.45.76.61,1.16.57,1.38,1.32,2.29,3.01,1.48.44-.21,1.2-.11,1.11.62-.18,1.49.93,2.31,1.55,3.38.14.23.33.44.49.07.46-1.01,1.18-1.92,1.27-3.07.02-.34-.24-.75.31-.86.57-.11.71.36.73.74.15,2.23,1.65,2.9,3.55,3.12.55.06,1.09.14,1.63.21-.09-.69-.78-.83-1.13-1.28-.26-.33-.56-.77-.55-1.16.07-2-3.15-3.38-1.09-5.75.09-.11-.17-.5-.24-.77-.44-1.79-1.58-3.33-1.67-5.29-.05-1.05-1.05-2.21-2.26-2.01-1.14.19-1.54-.09-1.88-1.04-.17-.47-.49-1.03-.89-1.23-.87-.44-.55-.77-.2-1.38.35-.62,1.27-1.54.86-1.86-.69-.54-1.82-.37-2.76-.08-.55.17-.72.7-1.02,1.12-.14.2-.43.29-.65.42-.02-.22-.08-.46-.05-.67.34-2.1.31-4.31,1.9-6.03.22-.24.43-.69.06-.97-.48-.36-.52.27-.77.45-.21.16-.42.31-.63.46-.11-.28-.31-.55-.33-.83-.17-1.89-1.08-3.42-2.36-4.72-.67-.68-.98-1.36-.94-2.32.08-2.05-.02-4.17-1.28-5.86-1.03-1.39-1.85-3.32-4.18-3-1.09.15-1.81,1.27-3.35-.06-1.9-1.65-2.78-3.67-3.77-5.71-.29-.59.04-1.52.57-2.11.34-.38.61.12.92.24.98.4.75,1.15.62,1.91-.24,1.47-.01,2.87.73,4.16.16.28.35.77.78.53.35-.19.07-.59-.03-.86-.4-1.01-.69-2.04-.66-3.14.02-.92-.12-2.07.99-2.31.93-.2.83,1.15,1.45,1.57.38.25-.02,1.16.66,1.03.63-.12.79-.84.94-1.43.07-.27.04-.56.07-.83.06-.48.43-.58.62-.21,1.28,2.49,3.08.81,4.69.62.18-.02.44-.27.47-.44.05-.28-.29-.26-.46-.39-1.59-1.09-3.21-1.8-5.19-1.07-.44.16-.75-.36-1.04-.7.1-.08.2-.2.31-.22,1.92-.36,1.44-1.63,1.09-2.86-.14-.5-.63-1.02.05-1.5.6-.42,1.17-.34,1.79.01.8.45,1.6.94,2.47,1.19,1.12.33,2.78.33,3.18-.48.47-.92-1.02-1.57-1.87-2.12-.46-.3-1.01-.46-1.52-.67-.21-.09-.42-.16-.63-.24.15-.17.29-.34.44-.5,1.23-1.29,1.57-2.83,1.27-4.54-.05-.28-.28-.86-.51-.59-.72.83-2,1.24-1.95,2.68.09,2.67-.99,4.12-3.53,4.97-.31.1-.51.05-.54-.22-.18-1.58-1.36-1.89-2.62-2.14-.23-.05-.6-.32-.59-.47.03-.39.43-.39.75-.42.88-.08,1.41.67,2.15.93,1.07.37,2.14.1,2.5-.77.27-.64-.9-.93-1.5-1.12-.99-.31-1.46-.69-1.05-1.8.14-.37.11-1.36-.09-1.24-.97.54-2.37.04-3.02,1.17-.83,1.45-1.62.44-2.34-.03-.3-.19-.64-.78-.1-1.11.47-.28.9-.02,1.19.47.11.18-.14.73.36.49.16-.07.24-.59.16-.85-.25-.86-4.05-1.55-4.64-.87-.15.18-.34.41-.34.62-.04,1.04-.39.88-1.25.65-1.02-.28-2.2-.13-3.26.08-.18.04.36,1.18.73,1.73.23.35.6.48,1.03.52.5.04.5.29.33.75-.18.49-1.31.86-.55,1.35.54.35,1.58.14,2.15-.57.24-.31.48-.64.85-.32.36.31,1.14.83.84,1.11-.85.79-.36,2.36-1.34,2.69-1.26.42-2.59.61-3.92-.57-1.14-1.01-2.78-1.53-4.26-2.07-.68-.25-.87-.45-.81-1.13.18-1.78.54-3.56.04-5.35-.49-1.73-1.61-2.87-3.31-3.29-1.22-.3-2.26.26-3.03,1.27-.31.41-.37.82.04,1.16.39.33.75.1,1.05-.2,1.28-1.28,2.73-.94,3.32.86.59,1.81.22,3.64-.06,5.45-.07.46-.42.63-.9.57-1.7-.2-3.68-.33-5.02-.84-4.26-1.63-7.95,1.32-11.98.73-.96-.14-2.08.06-2.85-.51-3.08-2.28-6.58-2.95-10.29-2.96-.87,0-1.49-.36-2.06-.99-1.63-1.8-3.12-3.77-5.3-4.98-1.49-.82-3.04-1.62-4.74-.67-1,.56-1.84.51-2.8,0C11,.21,5.8-.4.27.23c-.09.01-.18.02-.27.03.27.66.48,1.34.72,2.02,2.4.23,4.89,1.32,7.48,3.28,1.64,1.24,3.92,2.14,3.66,4.81-.12,1.25-.44,1.88,1.17,2.89,1.34.84,1.36,3.8,1.93,5.82.13.48-.34.66-.64.91-1.4,1.17-.78,2.92-1.17,4.37-.08.31.42.16.62-.02.57-.5,1.12-1.02,1.68-1.53.28-.26.5-.72.97-.31.4.35.8.8.38,1.33-1.19,1.51.68,2.55.59,3.9-.02.31.43-.06.59-.2,1.43-1.17,1.24-2.52-.6-4.75-.57-.7-1.9-1.44-1.22-2.24.51-.6,1.26.86,2.04,1.19.62.26,1.17.7,1.8.93,2.73,1,4.59,2.51,4.31,5.82-.11,1.35,1.08,2.04,2.26,2.49.2.08.45.01.68.02-.69-1.26.58-2.7-.31-3.89-.71-.95-1.61-1.76-2.42-2.64-.15-.16-.26-.36-.39-.55.26-.02.59-.16.76-.05,1.94,1.35,3.53.7,5-.79.21-.21.45-.4.68-.59-.28-.14-.59-.26-.85-.43-1.98-1.29-3.71-1.16-5.22.8-.38.49-1.14.7-1.65.45-3.07-1.52-6.28-2.92-7.71-6.42-.09-.21-.12-.45-.17-.67.24.07.5.09.71.21.62.36,1.2.78,1.82,1.14.76.44,1.55,1.02,2.45.5.9-.51,1.71-1.18,2.1-2.21.12-.31-.05-.46-.33-.47-1.24-.05-2.55-.73-3.65.36-.49.48-.84,1.07-1.68.59-1.22-.69-2.13-1.68-2.28-3.05-.1-.9,1.08-1.94,1.49-1.93,1.3.03,2.53.75,3.92.84,1.16.07,2.27.26,3.38-.32.7-.36,1.36-.12,1.97.41,1.9,1.65,2.62,3.83,2.81,6.23.05.7.29.67.7.41.26-.16.57-.43.62-.7.57-3.08,1.93-.93,2.81-.34,2.59,1.73,5.04,3.66,8.06,4.64.42.14.57.33.41.79-.31.88-.69,1.7-1.42,2.32-.26.22-.52.44-.78.66.3.02.6.02.88.08.43.09.39.45.35.77-.39,2.93,0,5.82.36,8.71.2,1.53.02,2.86-1.74,3.47-.69.24-1.11.88-1.23,1.66-.09.59-.34,1.18-.31,1.75.03.74-1.33,1.45-.77,1.52,1.44.18,3.36.62,4-1.55.18-.6.2-1.26.2-1.89.01-.83-.12-1.67.51-2.35.32.66.7,1.29.94,1.98.41,1.18.97,2.26,1.66,3.3.36.54.55,1.36.1,1.8-.47.47-.85-.35-1.22-.59-.95-.61-1.38-1.21-1.89.59-.35,1.25-1.57,2.36-2.02,3.8-.48,1.52.41,3.25,2,3.25.4,0,.49-1.04,1.35-.99.56.03,1.12-.16,1.27.58.14.69-.25,1.04-.9,1.15-.25.04-.49.13-.74.2.19.18.36.37.56.54.87.75.04,1.62.13,2.43.09.77.24.84.81.46,1.07-.73,2.34-1.26,2.66-2.74.08-.38.32-.79.85-.61,2.1.72,1.15-.76.85-1.34-.47-.9-1.21-1.65-1.84-2.46-.11.68.97,1.42-.06,2.03-.4.24-1.13.34-1.26-.16-.23-.96.45-1.51,1.3-1.84-.2-.25-.17-.8-.69-.6-.72.27-1.29.04-1.39-.65-.1-.69.4-1.14,1.14-1.21.06-.06.12-.11.17-.17-.32-.61-.73-1.47-.23-1.86.4-.31,1.09.43,1.57.85,2.66,2.31,4.62,5,5.2,8.61.41,2.59-.34,4.93-2.15,5.71-.99.42-1.8.44-2.08-.86-.09-.4-.21-.86-.75-.67-.52.19-.53.67-.34,1.11.62,1.47,1.58,2.3,3.28,1.63.27-.11.57-.14.85-.21-.04.31-.05.62-.12.92-.58,2.67-.99,5.36-.15,8.05.48,1.51,1.32,2.72,3.03,3.04,1.18.22,1.78-.5,2.28-1.36.18-.3.21-.81-.18-.95-.8-.3-1.77-.08-2.21.45-.84.98-1.22.29-1.64-.23-1.4-1.72-1.47-7.42-.06-9.1.71-.85.9.3,1.32.53.25.14.44.41.65.62.15-.3.37-.59.44-.92.17-.79,0-1.59-.56-2.12-.94-.9-.92-1.96-.81-3.09.34-3.56-.58-6.7-3.04-9.37-1.41-1.53-2.67-3.19-4.1-4.7-1.65-1.75-1.97-4.06-2.76-6.17-.06-.17.06-.41.09-.62.15.12.35.2.44.35.53.83.96,1.73,1.55,2.51,1.49,1.99,3.77,1.74,5.88,1.97.51.05.71-.1.37-.59-.11-.16-.37-.42-.33-.47.66-.94-3.47-2.93.8-3.22,1.69-.12,1.76-2.57,2.73-3.85.2-.27-.29-.17-.45-.07-1.01.56-2.1.72-3.23.76-1.13.04-1.8.78-2.34,1.66-.97,1.59-3.3,1.79-4.5.38-1.47-1.71-2.31-3.61-1.94-5.94.3-1.88.06-3.83.76-5.66.28-.74.73-1,1.48-.76,1.55.49,3.13.61,4.73.43.87-.1,1.12.1.83,1.05-.63,2.04.59,5.53,3.37,5,.29-.06.72.12.81-.3.09-.42-.31-.49-.62-.58-.11-.03-.31-.01-.34-.08-.71-1.65-1.46-3.29-2.07-4.98-.12-.34.52-.51.92-.57,3.57-.52,6.74-1.97,9.81-3.83,2.09-1.27,4.43-.29,6.65-.04.49.05.42.36-.02.57-1.84.88-2.3,2.42-1.7,4.2.23.67-.61,1.98.08,1.72,1.3-.5,2.65-1.54,2.86-3.24.06-.49-.15-1.02-.29-1.51-.09-.31-.32-.65,0-.86.22-.14.64-.2.88-.09,4.25,1.93,6.65,4.29,5.85,9.05-.14.86-.33,2.53-2.03,1.09-.94-.79-2.26-.3-3.35-.69-.06-.02-.27.16-.3.28-.6,1.84,1.15,4.12,3.21,4.22.31.02.83-.27.87.27.02.27-.3.68-.57.82-1.37.74-2.72,1.55-4.17,2.07-1.12.4-2.33.3-2.88-1.12-.42-1.1-1.37-1.44-2.41-1.75-.98-.29-2.23-.09-2.79-1.31-.03-.07-.19-.08-.29-.11-.02.15-.06.29-.06.44-.15,3.56.84,4.66,4.34,4.79-2.67.21-2.83,2.39-3.46,4.2-.07.21-.14.53-.03.66.26.32.48-.05.71-.15,1.48-.61,2.72-1.4,2.49-3.32-.07-.56.49-.57.83-.69.28-.09.62-.03.93-.04-.1.32-.19.64-.29.95-.07.23-.21.45-.23.68-.12,1.13-1.3,2.5-.09,3.3.96.64,3.61-1.76,3.8-3.21.05-.39.08-.8.03-1.2-.26-1.99,1.63-1.71,2.56-2.44.04-.03.18.08.27.12-.21.33-.44.66-.64,1-.21.36-.98.38-.77.88.11.25.78.31,1.21.37,1.96.27,3.47-.24,4.12-2.34.2-.64.56-1.23.85-1.84-.06-.06-.11-.12-.17-.18-.21.18-.41.38-.65.52-.69.42-1.45.23-2.2.21.15-.82.66-1.5,1.29-1.9.62-.39,1.82-.68,2.12.02.34.79.47.28.72.15.73-.41,1.45-.93,2.34-.56.72.3,1.49.56,2,1.23-.68.41-1.24-.23-1.89-.22-.63.01-3.25,2.4-3.3,3.04-.02.31.21.36.36.3,1.6-.63,3.73.53,4.91-1.67.5-.94,2.78-.31,3.14.72.14.41-.08.51-.39.53-1.48.07-2.5,1.16-3.76,1.74-1.07.49-1.6,1.5-1.27,2.69.44,1.59-.29,2.88-.87,4.22-.11.26-.41.43-.63.64-.08-.25-.22-.49-.23-.74-.07-1.43-1.37-1.79-2.24-2.46-.57-.44-.31.33-.33.51-.17,1.39,0,2.9-2.28,2.54-1.1-.17-1.68,1.08-2.51,1.67-.31.22.1.47.31.62,1.42.95,2.84,1,4.19-.1.64-.52,1.27-.99,2.15-.74.63.17,1.55.2.62,1.22-.39.42-.12.91.09,1.34.08.16.23.3.34.44.05-.2.16-.42.13-.6-.07-.35-.31-.78.21-.87.43-.07.71.53.58.72-.32.47,1.68,2.03-.67,1.5.09,1.14-.79,1.95-1.03,2.95-.44,1.9-.81,3.84-.37,5.8.17.76.14,1.18-.81.93-.3-.08-.64-.06-.95-.03-.76.08-2.15.16-2.04.65.21.9,1.38,1.79,2.34,1.31,2.19-1.11,1.97.68,1.67,1.5-1.2,3.35.41,6.95-1.07,10.24-.28.63-.46,1.12-1.24.7-1.84-.99-3.13.72-4.71,1.01-.49.09.04.45.21.53,1.13.6,2.25,1.25,3.62.79.18-.06.82-.45.6.3-.77,2.6-5.29,4.79-7.63,3.74-.17-.06-.34-.11-.52-.17.22,0,.45-.01.67-.02.28,0,.85.18.22-.37-1.45-1.27-2.34.59-3.55.69-.19.01.29.49.53.56,2.53.73,3.03,1.77,1.55,4.3-1.63,2.78-.78,5.93,1.27,7.79.44.39.89.86,1.58.62.13-.04.22-.19.33-.29-.07-.07-.13-.17-.22-.22-2.45-1.49-3.35-4.06-2.39-6.86.13-.38.27-.75.44-1.11.25-.57.38-1.54,1.02-1.46.68.08.22.99.33,1.52.17.79.74,1.31,1.19,1.91.4.53.48-.02.63-.23,1.01-1.4,1.06-3,.71-4.58-.2-.91.02-1.45.77-1.89,3.61-2.07,4.95-5.56,5.85-9.33.1-.42,0-1.23.4-1.17.49.07.22.82.23,1.26,0,.62-.02,1.25.64,1.55.79.35,1.79.61,2.35-.05.42-.49-.32-1.27-.76-1.67-1.33-1.19-2.44-2.4-2.81-4.28-.36-1.85.31-3.82,1.96-4.6,1.18-.55,2.29-3.06,1.76-4.14-.26-.52-.29.14-.46.18-.11.03-.2.11-.3.18-1.75,1.13-2.37.57-2.28-1.41.08-1.68.07-3.35.81-4.92.4-.85.91-1.17,1.7-.47,0,0,0-.01,0-.02.01.01.02.02.03.03.1-.31.17-.94.59-.58.8.67,1.51.23,2.23.04.62-.16,1.08-.13,1.11.57.02.5,0,.92-.8,1.14-1.46.4-2.26-.33-3.13-1.17,0,0,0,0,0,0,0,0-.02-.01-.03-.02,1.11,1.57.73,3.37.79,5.11.03.78.63.57.9.41.47-.27,1.18-.74,1.17-1.11-.07-2.65,1.16-1.53,2.35-.93,1.08.54,1.45.05,1.28-1.06-.16-1.08-.26-2.15-1.64-2.42-.37-.07-.82-.37-.75-.82.08-.55.58-.2.89-.25,1.01-.16,1.52-.97,2.13-1.62.23-.24.43-.38.69-.23.11.06.18.44.11.52-.59.62-.18,1.72-1.05,2.18-.32.17-.24.23-.03.48,1.47,1.73,1.22,3.66.61,5.63-.11.35-.39.63-.71.41-1.25-.86-2.26-.24-3.28.45-.2.13-.68-.09-.58.36.04.2.4.33.62.48.1.06.23.07.34.12.75.37,1.51.74,2.26,1.11-.68.6-1.38-.12-2.09.04-1.1.24-1.73,1.13-2.54,1.73-.43.32.47.43.75.64.45.34,1.39.32,1.32.97-.05.48-.89.28-1.38.36-.85.14-1.18.76-1.36,1.49-.26,1.01-.45,2.03-.21,3.07,0,.03.29.07.36,0,1.33-1.18,3.55-1.6,3.43-4.04-.02-.33-.05-.99.48-.92.55.07.21.67.19.99-.28,3.71-.04,7.41.27,11.1.02.28.03.56-.02.83-.07.37-.21.73-.32,1.1-.5-.17-.38-.67-.48-1-.35-1.14-1.38-1.52-2.28-1.74-.8-.2.01.73-.35,1.1-.24.24-.14.95-.36,1.04-.42.18-.62-.38-.85-.68-.84-1.08-1.7-.47-2.56-.08-.22.1-.65.12-.42.53.45.79,1.1,1.2,2.06,1.15.85-.05,2.26-.59,2.36.47.08.88-1.3.5-2.1.48-1.42-.05-3.84,2.91-3.82,3.99.03,1.72-.08,3.5,1.19,5.49-.14-.88-.27-1.28-.25-1.67,0-.23.19-.55.39-.64.3-.15.51.14.62.4.35.79.56,1.73,1.77,1.56.04,0,.2.26.16.31-.1.15-.25.35-.4.36-.51.04-1.03.02-1.72.02.79.62,1.45.74,2.28.44.68-.25,1.51-.2,1.73.65.28,1.08-.83.99-1.25.9-2.47-.54-4.09.48-5.38,2.49-.27.42-.51.36.1.59,1.3.49,2.49.31,3.69-.27.26-.13.99-.55.74.23-.63,1.93.66,3.06,1.41,4.33.96-2.01,1.44-4.16,1.18-6.42,0,0,0,0,0,0h0c-.15.11-.31.2-.45.32-.46.4-.86.88-1.54.91.07-.28.08-.6.21-.85.43-.83,1.04-.93,1.78-.39,0,0,0,0,0,0,0,0,0,0,0,0,2.86,1.43,3.04,2.42.74,4.57-.89.83-1.38,1.57-.22,2.54.14.12.24.5.16.62-.98,1.48-.14,2.36.99,3.18.25.18.54.42.05.71-1.63.98-3.88.68-5.22-.78-1.29-1.42-3.05-.91-4.61-1.18-.46-.08-.16.38-.09.61.58,1.91,1.81,2.81,3.86,2.55,1.38-.17,2.53-.17,1.14,1.69-.46.61-2.04,2.07.76,1.8,2.16-.21,4.12-.19,4.45-2.99.09-.73.78-1.08,1.43-1.01.68.07.36.76.42,1.19.08.55,0,1.15.18,1.65.43,1.22,1.14,2.35-1.06,2.63-.35.04.1,1.59.51,2.35.16.3.52.48.79.72,1.14.46.56.86-.04,1.25-.25,0-.49.02-.74.02.15-.11.3-.22.45-.34.24-.21.32-.44.12-.72-1.41.5-2.63.85-2.62-1.44,0-1.11-1.76-1.37-2.64-.3-.78.93-1.5,2.01-1.87,3.15-.43,1.31.9,1.53,1.75,1.96.48.24,1.31.24.62,1.16-.38.5.34.56.52.84.14.22.45.47.68.18.11-.14-.06-.49-.08-.74-.04-.59-.16-1.19-.08-1.76.1-.7.4-1.17,1.13-.38,1.12,1.22,2.91.66,4.19,1.49.97.17,1.94.37,2.91.51.57.08.95.47.94.91,0,.61-.74.54-1.03.44-1.1-.36-2.42-.37-3.1-1.58-.86.21-2.47.51-2.46.62.24,1.96-1.1.62-2.11,1.01,2.42.05,1.75,1.21,1.53,2.41-.12.65.4,1.42.66,2.13.44,1.2.2,1.71-.93,2.19-.43.18-.19.52.05.77.47.48.78,1.02.08,1.5-.66.45-1.46.44-1.97-.16-.6-.71-.66-1.74-.39-2.55.23-.68.58-1.25-.17-1.63-.81-.42-1.82-.48-2.4.32-.54.75-1.19,1.03-2.01,1.27-1.62.48-2.1,2.52-.85,3.65.25.22.93-.06,1.42-.08.53-.02.24.6.55.76.17-.03.34-.06.51-.08-.1.11-.2.21-.3.32-.43.41-.87.81-1.3,1.23-.3.29-1.06.35-.57,1.03.39.54.87.58,1.46.2.36-.23.68-1.03,1.25-.39.51.57.57,1.14.32,2.03-.65,2.25-2.59,2.32-4.21,2.95-.52.2-.88.02-1.09-.57-.49-1.36-3.59-2.56-4.91-1.94-.1.05-.2.23-.2.34.07,1.79,2.53,3.39,4.27,2.81.31-.1.73-.16,1.01-.04.44.2.04.56-.02.83-.35,1.36.18,2.6.46,3.88.08.37.22.54.5.15,1.13-1.59,3.62-2.41,2.85-5.1-.14-.47.23-1.04.76-1.04.64,0,.8.66,1.07,1.14.12.22-.13.65.3.64.14,0,.25-.38.42-.52,1.93-1.58,3.28-3.42,3.07-6.11-.04-.57.47-.23.63,0,.62.88,1.2,1.74.75,2.96-.66,1.8-1.22,3.59-2.5,5.11-.93,1.11-1.28,2.55-1.59,3.97-.68,3.09-3.17,4.98-6.31,4.62-1.37-.16-2.71-.09-4.06-.08-.08,0-.18.04-.24,0-2.07-1.03-4.47-.46-6.57-1.36-.18-.08-.33-.21-.49-.31.13-.18.23-.4.4-.52.68-.5,1.49-.51,2.86-.51-1.56-.59-2.47-.23-3.36.25-.63.34-1.25.67-1.89.98-.18.09-.38.11-.58.16.12.15.22.35.38.45,1.72,1.08,3.34,2.37,5.54,2.33.33,0,.83-.1.87.38.02.22-.31.55-.56.69-1.65.93-3.26,1.79-5.19.44-1.34-.94-4.06-.43-4.6.63,0,0,0,0,0,0,0,0,.01,0,.02.01.03,0,.05,0,.08-.01.62-.1,1.25-.26,1.76.28.04.04,0,.26-.05.27-.7.18-1.29-.06-1.79-.54-.01,0-.03,0-.04,0,0,0,.01-.01.01-.02-2.03-.17-2.47-.98-1.52-2.76.42-.78.16-1.55-.16-2.29-.05-.12-.4-.24-.42-.21-.45.58-1.18.98-1.17,1.86,0,.55.68,1.42.08,1.54-.65.13-1.09-.87-1.27-1.52-.63-2.28-2.17-3.17-4.4-3.22-.45-.01-.73-.08-.55.47.39,1.24.88,2.4,2.31,2.81.41.12.79.32,1.18.48-.39.22-.78.47-1.19.65-.18.08-.52-.07-.36.35.09-.04.18-.08.27-.12,0,.12,0,.24,0,.36-.94.39-.93.38-1.37-.48-.03-.06-.4-.05-.49.04-.61.65-1.88,1.55-1.52,2.02.53.68,1.85.71,2.87.24.68-.32,1.17-.86,1.38-1.57.43-1.46,1.37-1.2,2.15-.52,2.22,1.92,4.66,3.15,7.66,3.08.23,0,.47.19.71.3-.17.15-.32.32-.5.45-.53.4-1.19.66-1.48,1.33.05.05.1.09.15.14.39-.27.78-.55,1.18-.82l.24-.17c.11-.01.22-.02.33-.04-.06.07-.11.14-.17.22-.06.1-.12.21-.18.31-1.99,2.72-3.82,5.51-3.92,9.05,0,.28,0,.57.07.83.16.52.37,1.03.56,1.54.56-.42.02-.94.12-1.42.16-.81.68-1.33,1.24-1.86,1.45-1.35,2.1-2.85,1.49-4.92-.58-1.99,1.12-3.1,2.33-4.2.59-.53,1.44-1.79,2.18-1.18.57.47-.58,1.46-.99,2.18-1.38,2.43-1.81,4.95-1.01,7.65.09.29.03.69.45.7.07,0,.24-.46.22-.7-.07-.94.35-1.71.81-2.46.56-.92.86-1.94.63-2.98-.54-2.48.94-4.07,2.36-5.7.22-.25.57-.57.9-.27.12.11-.05.57-.14.85-.29.99-1.67,1.93-.82,2.88.48.53,1.11-1.03,2.01-1.18,2.56-.41,4.36-1.5,5.31-4.27.31-.91,2.86-1.07,4.4-1.5.24-.07.27.34.16.56-.17.32-.46.58-.56.91-1.01,3.08-2.39,5.54-5.85,6.82-2.25.83-2.61,3.89-1.57,6.22.75,1.68.92,3.73,3.25,4.39.65.18-.26.82-.61.93-1.54.51-3.13.91-4.69,1.38-.75.23-1.56.4-1.95,1.22.41.08.83.16,1.24.25-.31.24-.58.57-.93.7-.33.12-.84.18-.75-.49-1.02.27-1.15,1.44-1.96,1.97-.3.19.22.37.45.45,1.49.54,2.6-.16,3.66-1.11.24-.22.73-.48.91-.38.41.23.03.63-.07.94-.53,1.55-1.3,2.85-2.39,4.2-1.13,1.39-2.06,3.92.12,5.79.27-.2,0-1.26.86-1,.71.21.82.96.71,1.61-.2,1.19-1.11-.18-1.51.38l-.02-.02c.52,1.12-.5,1.8-.98,2.34-1.01,1.14-.5,1.34.55,1.38,1.57.07,3.25.33,4.15-1.5.17-.34.41-.53.76-.34.43.24.15.58,0,.82-1.75,2.53-2.26,5.41-2.42,8.39-.07,1.28-.64,2.08-2,2.24-1.27.15-1.82,1.15-2.37,2.15-.34.62-.72,1.22-1.13,1.8-.21.3-.95.14-.83.63.05.22.73.36,1.14.41,2.91.36,3.9-.36,4.53-3.23.08-.37,0-.88.53-.91.1,0,.33.58.34.89.14,2.87.27,5.74-.83,8.5-.25.63-.56,1.12-1.16,1.41-.02.02-.02.04-.03.05-.01.03-.02.05-.03.08,0,.14.25.15.25.26-.02.7-.1,1.4-.65,1.92-.05.04-.25,0-.25,0,0-.66-.05-1.33.5-1.85.08-.08.12-.2.16-.32,0-.03.02-.06.03-.08,0-.02.01-.05.02-.07-.86.08-1.24.74-1.46,1.41-.51,1.54-1.6,2.54-2.89,3.38-.15.1-.28.24-.42.36.13.08.27.24.39.22,1.55-.24,3.17-.3,4.62-.83,1.12-.41,1.6-1.59,1.4-2.91-.08-.55-.07-1.12,0-1.67.07-.66,0-1.71.64-1.77.6-.06.29.97.4,1.5.38,1.82,2.43,1.99,3.23,3.39.15.26.3-.06.38-.23,1.25-2.65-.1-5.03-3.06-5.32-.47-.05-.55-.38-.53-.64.3-4.98-1.52-10.02.58-15.01-.04,1.53-.02,3.03,1.88,3.38.52.1.88.07.55-.64-.42-.9-.72-1.83-1.35-2.65-.94-1.24-.15-2.42.4-3.56.09-.17.42-.32.39-.03-.12,1.19.94,1.57,1.45,2.33.27.41.41.91.61,1.38.3-.48.65-.94.91-1.45.74-1.46,1.49-2.77.09-4.49-.66-.81.51-2.25,1.15-3.09.84-1.09,1.22-2.08.91-3.38-.07-.3-.18-.7.23-.82.45-.13.5.3.59.58.49,1.53,1.4,2.81,2.18,4.17.62,1.09.69,2.84.31,4.33-.19.73-.28,1.48-.44,2.22-.06.27.16.73-.3.75-.12,0-.36-.52-.36-.8,0-.55.03-1.14.23-1.63.74-1.82-.84-2.66-1.56-3.86-.03-.05-.3-.04-.36.02-1.22,1.44-.96,4.74.63,5.92,1.92,1.43,1.5,3.77,2.37,5.6.17.35-.91.49-1.55-.09-.85-.77-1.77-1.17-2.92-1.12-1.38.06-2.48.53-3.13,1.83-.16.32-.43.59-.55.92-.21.56-1.47.45-1.07,1.05.45.67,1.49,1.08,2.37.88,1.77-.41,3.92.15,5.05-2.02.31-.6,1.09-.25,1.64-.03.5.2.57.64.49,1.1-.03.17-.18.47-.24.46-2.85-.38-2.45,1.9-2.85,3.5-.07.26-.06.58.03.83.17.54-.53,1.4.13,1.56.61.15,1.31-.49,1.72-1.11.31-.46.49-1.08,1.23-.88.8.22.53.95.66,1.5.57,2.4-.25,4.65-1.07,6.76-.31.8-2.03,1.05-3.11,1.56-.28.13-.65.23-.78.46-.31.57-.79,1.04-1.3.6-.59-.52.06-1.09.44-1.48,1.13-1.17,2.96-1.13,4.01-2.47-1.65,1.13-3.95,1.11-5.11,3.13-.62,1.08.67,1.83.42,2.85-.08.35.16.7-.29,1.04-1.42,1.08-1.23,3.07.35,3.94.4.22.66.38.43.9-.62,1.4.53,1.58,1.39,1.94.08.03.21-.02.31-.04-.17-.19-.33-.52-.53-.56-.65-.11-1.13-.29-.84-1.06.29-.79.78-.76,1.51-.47,1.01.41,2.1.67,3.21.26.94-.35,2.18.12,2.26.66.14.92-.91,1.49-1.83,1.7-.77.18-1.59.27-2.38.24-2.26-.08-3.13,1.44-3.74,3.2-.22.63-.16,1.35-.87,1.73-.1.05-.12.25-.17.38.17.03.36.12.51.07,2.43-.69,4.81-1.26,5.25-4.51.15-1.13,1.96-.52,2.97-.87.61-.21.93.51.8,1.14-.17.84.57,2.15-1.13,2.26-.57.04-1.13.28-1.4.81-.56,1.08-.52,2.49-1.82,3.19-.15.08-.17.88,0,.98,1.31.88.63,1.62.05,2.56-.43.69-.36,1.69.34,2.19.75.53,1.69.85,2.68.81.11,0,.21-.26.32-.41-.4-.11-.68-.42-1.18-.42-1.02,0-1.93-.45-1.71-1.7.22-1.22,1.21-1.48,2.29-1.41.43.03.27.26.08.45.07.07.15.14.22.21.23-.03.66-.11.67-.07.13.48-.56.41-.52.45.63.66-.21,1.74.53,2.24.92.62.69,2.57,2.49,2.14,0,0,.19.38.13.5-.3.63-.99,1.1-1.52.95-1.82-.5-2.98.38-4.07,1.59-.18.2-.47.29-.7.44-.46.29-1.27-.3-1.4.34-.05.25.85.72,1.34,1.05,2.09,1.41,4.79.42,6.12-2.21.18-.35.16-1.19.82-.84.48.26.35.99-.02,1.39-1.12,1.21-1.3,3.02-2.63,4.11-.18.15-.23.49-.27.76-.04.24.22.63-.22.65-.19.01-.48-.28-.57-.5-.29-.67-.85-.8-1.47-.81-.43,0-1.09.01-1.06.48.03.39.58-.06.91-.02.3.04.74-.12.83.28.25,1.14,2.7,1.88.61,3.38-1.09-2.67-1.09-2.66-3.8-1.36-.35.17-.84.04-1.27.04,0,0-.06-.29-.01-.32.51-.36.99-.85,1.69-.74.35.05.85.4.94-.07.05-.27-.22-.91-.99-.83-.91.1-1.92-.83-2.76.23-.11.14-.44.43-.05.51.36.07,1.07-.6.93.31-.07.46-.79.88-1.27,1.28-1.22,1-2.48,2.06-3.09,3.62-.38.97.21,1.48.88,1.98.37.27.3.6.09.95-.42.68-.84-.16-1.26.01,0,.01.01.02.02.03,0,0,.01,0,.02.01,0,0,0,0-.01,0,.12.21.25.42.37.63-.24-.03-.49-.06-.73-.08-1.02-.06-2.04-.12-2.99-.18.99-.76,2.2-.3,3.35-.37h0c-1.5-.97-3.06-.3-4.59-.18-.26.02-.32.28-.17.44.51.53.06,1.67.89,1.82.6.11-.26-.54.07-.74.7-.41,1.38.03,2.04.17.44.1,1.37.17,1.1.76-.22.5-.55,1.83-1.77.97-.1-.07-.27-.06-.41-.09.08.16.13.38.26.47,1.18.85,2.24.55,3.23-.36.14-.13.32-.2.49-.3,0,.19.08.41,0,.56-1.49,3.08-3.41,5.79-6.73,7.13-1.31.53-2.59.81-3.38-.96-.43-.94-1.36-1.15-2.37-.73-.44.18-.91.27-1.36.43-.47.17-1.25-.33-1.38.24-.13.58.69.77,1.14,1.05,1.05.66,2.14,1.28,3.52.86-1.58.98-2.79,2.15-2.83,4.13,0,.36-.24.85.4.55,1.58-.72,3.41-1.27,3.29-3.55-.04-.75.39-.72.89-.76,1.64-.11,3.08-.74,4.4-1.7.31-.23.68-.38,1.02-.57.23.55,0,1.07-.32,1.44-1.51,1.73-1.06,3.31.19,4.95.5.65.65.47.9-.1.73-1.69,1.35-3.37-.1-5.03-.3-.34-.22-.77-.02-1.13,1.14-2.1,2.28-4.2,3.45-6.29.25-.44.6-.9,1.24-.69.17.05.45.2.46.3,0,.55-.55.61-.87.87-1.41,1.13-.86,3.02-1.75,4.34.08.05.15.13.24.16,1.16.28,5.05-1.62,5.46-2.89.43-1.34.59-2.7,2.52-2.24.05.01.14-.12.22-.19-.13-.08-.26-.16-.4-.23-.39-.18-.93-.32-.82-.86.1-.51.65-.19.99-.29.89-.28,1.8-.48,2.32-1.38.08-.14.28-.21.42-.31-.01.18,0,.37-.05.54-.05.19-.12.42-.26.53-1.63,1.26-1.14,3.26-1.74,4.88.17-.19.35-.38.52-.57.26-.29.51-.59.77-.88.09.09.28.21.26.27-.11.41-.18.87-.43,1.18-.3.37-.87.51-.96,1.11-.02.1-.38.27-.48.22-.53-.3.09-.78-.14-1.15-.73.63-1.07,1.45-.43,2.21.72.84,1.13,1.67.72,3.14.62-.75.4-1.57,1.19-1.64-.35,1.36,3.11.49,1.65,2.59.27.11.54.24.81.38.15-.45.81.08,1.21-.01.98-.24,2.55-.25,2.81-.83.9-1.99.79-2.11,1.9-1.16.06.05.21.06.27.01,1.3-1,2.3.21,3.37.54.64.2.69.09.65-.41-.11-1.68-.97-2.89-2.36-3.78-.35-.23-.8-.4-1.02-.7-.13.05-.27.09-.39.11-.41.06-.47-.29-.57-.61-.22-.76-.44-1.51-1.23-1.96-.36-.2-.21-1.06-.98-.87.17-1.22.71-1.08,1.4-.37h0c-.08-1.11-.73-1.13-1.53-.74-.35.17-.58.84-1.06.38-.25-.24-.38-.7-.4-1.07-.04-.53.44-.74.85-.86.77-.22,1.45-.58,2.16-.96,1.02-.54,2.84-.09,2.73.54-.28,1.62,1.66,2.2,1.27,3.72-.09.37.34,0,.46-.18,1.23-1.7.4-3.74-1.93-4.56-.68-.24-1-.37-.43-1.08.83-1.03.86-2.36,1.06-3.59.07-.43.31-1.39-.31-1.53-1.74-.38-5.09,2.99-4.78,4.9.23,1.4.99,2.77-1.49,2.23-.07-.02-.26.21-.29.35-.14.85-.59.71-1.19.46-.88-.38,0-.74-.04-1.1-.02.01-.03.03-.04.04,0-.01,0-.03,0-.04-.41,0-1.01.14-.86-.53.14-.61.48-1.26.94-1.67.18-.16.25.53.2.85-.07.45-.18.9-.28,1.35.01,0,.02,0,.03,0,0,0,0,0,0,0,.95-.73.8-1.62.39-2.6-.84-2.02-1.76-4.02-2.1-6.2-.17-1.1.84-1.75,1.32-2.6.04-.07.26-.11.35-.06,1.28.67,1.38,2.86.2,3.65-.18.12-.31.33-.4.52-.03.07.16.34.19.33,1.07-.38,2.18-.85,2.4-2.08.1-.56,1.27-1.9-.75-1.77-.5.03-.68-.7-.86-1.18-.05-.13,0-.43.04-.44.58-.12.3.61.71.73.32.1.59.34.89.52-.03-.38.01-.78-.12-1.13-.5-1.38-1.09-2.73-1.58-4.11-.16-.43.06-.88.44-1.16.11-.08.43-.07.5.02,1.07,1.33,2.33,2.56,3.11,4.04,1.11,2.1,2.25,3.85,4.99,3.5.22-.03.5-.13.58.21.03.1.02.29-.04.33-1.87,1.12-.18,2.17.08,3.23.04.16.32.27.48.4,0-.19.03-.39,0-.58-.24-1.18-1.1-2.37.39-3.42.36-.25-.05-.88-.4-1.25-.27-.28-.76-.6-.53-.97.27-.44.78-.07,1.19,0,.22.04.43.06,1.09.14-.58-.31-.77-.42-.97-.52-.7-.37-2.14-.64-1.95-1.12.3-.75,1.55-.74,2.47-.74,1.04,0,2.64-2.24,2.27-3.22-.04-.1-.26-.24-.31-.21-1.15.62-2.67.34-3.54,1.71-1.1,1.75-5.58,1.75-6.84.08-.15-.2-.19-.49-.28-.74.26-.01.54-.11.77-.03,1.3.43,2.54.02,3.75-.33.58-.16,1.08-.62,1.01-1.38-2.01.48-2.13-1.72-3.33-2.34-1.06-.56-1.42-1.15-.66-2.26-.46.29-.91.54-1.11.91-.24.47-.56.72-1.01.67-.7-.08-.37-.69-.4-1.06-.07-.95.33-2.09-1.17-2.29.34-.57-.91-.97-.2-1.52.53-.41,1.49-.55,1.68.02.36,1.07,2.19.49,1.96,1.97.12-.03.27-.02.35-.09.93-.87,1.9-1.61,3.22-.75,1.13.73,2.76.46,3.65,1.25,1.91,1.7,5.31,1.54,6.65-.64.09-.14.17-.41.1-.52-1.06-1.62-4.65-1.91-6.19-.45-.61.58-1.08.51-1.88.39-1.36-.21-1.43-1.52-2.28-2.05-.83-.52-1.91-1.52-2.74-.55-.37.43-.58.28-.86.35-.5.12-.41-.31-.43-.57-.04-.51.15-1.22.62-1.12,1.2.25,2.23-.04,3.39-.2,1.75-.25,2.21-1.53,3.16-2.44.05-.05-.04-.37-.15-.45-.88-.67-4.06-.35-4.75.46-1.47,1.75-1.97,1.67-2.79-.39-.14-.35-.34-.9-.58-.95-.66-.12-.34.74-.66.91-.58.31-.29,1.46-.91,1.28-.46-.13-1.35-.65-1.02-1.64.04-.13.45-.8-.25-.77-.44.02-.71.38-.65.85.05.39.21.77.27,1.16.09.64-.36,1.27-.79,1.31-.66.07-.42-.68-.46-1.09-.04-.47.08-.96.02-1.43-.13-1.04,1.8-3.07,2.87-2.99.3.02.26.18.27.39,0,.31-.49.56-.12.91.21-.32.46-.63.61-.97.21-.52.41-1.11-.11-1.56-.56-.48-.91.21-1.37.35-.37.11-.68.48-1.11.26-.1-.05-.15-.17-.23-.26,1.12-.42,1.71-1.45,2.53-2.22.09.1.2.2.28.32.2.31-.45,1,.33.98.54,0,.63-.59.73-1.09.05-.25.4-.6.63-.61,1.77-.11,1.5-1.37,1.36-2.45-.1-.72-.21-1.53-.96-1.97-.1-.06-.42.02-.42.06-.1.79.46,1.29.85,1.85.35.49.45,1.07-.06,1.35-.52.29-.81-.29-1.03-.72-.61-1.15-.97-2.47-2-3.35-1.13-.96-1.2-.98-.93-1.13.79-.45,1.56-.22,2.23.25.26.18.38.59.65,1.05-.07-1.27-4.01-3.76-4.82-3.15-1.06.81-1.38-.03-1.69-.63-.8-1.56-.12-3.26-.27-4.9-.06-.31-.1-.57-.15-.83.08.27.12.55.15.83.04.25.09.53.16.88.23-1.24.32-2.15.61-2.98.11-.31-.75-.86.13-.8.49.04,1.18.3,1.09,1.13-.09.83-.18,1.67-.19,2.5-.02,1.09.93,1.77,1.23,2.74.64-.58,1.66-1.05,1.86-1.75.57-1.97,1.62-2.97,3.71-2.76.03,0,.06-.1.13-.22-1.34.11-1.78-.53-.95-1.5.53-.63,1.48-1.15,2.38-.93.93.23,1.4-.27,1.89-.8.57-.62.02-1.1-.33-1.57-.26-.35-.24-.67-.13-1.1.44-1.68.45-2.99-1.69-3.81-1.1-.42-2.4-.92-3.32-1.78-.98-.91-1.75-.73-2.52.16-.19.22-.21.69-.65.48-.9-.41-1.76,0-2.5.28-.99.38-.95.01-.91-.72.09-1.66-.18-3.29-.99-4.75-.75-1.36-.37-2.73-.26-4.1.04-.46.35-.68.74-.38.9.69,2.23.4,3,1.36.08.1.27.1.41.15-.03-.17,0-.42-.09-.5-.86-.65-.69-1.54-.59-2.42.14-1.18.45-2.38-.1-3.53-.15-.31-.47-.86-.56-.83-.45.15-.21.59-.2.91.03.85.1,1.69.16,2.53.02.31.2.73-.16.85-.43.14-.67-.31-.72-.63-.21-1.45-.49-2.91.03-4.37v-.02c.35-.44-.64-.74-.16-1.12.14-.11.73.04.82.22.83,1.6,2.98,2.42,2.68,4.71-.07.51.35,1.13.65,1.64.27.47.68.86,1.03,1.28.43-.49.08-1.05.15-1.58.04-.33-.16-.83.27-.93.43-.09.5.42.65.73.56,1.13,1.22,2.26,2.52,2.55,1.35.3,1.57,1.02,1.43,2.24-.24,2.07.56,3.59,2.65,4.23.55.17,1.19.91,1.59.49.39-.41-.63-.7-.72-1.26-.09-.55-.23-1.1-.43-1.61-.22-.58-.21-1.34-.98-1.58.01.43.78.76.29,1.15-.36.28-.64-.25-.85-.58-.27-.43-.4-.78.27-.86-.19-.17-.38-.32-.55-.51-.3-.31-.75-.95.05-.83,1.18.18,2.42.63,3.42,1.29,2.22,1.46,4.62,1.22,6.25-.84.15-.19.34-.52-.03-.48-2,.21-3.87-1.66-5.92-.41-.91.56-1.83.45-2.76.16-.31-.1-.79-.3-.83-.51-.07-.43.43-.47.75-.61.21-.09.4-.21.6-.31-.12-.08-.24-.22-.36-.21-1.12.05-1.73-.75-2.35-1.46-1.04-1.19-2.24-1.89-3.89-2.05-1.69-.16-3.01-1.16-3.82-2.72-.22-.42-.36-.65.37-.6.95.06,1.97.26,2.83-.43-2.26.17-4.4-.12-6.24-1.59-.19-.15-.28-.44-.42-.66.21-.05.44-.16.64-.13,2.19.37,4.13,1.83,6.49,1.45.02.13.04.26.05.4.72-.08,1.12-.66,1.62-1.07-.42-.11-.85-.19-1.26-.33-.17-.06-.53.04-.43-.36l-.03-.04c.05.79-.7.68-.84.46-.58-.97-1.87-.82-2.49-1.72-.31-.45-1.41-.77-1.19-1.04.38-.47,1.26-.32,1.94-.14l-.03-.03c-.46-.21-.92-.42-1.38-.61-.38-.15-.86-.3-.6-.81.25-.49,1.11-1.12,1.22-.9.88,1.72,2.66.45,3.81,1.24.43.29,1.23.04,1.86.03,0,0,.06-.23.01-.27-1.8-1.6-1.09-1.79.79-1.47.19.03.5-.64.75-.99,0,0-.01,0-.02,0,0,.01,0,.02-.01.03,0-.01,0-.02.01-.03-.92.12-1.21-.74-1.78-1.16-.24-.18-.17-.43.08-.58.35-.2.75-.42,1.1-.09.45.43.88.9.71,1.55.6-1.59-.72-2.04-1.83-2.62,0,0,0,0,0,.01-.01,0-.03,0-.04-.01-.21.38-.44.81-.95.67-.3-.08-.54-.39-.77-.63-.06-.06-.01-.3.06-.39.27-.3.54-.15.84.03.25.15.54.22.82.32,0,0,0,0,0-.01,0,0,.02,0,.03.01-.64-1.3-1.41-2.07-2.77-.71-.18.18-.6.21-.89.16-1.45-.22-1.74.58-1.41,1.7.33,1.09.06,1.82-.84,2.48-.63.47-1.15,1.09-1.74,1.63-.19.17-.44.27-.67.4-.05-.29-.19-.6-.14-.88.05-.33.26-.63.53-1.22-.35.29-.45.38-.56.47-.81.69-2.5,1.08-2.57.49-.21-1.74-1.16-.74-1.81-.83-.11-.02-.22-.05-.33-.07.06-.13.07-.32.17-.39.81-.5,1.61-1.04,2.47-1.44.5-.24.91.01,1.02.63.06.32-.71.64-.12.83.56.18.51-.53.73-.87.55-.85.23-2.08.63-2.61.6-.8,1.88-1.18,3.06-1.27,2.25-.17,2.86-1.61,2.69-4.19-.41,1.81-1.17,2.73-2.37,3.19-.34.13-.72.8-1.1.24-.27-.41.39-.58.57-.91.18-.34.65-.73.58-.99-.46-1.76.43-1.91,1.81-1.75.15.02.92.17.97-.53.03-.54.13-1.08.19-1.62-.4.12-.79.28-1.2.35-.62.09-1.47.39-1.82.11-.57-.46.18-1.12.34-1.7.24-.88.59-1.74.89-2.6.09-.25.08-.6.5-.49.72.18,3.19,4.01,3.01,4.76-.38,1.56.29,2.61,1.5,3.47.34.24.68.54.92.88.21.29.04.88.5.94.13.02.39-.62.52-.98.12-.33.15-.7.22-1.05.04-.2.08-.41.12-.61.15.17.27.36.45.5,2.01,1.55,1.05,3.81,1.37,5.76.04.25-.29.61.11.72.18.05.53-.19.67-.39,1.07-1.51,1.45-1.22,1.56.49.03.46.6.9.98,1.3.13.14.42.14.64.2,0-.21.03-.43,0-.64-.32-1.8-1.71-3.03-2.45-4.62-.22-.47-1.03-.97-.61-1.34.44-.37,1.34.04,1.7.5,2.3,2.94,5.11,2.45,8.06,1.37.27-.1.59-.1.37-.52Zm-9.18-7.49c.17.08.27.19.05.31-.7.38-1.42.4-2.42.09.94-.26,1.58-.76,2.37-.39Zm-2.12-23.45c.24-.55.51-1.09.76-1.63.07.2.23.43.19.6-.14.53-.3,1.07-.91,1.46-.02-.19-.08-.33-.04-.42Zm-.44.82c.09.05.14.07.19.1-.07.13-.14.25-.22.37,0,0-.1-.04-.15-.06.06-.13.12-.26.18-.41Zm-3.48-13.53c.3.17.97-.15,1.02.43.03.41-.45.78-.93.72-.47-.06-1.01-.3-1.01-.83,0-.48.51-.34.91-.31Zm1.67-15.88c.1.92.85,1.31,1.47,1.82.3.25.51.6.82.97-.02-.06,0-.02,0,.02-.3.02-.62.12-.89.05-1.24-.35-1.55-1.47-1.92-2.51-.02-.05.34-.23.52-.35Zm.32,7.73s-.21.08-.24.05c-.59-.76-.68-1.64-.67-2.79.58,1,1.11,1.76.9,2.75Zm-2.42-17.22c.27-.08.31.14.3.47-.12.07-.29.2-.49.26-.03.01-.25-.29-.21-.36.07-.16.24-.32.4-.37Zm-12.84-75.31c.06.05.12.09.17.14.02,0,.03,0,.05,0,0,.01,0,.03.01.04.38.12.76-.52,1.15-.01.31.41.41.87.19,1.33-.11.21-.38.34-.58.51-.17-.33-.36-.66-.51-1-.11-.26-.17-.55-.24-.82,0,0-.02,0-.03,0-.01,0-.02-.02-.03-.03-.06,0-.12.02-.18.03,0-.05,0-.11,0-.16Zm-.76-1.74c.08.11.25.26.22.33-.15.36-.35.69-.53,1.03-.11-.07-.21-.15-.34-.24.24-.42.44-.77.65-1.12Zm-2.96,2.72c.29-.59,1.37-.3,1.71-1.07.24.22.73.56.69.65-.27.59-.48,1.3-1.84,1.28-.11,0-.72-.54-.56-.87Zm-18.71-14.31c.66-.28,1.06-.21,1.66.4-.7-.17-1.08-.26-1.66-.4ZM14.88,21.2c-.17.46-.38.89-.81,1.86.06-.82.02-1.09.1-1.3.15-.38.3-.86.6-1.05.21-.13.16.33.1.5Zm24.71,30.44c-.76-.25-1.08-.79-1.11-1.45-.03-.67.69-1.19,1.04-1.01.57.3.91,1.03,1.34,1.57-.44.3-.87.6-1.28.88Zm1.79-3.26c-.67-.82-1.62.42-2.3-.38.83-.23.64-1.57,1.6-1.55.62.01,1.27.29,1.37,1.06.05.42-.19.73-.67.87Zm.55,2.03c-.1-.11-.29-.23-.28-.32.02-.17.17-.32.26-.48.13.11.26.22.46.38-.19.18-.32.31-.45.43Zm3.32-12.28c0,.08,0,.17,0,.25l-.11-.17c-.05-.06-.09-.11-.14-.17.08.03.16.06.25.08Zm19.23.12h2.72c-1.23.42-2.02.29-2.72,0Zm3.15,1.57c-.18.42-.44.8-.7,1.27-.28-.33-.63-.57-.62-.78.04-.57.52-.67,1.02-.74.29-.04.39.02.29.25Zm5.67-7.14c-.72-.14-1.28-.57-1.77-1.09-.02-.02.23-.31.35-.47.79.26,1.36.65,1.7,1.32.01.03-.2.24-.27.23Zm3.33-20.9c.08-.32.57-.63.94-.76.36-.13.55.28.56.59.03.54-.42.45-.76.49-.3-.04-.83.05-.74-.32Zm-.61,3.64c.25-.32.8-.54.95-.04.23.78-.05,1.68.68,2.46-.19.07-.33.18-.4.15-.49-.26-1.16-.08-1.47-.83-.28-.7-.15-1.23.25-1.74Zm-2.74-3.62c-.49-.05-.63-.44-.62-.85.02-.55.26-1.1.86-1.05.57.04.32.68.44,1.01-.03.49-.04.97-.68.9Zm.66-3.15c.05-.47.35-.71.81-.66.53.06.86.38.85.94,0,.29-.06.62-.51.59-.28-.43-1.24.05-1.14-.87Zm.95,10.17c.51.04.38.61.6.91.18.26-.09.29-.28.28-.41-.09-.67-.35-.7-.72-.01-.15.26-.48.38-.47Zm-.66-6.47c.08-.38.3-.65.7-.57.51-.14.47.23.48.47.04.48-.3.6-.68.59-.29,0-.58-.11-.5-.49Zm-42.62-1.5c.09-.47.76-.15,1.16-.25.23-.05.48-.04.71-.06,1.23-.21,2.39,0,3.43.71.27.19.76.31.6.76-.14.39-.53.63-.96.57-1.33-.18-2.72-.17-3.93-.88-.39-.23-1.1-.35-1.01-.86Zm-1.07.49c1.52.97,3.09,1.81,4.91,2.08.89.13,1.75.5,2.38-.61.31-.55.9-.18,1.4,0,1.73.61,3.18,2.01,5.24,1.72.68-.09.4.42.13.67-.91.86-1.37,1.87-1.52,3.14-.09.73-.43,1.78-1.4,1.67-1.28-.15-2.69-.38-3.61-1.35-.34-.36.67-.69,1.03-1.06.23-.23.76-.32.54-.77-.07-.14-.56-.14-.85-.1-4.68.53-7.81-2.34-11.01-5.03-.14-.12-.12-.42-.17-.63.46-.1.91-.19,1.37-.29.62-.06,1.07.26,1.55.56Zm-1.61-1.06c-.35.04-.56.09-.77.09-.08,0-.16-.13-.23-.2.23-.06.45-.13.68-.16.06,0,.14.12.33.28Zm-18-3.96c-2.51-1.31-4.59-3.41-7.38-4.3-.14-.04-.21-.28-.32-.42.14-.04.28-.11.41-.1.79.05,1.55-.45,1.74-.36,3.25.47,5.76,1.1,8.1,2.36.14.07.36.13.39.24.03.11-.1.39-.19.41-1.35.25-1.27,2.95-2.75,2.18Zm2.96,4.33c-1.04.06-1.12-.75-1.34-1.41-.03-.09.17-.26.26-.4.67.48,1.51.85,1.93,1.49.24.36-.6.12-.85.31Zm8.11.06c-.66.14-1.32.26-2.04.39-1.57-.43-3.18-.91-4.58-1.85-.68-.45-.48-1.21-.4-1.87.07-.67-.27-1.2-.83-1.25-.68-.07-.24.64-.39.97-.15.33-.04.91-.64.79-.52-.11-.76-.45-.65-1.06.32-1.7,1.96-2.53,3.48-1.75,2.37,1.21,4.19,3.16,6.31,4.7.19.14.25.45.37.68-.21.09-.41.22-.62.26Zm2.14-.8c-2.65-1.98-5.11-4.23-8.16-5.63-.1-.05-.16-.21-.24-.31.12-.03.23-.05.37-.08.14.04.31.05.44.13,2.7,1.7,5.56,3.16,7.82,5.48.16.16.38.5.33.57-.21.28-.4-.02-.56-.14Zm-4.52-4.89c-.49-.39-1.58-.55-1.35-1.19.23-.61,1.25-.73,2.02-.75,1.47-.05,2.42.95,3.43,1.76,1.24,1,2.45,2.05,3.58,3.17.33.33,1.18.88.58,1.38-.54.44-1.55.76-2.2.07-1.75-1.87-4.1-2.88-6.06-4.44Zm8.92,12.06c-.53-.37-.4-.87-.44-1.53.57.57.56,1.01.44,1.53Zm16.55,4.76c-.07.48-.59.37-.9.28-1.88-.52-3.76-1.02-5.61-1.63-4.79-1.6-8.41-4.92-12.01-8.26-.13-.12-.19-.31-.58-.96,2.64,2.06,4.8,3.79,7,5.46,3.35,2.54,7.22,3.86,11.3,4.65.31.06.87-.09.79.46Zm-1.09-1.32c-.68-.4-.05-.98.05-1.48.68-3.32,2.84-5.17,5.98-6.04,2.18-.6,4.27.14,6.39.46,1.42.21,2.92.16.72,1.88-.91.72-1.63,1.86-1.71,3.18-.02.42-.3.42-.57.44-.53.03-1.08-.14-1.08-.7,0-2.33-2.65-2.5-3.37-4.22-.03-.07-.19-.08-.29-.12-.1.57-.2,1.14-.32,1.82,1.11,2.31-.09,2.87-2.23,2.85-.82,0-1.46.61-1.85,1.36-.4.75-1.07.94-1.71.56Zm7.3-4.17s.07-.14.11-.21c.44.23.87.47,1.69.91-1.06-.03-1.47-.29-1.8-.7Zm1.66,3.15c-.2.65-.89.51-1.31.82-.09.07-.23.07-.33.14-.63.46-1.29.8-2.1.52-.28-.1-.2-.31-.08-.47.56-.75,1.17-1.41,2.5-1.37.26.07.79.22,1.31.36Zm5.72.16c-2.52,1.67-5.25,2.54-8.31,2.76-1.05.08-2.14.41-3.24.34-.47-.03-1.15-.01-1.11-.62.04-.57.71-.3,1.11-.32.52-.03,1.04,0,1.56,0,3.41-.17,6.61-1.12,9.67-2.63.29-.15.59-.44.97-.18-.21.22-.4.48-.64.64Zm.94-1.73c-.37.18-.72.58-1.19.21,0,0,0,0,0,0l-.16.21s0-.01,0-.02c0,0,0,0,0,0,0,0,0,0,0-.01-.02-.07-.05-.16-.07-.16-.58.04-1.22,1.03-1.61.33-.33-.59.29-1.41.88-1.94.88-.8,1.69-1.71,2.81-2.18.25-.1.75-.08.86.08.27.39-.24.45-.43.67-.88,1.01-2.16,1.73-2.44,3.2,0,0,0,0,0,0,.06-.06.11-.13.17-.19,0,0,0,0,0,0h0s0,0,0,0c4.01-2.05,4.53-5.8,4.66-10.1.75,3.86-.43,8.42-3.46,9.88Zm13.93,3.35c-.02-.1-.03-.2-.05-.3.07.05.13.11.2.16.14-.05.62.57.39-.13-.21-.66-.68-1.22-1.35-1.54,0,0,0,.02.01.02-.01,0-.03-.01-.04-.02.11.62-.02,1.1-.74.64-3-1.93-6.25-2.79-9.81-2.35-.13.02-.27-.09-.41-.13.5-.84,1.01-1.68,1.51-2.52.23-.38.49-.43.9-.24,1.44.67,3.02,1.1,4.2,2.21,1.25,1.18,2.92,1.56,4.35,2.39,0,0,0-.01,0-.02.01,0,.02.01.03.02-.16-.3-.32-.61-.49-.91-.23-.39-.95-.55-.79-1.06.13-.41.71-.28,1.07-.16.59.19,1.3.35,1.31,1.16.01,1.44.36,2.4,2.11,1.8.43-.15.37,0,.26.41-.69,2.52-.66,2.53-2.67.59Zm5.31,10.59c-1.34-1.02-2.51.18-3.76.15-.25,0-.48.08-.21.43.16.21.91.27.32.72-.33.25-.67-.07-.81-.45-.13-.33-.6-.77.06-.95,1.05-.28,1.29-1.09,1.22-1.93-.13-1.57,1.21-3.21-.2-4.72-.03-.11-.06-.21-.09-.32l-.04-.03s0-.04,0-.06c-.05-.06-.11-.12-.16-.18.05-.02.1-.03.15-.05,0,.08,0,.15,0,.23,0,0,.02.02.03.03,0,.02.01.04.02.06.08.06.15.12.23.17.65.89,1.31,1.77,1.92,2.69.13.19.68.77-.25.67-.06.05-.12.1-.18.15.53.96,1.26,1.72,2.21,2.28.27.16.91.1.71.56-.16.39-.79.85-1.18.55Zm1.5,1.21c-.25-.03-.53-.3-.36-.61.15-.28.44-.49.67-.73.06.19.12.38.18.54-.26.27.14.87-.48.8Zm-10.17,51.27c-.1.1-.2.2-.29.3.06-.14.12-.29.17-.43.06-.05.12-.1.18-.15-.02.09-.04.18-.06.28Zm15.79-28.55c.06.05.15.09.16.16.01.06-.05.14-.08.22-.05-.05-.11-.1-.12-.15-.01-.07.02-.15.04-.22Zm-6.11,31.97c-.55.22-.49-.4-.59-.77.16-.34-.08-1.05.53-.97.54.07.89.7.98,1.23.12.72-.63.39-.93.51Zm2.69,20.08c-.51.47-1.07.88-1.95.74.6-.46,1.1-.87,1.63-1.24.31-.21.53-.98.97-.47.28.32-.35.7-.65.97Zm1.67.06c0,.09-.09.17-.14.26-.03-.14-.08-.28-.08-.43,0-.09.07-.18.17-.44.03.32.06.47.05.61Zm-1.87,8.94c-.56-.23-1.52-.41-1.55-.68-.06-.58.72-.82,1.23-.89.66-.09.52.66.71,1.03.13.25-.04.51-.4.54Zm1.52-.49c-.44.02-.61-.46-.65-.88-.04-.42.08-.94.53-.9.6.05.14.66.31.99-.14.25.53.76-.19.79Zm10.09,3.56c-.5-1.03-.79-1.61-1.07-2.2.17,0,.37-.04.52.03.85.36.47,1.09.55,2.17Zm1.06-16.17c.31.06.59.26,1.04.47-.41.35-.64.71-.93.77-.41.09-.6-.36-.66-.68-.05-.31.15-.64.55-.56Zm-1.27-5.97c.53.13.6.57.55,1.04-.04.35-.19.6-.57.74-.15-.45-.34-.9-.42-1.36-.02-.12.33-.45.45-.42Zm-.35,5.41c.41-.08.52-1.32.87-.63.47.93-.84,1.07-1.43,1.49-.17.12-.46.06-.59.07-.37-.06-.61-.22-.88.05-.36.38-.73.34-.91-.18-.17-.51.04-.9.59-.93.55-.03,1.1.03,1.65.07.23.01.47.1.69.06Zm-2.18-1.54c.12-.5.45-.84.96-.94.13-.03.44.17.43.23-.1.6-.7.69-1.01.99-.38.14-.43-.08-.39-.27Zm.56-8.36c.5.12,1.25.12,1.26.89.01,1.24-1.05.52-1.59.72-.52.19-.97-.25-.94-.74.03-.66.59-.88,1.28-.88Zm-.84,3.03c.66.14,1.65-.05,1.78.82.1.67-.74.41-1.16.55-.83.24-1.1-.4-1.28-.92-.13-.37.33-.52.65-.45Zm-.45,4.15c.14.21.19.53.16.79-.1.67-.7-.02-.96.36-.67-.16-1.39-.13-1.78-.9-.24-.48-.5-.92-.08-1.42.18.28.33.57.54.83.28.36.59.66,1.09.28.34-.26.76-.35,1.04.06Zm-1.69-4.38c.1.12.2.23.27.31-.03,1.01-.92,1.04-1.44,1.44-.04.03-.48-.29-.46-.36.25-.79,1.15-.85,1.63-1.38Zm-1.33-5.45c-.02.32-.05.63-.09,1.09-.21.58.35,1.88-.47,1.95-.69.06-.1-1.24-.34-1.9-.28-.76.05-1.42.52-1.96.27-.31.44-.05.38.83Zm.14-6.32c0,.07-.19.13-.29.2-.28-.5-.84-.9-.56-1.59.02-.04.05-.08.04-.11-.29-.91-.48-1.82-.06-2.75.1.06.26.1.28.17.31,1.35.75,2.68.6,4.09Zm6.12-15.94c-.14.11-.65-.04-.84-.23-.94-.96-1.83-2-1.64-3.47.06-.42.25-.93.85-1.04.87-.16.09.51.39.73,1,.73,1.56,1.81,2.04,2.92-.27.39-.47.82-.8,1.09Zm4.18,3.91c-.24.19-.2-.2-.21-.35-.02-.37,0-.73,0-1.53.32.58.52.77.51.95-.02.33-.07.77-.29.93Zm2.84-4.2c-.26.33.08,1.24-.72,1.06-1.37-.3-3.17.51-3.99-1.38-.12-.28.09-.29.33-.21,1.21.42,2.4.6,3.59-.15.68-.43.81.06.79.68Zm-2.7-1.26c-.24.18-.99-.12-.89-.47.24-.85,1.12-1.02,1.87-1.28.2-.07.46-.2.56.15-.51.55-.95,1.17-1.54,1.6Zm-1.8-7.27c1.21.36,3.09-.28,3.28,1.88.02.25-.08.5-.13.75-.1-.19-.22-.36-.28-.56-.41-1.2-1.31-1.51-2.46-1.4.43.55,1.21.86,1.2,1.72-.59-.42-1.19-.84-1.77-1.28-.1-.08-.09-.29-.13-.44-.41-.02-.81-.05-1.22-.07.13.58-.33,1.22.21,1.78.16.16.13.5.19.76-.15-.15-.32-.43-.45-.41-.73.08-.31.69-.44,1.06,0,0,.01,0,.02,0,0,.01,0,.02,0,.04.94.32,1.89.64,2.83.96,0,0,0-.01,0-.02.02,0,.03,0,.05.01.17-.24-.35-.73.14-.73.47,0,.95.32,1.41.54.05.03.07.34,0,.39-.57.45-1.04-.08-1.55-.2,0,0,0,.02-.01.02-.01,0-.02,0-.03-.01.21,1.53-.98,1.5-1.84,1.4-1.51-.18-.8-1.5-.99-2.36-.01,0-.02,0-.03-.01,0,0,0-.02,0-.02-.8.2-.86-.33-.97-.93-.37-2.05.97-3.43,2.94-2.85Zm-1.68-7.48c.23.07.64-.14.65.26,0,.3-.33.45-.61.34-.26-.1-.75.17-.77-.27-.02-.44.46-.27.73-.33Zm-1.72,2.54c1.06.55.91,1.56.71,2.53.58-.18,1.03-.84,1.74-.45.1.05.21.32.17.38-.51.67-.44,1.93-1.34,2.04-.86.11-.7-.9-.75-1.53-.57.8-1.63.01-2.23.7.06.06.12.12.18.17,1.95-.02.4,1.42.84,2.04.06.08-.1.36-.21.51-.35.45.71,1.53-.39,1.43-.96-.09-1.78-.7-1.88-2.1-.14-1.96.86-3.43,1.58-5.04.28-.6.92-1.03,1.59-.68Zm-1.29-4.31c-.13,1.91-.63,3.66-1.38,5.34-.06.13-.14.91-.55.22-1.07-1.78-.67-3.7-.24-5.52.1-.44,1.16-.81,1.83-.91.52-.08.28.59.34.87Zm-10.44-5.82c.27-.11.54.2.44.38-.2.36-.55.65-.87,1.01-.18-.22-.48-.43-.49-.65-.02-.58.55-.59.93-.74Zm-1,3.56c-.09-.4-.03-1,.43-.88.66.16.17.88.33,1.34-.22.35.33,1.18-.35,1.08-.74-.1-.3-1-.42-1.54Zm4.78,3.03c-.81.43-2.08.14-2.21,1.55,0,.02-.14.03-.21.03-1.15.12-.93-1.52-1.98-1.54.31-.65.94-.58,1.51-.65.06-.07.12-.13.18-.2-.88-.74-.11-1.55-.08-2.33,0-.04.2-.13.21-.11.37.46.74.93,1.08,1.41.03.04-.09.25-.17.27-.15.04-.44-.18-.41.15,0,.11.36.28.56.27.47,0,.93-.12,1.39-.15.51-.04,1.02-.04,1.52-.06-.46.46-.84,1.07-1.39,1.36Zm-3.26-5.08c.25-.27.62-.46.97-.61.09-.04.29.15.44.24-.34.23-.69.47-.91.62-.39.08-.63-.1-.5-.25Zm3.3,1.64c-.5-.09-.84-.4-.93-.92-.05-.29.07-.45.42-.4.45.23.8.58.95,1.09.01.04-.3.25-.43.23Zm.47,1.1c0,.06-.07.11-.12.17-.04-.09-.1-.19-.11-.28,0-.05.07-.11.14-.2.04.12.08.22.09.32Zm1.73,1.16c-.19.16-.33-.24-.23-.35.8-.84-.42-1.93.34-2.67.16-.16.42.44.42.87-.34.64.18,1.56-.52,2.15Zm.66-8.46c-.31.9-.67,1.79-1.05,2.67-.27.62-2.6.79-2.93.21-.37-.67-.9-1.08-1.64-.92-1.15.25-1.44-.24-1.27-1.18-.08-1.72.58-2.69,2.37-2.57.58.04.79-.26,1.03-.75.39-.81,1.19-.75,1.87-.44.8.37.2.68-.05,1.14-.4.72.26.78.75.69,1.07-.19,1.21.35.92,1.16Zm.08-2.37c-.7.25-.62-.64-.95-.98-.41-.43-.67-1.18-1.15-1.34-2.41-.81-2.68-3.06-3.56-4.92-.34-.73.17-.58.55-.61,2.92-.2,5.27,2.6,5.41,6.49-.07.43.23,1.15-.31,1.35Zm.6,3.04c.21-.93.52-.85,1.02-.28,1.27,1.48,1.7,3.3,2.09,5.04-.02.85-.49,1.24-1.14,1.46-.75.25-.54-.48-.76-.78-.12-.16-.17-.4-.32-.5-2.05-1.35-1.29-3.15-.88-4.95Zm.07,19.64c.58.18,1.06.65,1.59,1-.49.18-.98.35-1.49.53-.35-.2-.99-.04-.92-.69.05-.44.33-.99.82-.84Zm-2.05,8.09c.14-1.28.32-2.9.51-4.52.02-.16.18-.29.28-.44.07.08.22.18.21.24-.61,2.47.66,4.86.3,7.33-.17,1.17.2,2.45-.73,3.46-.61-1.04-.4-2.22-.55-3.33-.1-.78-.02-1.59-.02-2.73Zm-1.32,14.16c.5.16.89.49,1.06,1.07-.3.32-.59.63-.89.94-.22-.51-.47-1.01-.63-1.54-.09-.29.09-.59.46-.47Zm-1.44-1.33c.43-.09,1.04.19,1.09.71.06.56-.34.15-.75.08-.38.09-.98.95-1.46,0-.03-.07.69-.69,1.12-.78Zm-2.21,5.48c-.22-.48-.14-1.05.26-1.29.77-.46,1.64-.76,2.48-1.1.02,0,.18.3.22.37.03.78-1.96,2.55-2.58,2.39-.16-.04-.32-.22-.39-.37Zm2.74,2.49c-.62-.24-1.22-.53-1.83-.8.34-.72.99-.04,1.42-.32.64-.43,1.67-.34,1.72-1.55.03-.74.53-.22.69-.02.61.8-.15,1.57-.16,2.38,0,.51-.71.31-1.13.36-.24-.01-.5.03-.71-.05Zm1.05,2.51s-.02.05-.03.07c-.01,0-.02,0-.03-.01-.07.12-.14.23-.21.35-.03-.05-.1-.1-.1-.15,0-.23.09-.33.3-.2,0,0,0,0,0-.01.02-.02.03-.03.05-.04.03-.09.07-.17.07-.26,0-.42-.02-.83-.04-1.25.15.02.42,0,.43.06.14.56.46,1.21.3,1.68-.25.7-.35-.68-.75-.23Zm.59,5.03c.17,0,.35.13.7.29-.47.25-.62.39-.69.36-.16-.08-.27-.24-.4-.37.13-.1.26-.27.39-.28Zm-.79,3.58c-.28-.19-.03-.88.33-1.16.35-.27.52.21.75.36,1.13.77,1.78,2.24,3.39,2.3,0,.13.04.3-.03.39-.29.44-.6.87-1.24.71-1.6-.19-2.04-1.84-3.2-2.61Zm2.42,15.97c-.87-.41-2.18.12-2.61-1.14-.11-.31.42-.18.76-.23.58.87,2.12-.62,2.5.95.08.35-.29.59-.65.42Zm.59-3.33c-.52.08-.52-.33-.55-.68-.45.08-.69-.15-.66-.57.03-.46.44-.67.82-.76.68-.15,1.59-.11,1.8.48.26.74.56.6.83.25.61-.8,1.25-1.38,2.34-1.03.11.03.22.04.33.06-.09.16-.13.38-.26.48-1.38,1.03-2.98,1.51-4.65,1.78Zm1.94,2.86s-.68-.72-.79-1.17c-.13-.53.21-1.03.8-1.14.86-.16,1.88-.02,1.89-1.39,0-.1.54-.28.82-.28.26,0,.26.24-.04.48,0,.05-.01.24.05.27.43.21,1.11.53.61.97-1,.89-2.19,1.56-3.35,2.25Zm-10.12,10.78c-.38.44-.25,1.44-1.37,1.29-.51.08-.83-.23-.75-.86.11-.84.89-.75,1.44-.91.28-.08.94.18.68.48Zm-1.75,11.7c-.33.88-.66,1.77-1.12,2.59-.05.09-.28-.61-.33-.83-.17-1.11.39-1.66,1.14-2.07.22-.12.4.1.32.32Zm2.24-12.4c-.06-.53.1-1.04.66-1.08.56-.04.68.54.62.96-.06.43-.01,1.12-.57,1.16-.55.04-.74-.5-.71-1.04Zm2.06,8.8c-.24.38-.55.89-.86,1.4-.11-.08-.23-.16-.34-.24.52-.45.14-1.4.93-1.69.25-.09.33.12.28.52Zm.24-1.28c-.67.06-1.05-.97-.92-1.28.28-.67.81-1.38,1.63-1.54.79-.15.84.5.88,1.13-.01.99-.68,1.6-1.59,1.68Zm-29.79,13.48c.03-.06.05-.12.08-.18,0,0-.01,0-.02,0-.51.24-.97.08-1.45-.22.57-.38.96.3,1.45.22,0,0,.01,0,.02,0,0,0,0,0,0,0,0,0,0,0,0,0-.03.06-.06.12-.08.18Zm7.47,14.33c-.06-.06-.16-.11-.16-.17,0-.14.04-.28.09-.59.1.25.16.35.16.44,0,.11-.05.21-.08.32Zm9.88-11.25c-.15.03-.5.03-.3-.29.33-.52.85-.72,1.45-.63.2.03.37.17.83.4-.85.23-1.41.39-1.98.52Zm3.33-.04c-.7.36-1.09,1.31-2.1,1.17.47-.58.91-1.13,1.35-1.67.32-.4.76-.4,1.2-.33.11.02.2.1.3.16-.25.23-.47.52-.76.67Zm-4.18,36.43c-.22.15-.36-.21-.28-.46.15-.48.28-1.02.94-1.03.24,0,.48.07.45.32-.39.43-.69.89-1.11,1.17Zm-1.86,13.97c-.13.03-.25.13-.37.21,0,.02,0,.03,0,.05-.01,0-.02,0-.04,0-.03.05-.05.1-.08.14-.02-.05-.04-.09-.06-.14.05,0,.09,0,.14,0,0,0,.01-.02.02-.03,0,0,.02-.01.03-.02.04-.21.04-.43.14-.6.32-.52.4-1.23,1.09-1.46.06-.02.32.35.3.38-.4.48-.4,1.27-1.16,1.47Zm2.84,9.85c-.05-.09-.15-.19-.14-.28.01-.12.11-.24.17-.36.04.1.08.2.13.31-.06.12-.1.22-.15.32Zm2.73-3.2c.68-.5,1.05.27,1.46.58.2.15.31.67.22.94-.14.41-.53.35-.86.12,0,.01,0,.02,0,.03.04.14.08.28.11.42,0,0-.07.02-.1.04,0-.15,0-.3,0-.45,0-.01,0-.03-.01-.04,0,0,0,0,0,0,0,0,0,0,0,0,.36-.22.16-.37-.08-.45-.39-.12-.46.14-.5.45-.02.16-.1.32-.15.48-.09-.16-.29-.36-.25-.47.21-.54-.4-1.22.17-1.64Zm2.84-10.56c-.04-.09-.14-.2-.11-.26.29-.61.62-1.19,1.29-1.44.06-.02.19.15.37.29-.57.52-1.06.96-1.55,1.41Zm3.92.76c-.5.12-1,.24-1.34.31-.71.01-1.22-.22-1.26-.72-.05-.8.62-.29.96-.38.46-.12.92-.28,1.39-.34.38-.05.97-.44,1.12.16.12.48-.36.84-.87.97Zm-1.65,30.18c-.07-.2-.15-.41-.16-.44.06-1.12.6-1.7,1.38-2.11.04-.02.19.14.28.22-.66.67-.56,1.84-1.5,2.33Zm5.63,14.64s-.46.12-.29-.28c.15-.34.58-.58.92-.81.03-.02.29.27.44.42-.28.24-.23.85-1.07.67Zm1.04,22.6c-.24-.16-.44-.39-.66-.59.12-.11.3-.34.34-.31.26.14.48.34.84.61-.27.15-.46.33-.52.29Zm11.96.7c.21.22.35.34.45.49.02.03-.2.27-.24.26-.16-.07-.33-.18-.43-.32-.03-.05.11-.23.22-.43Zm-4.29-13.23c.12-.37.24-.8.71-.85.3-.03.23.22.2.39-.28.3-.09.89-.61.96-.33.05-.37-.26-.29-.5Zm-10.55-2.54c.56.25.72.7.8,1.17.02.13-.14.29-.22.44-.26-.41-.53-.8-.76-1.22-.04-.07.11-.25.18-.38Zm-1.24,3.58c.2-.29.46-.56.56-.88.35-1.12.32-1.11,1.13-.36.22.2.68.46.81.37.25-.17.44-.56.47-.88.05-.44-.07-.89-.12-1.34.08,0,.16,0,.23,0,.41.05.67.7.68,1.16.12,1.66-.09,2.1-1.41,1.65-.4-.14-1.29.79-2.14.78-.19,0-.37-.06-.56-.1.11-.14.24-.27.34-.41Zm-1.44-.08c.53-.02.54.33.6.64.08.44-.22.42-.51.42-.38,0-.61-.21-.66-.55-.06-.47.38-.4.57-.5Zm-1.83-2.02c.02-.12.32-.27.47-.25.49.06.11.39.14.61.03.02.06.04.08.09,0,0,0,.01,0,.02.28-.05.56-.11.85-.17-.14.32-.2.76-.45.93-.71.51-.31-.19-.35-.39-.03-.12-.03-.25-.05-.38,0,0-.01,0-.02,0-.04-.03-.05-.07-.06-.11-.22-.11-.72.22-.61-.36Zm-.25,3.67c-.13-.37-.33-.54-.71-.69-.66-.25-.83-.82-.52-1.45.22-.43.37-1.04,1.07-.88.92.21.29.84.37,1.3.14.83-.39,2.29,1.61,1.86-.85.79-1.45.93-1.83-.14Zm.28,8.27c0,.15-.33.4-.51.4-.36.01-.22-.34-.24-.54-.2-1.73.74-2.63,2.47-3.15-.95,1.03-1.64,1.99-1.71,3.29Zm1.35-4.3c-.61-.14-1.05-.48-1.13-1.06-.02-.19.37-.43.57-.64.41.79,1.54,0,1.72.58.16.51-.58.93-1.16,1.13Zm1.83-3.05c-.31-.02-.69-.12-.59-.56.11-.48.41-.15.92-.03.4-.24.99-.58,1.58-.92.18-.11.37-.41.57-.13.09.13.05.49-.07.62-.63.72-1.45,1.07-2.41,1.01Zm10.73,11.41c-.07.42-.08.91-.65.97-.35.04-.66-.12-.63-.51.04-.58.65-.61.89-.91.47-.05.43.23.39.45Zm-1.07-.92c.14-.16.27-.33.44-.46.04-.03.21.13.41.25-.22.17-.34.32-.5.36-.09.03-.23-.1-.35-.16Zm1.6-4.25c.36.24.96.25.89,1.06.01-.02-.06.09-.14.19-.33-.32-.66-.64-.97-.97-.01-.02.2-.28.21-.27Zm-.13,1.68c.14-.25.42-.07.42.12,0,.41.53,1.16.15,1.1-.58-.09-1.68.95-1.86-.58-.07-.57-.25-1.2-1.07-1.21-.33,0-.94.28-.93-.08.02-.5.68-.34,1.08-.38.58-.08.98.1,1.23.69.15.35.08,1.88.98.34Zm-.88-1.96c.02.06-.4.36-.47.31-.5-.32-.95-.7-1.42-1.06.16-.06.32-.13.38-.15.73.11,1.33.21,1.52.9Zm-3.32-3.94c.87.01,1.53.68,1.7,1.41.15.63-.67.35-1.11.55-.54-.56-1.79.39-1.97-.84-.12-.82.69-1.14,1.37-1.13Zm-.94-5.08c.31.42-.15.6-.27.89,0,.01,0,.02,0,.03,0,0-.01,0-.02,0-.84.88-.34,2.58-1.91,3.02-.88.24-1.73.62-2.61.88-.11.03-.47-.26-.45-.38.07-.67.7-.98,1.17-.96,1.52.07,2.26-.7,2.75-2.01.12-.32.53-.71,1.06-.54,0,0,0,0,0-.01,0,0,0-.01,0-.02,0-.36,0-.72,0-1.08.09.06.2.1.26.18Zm14.06-13.62c.09-.03.23.07.36.12-.26.41-.47.74-.69,1.07-.11-.15-.3-.3-.3-.46-.02-.41.29-.62.63-.73Zm-6.81,3.57c.96.18.99-.21.7-.98-.11-.3.32-.17.56-.23,1.05.19,1.09,1.25,1.52,1.98.02.04-.42.51-.61.49-.83-.11-1.71-.19-2.24-1-.03-.05.06-.26.06-.26Zm-.96-4.69c.35.06.91.28.96.52.09.44-.44.23-.63.35-.43-.12-.89-.04-1.04-.5-.02-.05.49-.41.72-.37Zm11.57-7.59c.26.17,1.02.37,0,.72-.63.22-1.12.8-1.71,1.18-.4.26-.79-.06-.88-.32-.18-.53.39-.05.54-.29.12-.2.38-.31.58-.46-.39-.51-.99-.05-2.05-.65,1.63.46,2.42-.89,3.5-.19Zm-8.68-6.13c.17,0,.34.09.68.18-.34.24-.5.42-.7.47-.14.04-.47-.07-.48-.15-.06-.34.17-.51.49-.5Zm-3.95.26c.2.48.35.71.39.96.06.34-.14.58-.48.44-.21-.09-.47-.39-.47-.58,0-.23.28-.44.55-.82Zm-1.72.75s.06,0,.08,0c.02.02.03.05.04.08-.05,0-.11,0-.16-.01.02-.03.03-.05.05-.08Zm11.98-42.27c.14-.02.31.11.47.17-.26.15-.52.3-.7.41-.3-.11-.71.05-.6-.29.06-.18.53-.25.83-.3Zm-8.52-4.07c.34-.02.72-.06.97.42-.26.14-.5.35-.78.42-.39.1-.56-.24-.64-.54-.11-.41.26-.29.45-.3Zm-3.59.24c.03-.16.21-.29.42-.54.16.46.31.77.38,1.1.04.19-.02.43-.32.3-.38-.16-.56-.46-.48-.86Zm.3-16.63c.59.06,1.02.38,1.21.96.09.4-.18.47-.46.51-.71.1-.96-.43-1.15-.94-.12-.32.07-.56.41-.53Zm-.06,3.18c.87-.1,1.24.43,1.29,1.1.04.6-.45.87-1.05.83-.73-.05-1.02-.53-1.05-1.19-.02-.58.21-.91.81-.74Zm-4.23-36.18c.39-.51.19-1.08.33-1.61.37-1.46,1.59-2.37,2.35-3.58.41-.66.82-1.25.82-2.06-.08-.37-.19-.76-.24-1.15-.06-.51-.68-1.19-.05-1.48.41-.19.65.66.96,1.06,1.33,1.74.09,3.4-.44,4.89-.75,2.08-1.61,4.12-2.18,6.26-.05.2.07.53-.34.44-.81-.16-1.7-2.12-1.21-2.76Zm-2.09,13.2c.41-.81.82-1.63,1.32-2.39.64-.97,1.23-1.94,1.42-3.12.06-.39-.06-.89.45-1.12.11.42.22.83.29,1.1-.35,2.41-1.16,4.39-2.94,5.87-.15.12-.33.2-.5.29-.02-.22-.12-.47-.04-.64Zm-4.29,11.47c.3-.98.69-1.93,1.2-3.32.07,1.44.12,2.41.17,3.37.04.83-.54,1.08-1.16.99-.72-.1-.31-.71-.21-1.04Zm-5.56,3.76c.12-.62.82-1.21,1.12-.88.96,1.08,1.48.07,2.18-.2.22-.09.37-.55.64-.19.07.09-.15.48-.32.66-.55.59-1.47.82-1.65,1.77-.02.08-.15.14-.23.21-.06-.17-.13-.34-.17-.51-.08-.35.4-.92-.39-1-.64-.07-.49.41-.55.76-.02.12-.16.34-.19.33-.46-.13-.25-.6-.45-.94Zm5.01,6.96c.5.17,1.14-.18,1.51.41-.59.21-1.17.42-1.63.59-1.09-.18-1.84-.47-2.46-1.32-.68-.93-1.84-1.49-1.9-2.85-.03-.5-.13-1.12.42-1.17.53-.05.32.58.34.95.04.72.31,1.48.91,1.71.63.24.29-.61.52-.91.29-.38.46,0,.68.02.5.03,1.13,1.29,1.53-.12,0-.02.37-.01.41.06.21.38.39.78.52,1.19.02.07-.21.29-.35.33-.18.06-.39,0-.59,0-.63,0-1.68-.76-1.79.09-.12.91,1.16.76,1.88,1.01Zm-3.26,12.41c.21.03.47,0,.63.11.29.2.54.39.11.81-.27.26-.34.77-.84.47-.36-.22-.63-.56-.97-.87.44-.25,1.28.72,1.07-.52Zm-.03-4.07c-.73,1.14-.79,1.1-.86,2.21-.21-.36-.38-.64-.54-.91-.34.56-.84,1.05-.65,1.81-.66-1.8-.67-1.81.86-4.15.3-.46.7-1.38,1.19-1.04.64.44.39,1.45,0,2.07Zm-3.51-2.31c.52-1.62,1.93-1.84,3.45-2.1.05.03.21.1.36.17-.12.15-.21.33-.36.43-.94.67-1.89,1.33-2.85,1.96-.18.12-.43.13-.64.19,0-.22-.03-.45.03-.65Zm1.23,11.22c-.67-.76-1.38-.85-1.94-.24-.07.08-.33.1-.38.05-.23-.27-.45-.55-.61-.86-.14-.28.08-.31.31-.31.91,0,1.12-.53.87-1.54.56.45.53,1.31,1.3,1.15-.01-.01-.02-.03-.03-.04.01,0,.02,0,.04-.01.06-.68-.1-1.73.8-1.59.56.09,1.79.22,1.81,1.44,0,.58-.22.96-.77.99-.64.03-.48-.28-.31-.74.09-.25-.26-.9-.52-.97-.62-.18.05.5-.29.61-.24.08-.48.17-.73.26,0,.02,0,.03,0,.05,0,0,0,0,0,0,.41.35-.18,1.66,1.15,1.17.37-.14.89-.15,1.19.31.17.26-.01.34-.22.4-.57.16-1.17.44-1.67-.12Zm1.54,2.65c-.46.06-.86-.2-1.02-.64-.15-.44.19-.63.56-.75.79-.24,1.31-.85,1.92-1.35.18-.15.48-.14.73-.2.04.23.09.45.13.68,0,1.58-1.01,2.09-2.32,2.27Zm1.53-3.74c-.29,0-.62-.02-.55-.42.08-.42.47-.48.83-.53.32-.04.54.07.54.43-.11.45-.45.51-.82.51Zm2.02-2.06c-.69-.24-.79-.93-1.01-1.5-.11-.28.11-.45.4-.41.73.09.8.67.9,1.4-.06.1-.26.53-.3.52Zm1.11-2.91c-.17.26-.32.59-.57.72-.15.08-.7-.19-.69-.25.19-1.31-2.31-.27-1.71-1.99.21-.61.19-1.36.05-2-.31-1.41-.38-3.21,1.01-3.48,2.1-.41,2.25,1.56,2.34,3.4-.61.98.32,2.39-.44,3.6Zm5.07,36.91c.51-.03,1-.28,1.39.17.43.49,1.73.6,1.2,1.43-.43.66-.99-.44-1.54-.66-.32-.13-.66-.26-1-.28-.49-.03-1.34.5-1.36-.28-.03-.8.89-.23,1.31-.38Zm-2.37-1.47c.14-.06.31-.07.44-.11.4.08.94,0,1.01.49.07.53-.47.19-.71.32-.21.11-.41.22-.62.32-.36.18-.07,1.02-.77.8-.19-.06-.39-.43-.39-.65.02-.64.52-.94,1.04-1.17Zm-1.28,3.21c.5.31,1.02.76,1.23,1.28.17.41-.44.22-.74.31-.53-.13-1.1-.27-1.07-.99.01-.3.31-.77.58-.6Zm-2.69,3.37c-.1.12.13,1.12-.7,1.08-.97-.05-.61-1.03-.7-1.64-.05-.35-.1-.97.49-.82.44.11,1.39-.05.91,1.38Zm.37,1.74c-.08,0-.21-.23-.23-.36-.02-.11.09-.23.15-.35.14.08.28.17.78.47-.36.14-.53.26-.7.25Zm.88-4.25c-.1-.21-.2-.41-.32-.66.16-.34.24-.83.45-.89.31-.08.34.36.28.6-.08.33-.26.63-.4.95Zm3.76,3.77c-.26.51-.9.39-1.4.53-.99-.1-1.76-.55-1.99-1.56-.05-.2.41-.51.64-.78.89.88,2.21-.58,3.08.59.46.61-.15.87-.32,1.22Zm6.5,16.05c.15.2.14.52.2.78-1.22.16-1.25,1.91-2.59,1.93-1.55.03-.28-1.31-.9-1.67.05-.83.85-1.3,1.17-1.22.72.17,1.53-.64,2.12.18Zm-2.09-2.14c-.64.03-.19-.59-.45-.85-.19-.18-.03-.43.26-.49.52.06.38.52.44.82.03.16-.15.51-.25.52Zm.1-4.42c-.31,1.23-.94,2.27-2.63,1.95-1.1-.53-1.66.06-1.99,1.16-.11.35-.48.19-.71.05-.29-.17-.51-.5-.31-.8.83-1.27,1.47-2.72,2.95-3.45.49-.24,1.17-.42,1.38.1.28.71,1.56.02,1.31.99Zm2.73-13.72c-.05.31-.45.86-.55.83-1.1-.34-1.33.68-1.83,1.16-.77.74-1.28.89-1.65-.29-.03-.09-.19-.14-.29-.21-.14.22-.43.47-.39.64.22.9-.44,1.01-1,1.17-.45.13-.7-.27-.8-.57-.21-.59.33-.37.57-.39.31-.03.56-.04.51-.46-.04-.38-.2-.5-.57-.27-.38,0-.87.32-1.11-.28-.06-.16-.04-.45.07-.55.42-.43.76.21,1.18.14.19-.03.56.26.6.21,1.04-1.34,2.98-.46,4.07-1.66.18-.2.42-.61.77-.26.21.2.45.55.41.78Zm-4.75-4.03c1.69-.3,2.39,1.27,3.7,1.54.23.05.78.69.29,1.07-.57.44-1.34.22-1.65-.35-.62-1.17-1.36-1.82-2.75-1.39-.39.12-.67-.3-.61-.55.16-.71.83-.12,1.02-.31Zm-.71-9.69c-.07-.12-.14-.19-.15-.27,0-.04.09-.14.13-.14.09,0,.17.07.26.1-.06.08-.12.16-.23.3Zm.16-3.33c-.41-.13-.88-.25-.92-.79,0-.12.29-.38.33-.36.4.22.78.48,1.14.71-.1.39-.29.53-.56.44Zm4.75,5.56c-.13.5-.55,1.3-.84,1.3-.73,0,.02-.69-.29-.96.24-.45-.23-1.13.41-1.23.44-.07.83.48.72.9Zm-.4-2.57c-.79-.3-1.99,0-2.25-1.18-.14-.62.53-.54,1.01-.68.56.52,1.81-.11,2.04,1.1.1.52-.36.92-.8.75Zm4.3-2.08s-.02,0-.03-.02h0s0,0,0,0c-.58-.43-1.19.61-1.42.21-.29-.5-2.56-.29-.75-1.75.51-.41-.26-.68-.55-.93-.51-.44-1.32-1.15-.97-1.55.59-.68,1.33.3,1.58.66.74,1.08,1.05,2.45,2.12,3.35,0,0,0,0,0,0l.04-.04v.06Zm1.3-4.4c.15.32.34.64.44.98.04.14-.09.33-.14.5-.18-.31-.37-.63-.55-.95.1-.21.18-.37.26-.54Zm-.08,2.33c-.11.64-.87.59-1.42.67-.26-.09-.79.18-.62-.39.13-.43.4-.9,1-.8.4.07,1.11.09,1.03.52Zm-1.87-3.88c.83.35,1.55.81,1.36,1.78.08.44-.09.99-.26.8-.59-.64-1-1.46-1.45-2.23-.02-.04.29-.38.35-.35Zm-.58,1.01c-.43.16-.64.28-.87.31-.18.02-.38-.06-.57-.1.2-.17.37-.41.6-.48.17-.05.41.12.84.26Zm-2.84-1.26c.42-.32,1.31-.6.04-.99-.07-.02-.07-.25-.1-.39.19-.03.37-.07.4-.07.75.13,1.44.13,1.57.88.12.71-.61.38-.88.61-.16.13-.19.4-.32.59-.13.19-.3.34-.46.51-.17-.16-.37-.29-.51-.48-.25-.33.04-.5.26-.66Zm-1.91.56c.77-.12,1.12.45.94,1.08-.39,1.32,1.53,1.51,1.22,2.66.07.54-.03.99-.53,1.13-.56.16-.82-.27-.88-.72-.16-1.09-1.33-1.67-1.36-2.84-.01-.59-.12-1.19.61-1.31Zm-1.46-1.64c.19-.22.84-.31,1.07-.15.42.28-.07.65-.22.89-.55.84-1.17,1.64-1.8,2.43-.12.16-.52.32-.59.25-.17-.16-.23-.45-.4-.83.64-.87,1.23-1.78,1.95-2.59Zm-1.96,1.53c.03.3-.24.86-.44.89-.44.07-.42-.48-.52-.77-.78-2.41-.51-4.84-.07-7.57,1.14,2.6.79,5.07,1.03,7.45Zm-1.22-18.93c.25.52.54,1.02.74,1.55.46,1.19.88,2.39,1.29,3.59.06.18-.05.42-.08.63-.18-.12-.4-.22-.55-.37-.53-.56-.63-1.36-1.21-1.95-.27-.28-.16-1.21-.66-1.71.63-.52-.39-1.32.46-1.74Zm-.59-4.84c.41,1.3.35,2.63-.25,3.85-.95,1.93-.71,3.78.2,5.62.1.21.28.42.3.64.07.55.24,1.33-.28,1.54-.64.27-.65-.61-.91-.98-1.15-1.62-.94-3.49-.9-5.68.13-1.23.16-2.82-.32-4.38-.29-.96.24-1.62,1.06-1.85.91-.25.93.69,1.1,1.23Zm-1.99-2.46c.2-.02.7.13.5.49-.44.79-1.08,1.39-2.1,1.31-.61.06-1.22-.15-1.47-.63-.65-1.24-1.89-1.76-2.87-2.6-.2-.17-.7-.26-.34-.7.21-.26.5-.21.75-.03,1.67,1.16,3.31,2.37,5.53,2.16Zm-.09-4.93c.22-.73-.37-.38-.6-.43-.68-.12-1.5.22-1.96-.54-.19-.31-.4-.88-.26-1.06.28-.36.49.12.71.31.07.06.2.05.3.08.03-.19.13-.4.09-.57-.08-.37-.3-.64-.72-.68-.35-.04-.87.27-.95-.37-.02-.2.08-.5.23-.63.5-.42.49.34.79.39.24.04.69.06.72-.03.63-1.89,1.74-.78,2.7-.44.36.13.63.45.39.85-.29.5-.67.13-.9-.06-.46-.38-.74-.71-1.5-.32-.85.44-.14.96-.35,1.33-.16.28.63,1.14-.48.86-.03,0-.17.28-.16.29.15.11.36.31.48.27.78-.28,1.53.01,2.29.05.32.01.9-.16.79.38-.12.58-.66,1.01-1.3,1.02-.38,0-.74-.22-.3-.69Zm1.55-5.48c.78.41.91,1.47,1.54,2.13-.11.08-.3.25-.31.23-.64-.67-1.3-1.32-1.87-2.05-.14-.18.23-.34.64-.32Zm-.44,3.73s-.08-.02-.12-.03l.04-.08s.06,0,.07.02c.01.03,0,.06.01.1Zm-.19-.44c-.08.03-.19.11-.24.08-.13-.08-.23-.19-.33-.31,0-.01.1-.12.21-.25.14.19.25.33.36.47Zm.33,3.95c-.16-.04-.34-.08-.52-.13.11-.15.19-.36.34-.43.96-.47,1.49-1.22,1.63-2.28.02-.13.22-.24.34-.35.12.19.37.4.35.58-.17,1.28-.64,2.35-2.14,2.61Zm8.12-15.64c-.7,2.65-1.27,5.31-2.56,7.82-.28.54-.85,1.32-1.08,2.06.14-.38.27-.76.41-1.14-.07-.05-.13-.11-.2-.16-.32,0-.63,0-.95,0-.04.67.74,1.36.03,1.98-.35.31-.86.02-1.05-.26-.52-.76-1.1-1.57-1.3-2.43-.15-.67.62-.59,1.03-.37.41.22.72.6,1.08.91-1.49-1.95,1.16-1.57,1.55-2.59.53-1.39.36-1.98-.9-2.47-.04-.01-.08-.02-.12-.03-.98-.12-1.22-1.17-1.98-1.57.06.66.43,1.33-.07,1.96-.16.2-.37.35-.56.52-.08-.22-.18-.43-.23-.65-.09-.45-.15-.9-.22-1.35-.48,1.05-.45,2.11-.09,3.2.12.38.83.89,0,1.12-.52.14-1.11-.23-1.2-.91-.33-2.54-.42-4.99,1.43-7.14.85-.99,1.27-2.66,2.38-.14.35.79,1.02,1.75,2.01,2.17.21-1.15.46-2.3.59-3.47.04-.39-.14-.93-.41-1.22-1.31-1.38-1.14-2.73-.26-4.29.63-1.11.77-2.47.61-3.74-.21-1.72.73-3.06,1.25-4.54.05-.15.3-.36.4-.34.37.09.23.42.24.69.05,2.52-1.18,4.77-1.45,7.23-.29,2.69.58,5.11,1.38,7.55.18.55.36.98.21,1.56Zm-5.61,5.23c0-.45.28-.5.62-.49.46-.05.78.13.83.6.04.46-.34.48-.65.47-.38,0-.81,0-.8-.59Zm5.71-8.23c-.1-.25-.24-.49-.3-.74-.55-2.33-.81-4.69-.61-7.09.04-.41-.1-.89.31-1.21.12.38.26.75.36,1.13.07.27.07.55.11,1-.69,1.95.15,4,.28,6.08.02.28.25.63-.16.83Zm6.34,11.99c-.48-.07-1.13-.22-1.12-.84,0-.39.43-1.11.61-1.1.63.05.77.69.91,1.26-.06.26,0,.73-.41.67Z"/>
      <path class="cls-1" d="m75.34,24.75s0,.04,0,.06l.04.03s-.01-.04-.02-.06c0,0-.02-.02-.03-.03Z"/>
      <polygon class="cls-1" points="58.42 18.18 58.42 18.17 58.42 18.17 58.42 18.18"/>
      <path class="cls-1" d="m85.26,93.24s.02,0,.03.01c0-.02.02-.05.03-.07-.02.02-.03.02-.05.04,0,0,0,0,0,.01Z"/>
      <path class="cls-1" d="m86.47,254.94s.01,0,.02,0c0-.01,0-.02,0-.03,0,0,0,.01,0,.02,0,0,0,0,0,.01Z"/>
      <path class="cls-1" d="m73.23,181.66s-.02,0-.04.01c.01,0,.02.03.03.04,0,0,0,0,0,0,0-.02,0-.03,0-.05Z"/>
      <path class="cls-1" d="m82.33,18.07s0-.03-.01-.04c-.02,0-.03,0-.05,0,.01,0,.02.02.03.03,0,0,.02,0,.03,0Z"/>
      <path class="cls-1" d="m67.18,202.07s.02,0,.04,0c0-.02,0-.03,0-.05,0,0-.02.01-.03.02,0,0-.01.02-.02.03Z"/>
      <path class="cls-1" d="m73.98,210.13s0-.02,0-.03c0,0,0,0,0,0,0,.01,0,.03.01.04Z"/>
      <path class="cls-1" d="m87.56,113.73s0,.02,0,.03c0,0,.01,0,.02,0l-.02-.03Z"/>
      <path class="cls-1" d="m53.01,148.2s.01,0,.02,0c0,0,0,0,0,0,0,0-.01,0-.02,0Z"/>
      <path class="cls-1" d="m78.22,252.94s.01,0,.02,0c0,0,0-.01,0-.02-.02-.04-.04-.07-.08-.09,0,.04.02.08.06.11Z"/>
      <path class="cls-1" d="m94.31,63.41s0-.02,0-.04c0,0-.01,0-.02,0,0,0,0,.02,0,.02.01,0,.02,0,.03.01Z"/>
      <path class="cls-1" d="m85.32,204.52c-.02-.28-.07-.55-.15-.83.05.25.09.51.15.83Z"/>
      <path class="cls-1" d="m88.3,257.21s0,.03,0,.04c.02-.01.03-.03.04-.04,0,0,0,0,0,0-.01,0-.02,0-.03,0Z"/>
      <path class="cls-1" d="m95.88,166.85c.05-.1.08-.19.11-.28-.04.09-.06.18-.11.28h0Z"/>
      <path class="cls-1" d="m94.12,163.94s.03,0,.04.01c0,0,0,0,0-.01,0,0-.02,0-.03-.01,0,0,0,0,0,.01Z"/>
      <path class="cls-1" d="m74.87,257.43s-.01,0-.02-.01h0s0,.01.01.01Z"/>
      <path class="cls-1" d="m97.18,64.36s-.03,0-.05-.01c0,0,0,.01,0,.02.01,0,.02,0,.03.01,0,0,0-.02.01-.02Z"/>
      <path class="cls-1" d="m102.04,287.42c-.4,0-.83.1-1.19-.02-.57-.19-1.62.06-1.59-.67.03-.74.92-.05,1.39-.23.22-.09.56-.14.61-.29.79-2.35,3.25-3.5,4.11-5.75.43-1.13.57-2.25.15-3.57-.46-1.46-.31-3.14-.25-4.71.03-.76-.03-1.5-.65-1.76-.68-.28-.53.68-.86.99-.35.32-.57.91-.96,1.02-.78.23-1.31,1.16-2.28.8.44-.38.98-.69,1.29-1.16.3-.44.49-1.04.49-1.56-.02-1.43-.04-2.67,1.14-3.88.76-.77.34-2.17-.64-2.95-.99-.79-1.19-1.81-1.43-3-.48-2.31-.66-4.72-1.83-6.85-.24-.43-.65-1.06-.02-1.35.65-.3.61.53.86.87,1.24,1.72.23,4,1.56,5.78.84,1.13,1.52,2.32,2.87,2.9.78.34,1.25.93,1.56,1.72.27.71.88,1.55.29,2.1-.44.41-1.19-.29-1.74-.66-.29-.2-.53-.4-.66.16-.52,2.26.71,5.42,2.6,6.82,1.26.94,2.18,2.12,2.18,3.8,0,.3-.11.59-.17.89-.23-.19-.58-.35-.65-.59-.27-.89-.93-1.37-1.7-1.05-.7.29-.51,1.16-.34,1.83.02.08.07.15.07.23-.12,2.41-.17,4.83-.4,7.23-.21,2.23-1.86,2.83-3.8,2.93Zm1.28-24.3c.07-.01.15-.03.22-.04,0,0,0-.05-.01-.08l-.22.16c.54-.68.6-1.28-.28-1.71-.22-.11-.46-.15-.7-.23-.04.69.42,1.14.81,1.62.07.09.12.2.18.29Z"/>
      <path class="cls-1" d="m101.34,245.57c.32.58.79,1.14.92,1.76.55,2.64,3.42,2.41,4.81,3.98.18.2.61.42.58.51-.14.39-.52.24-.82.19-.39-.06-.92-.01-1.14-.25-2.36-2.55-1.07-.11-1.05.74.02,1.38-1.12,2.13-1.81,3.13-.05.07-.21.07-.32.1,0-.15-.08-.35-.01-.45.79-1.11.39-2.14-.08-3.25-.29-.68-.59-1.51.33-2.13.41-.28.19-.76-.09-1.06-.86-.9-.99-2.13-1.33-3.27Zm1.97,4.95c-.1.49-.17.63-.14.74.09.29.22.56.34.84.06-.12.19-.26.17-.36-.05-.29-.17-.58-.37-1.21Z"/>
      <path class="cls-1" d="m87.67,164.29c.2,1.63-.1,2.38-1.12,2.78.7-.55.91-1.34,1.12-2.78Z"/>
      <path class="cls-1" d="m92.3,42.11c-.18-.37-.29-.52-.32-.69-.02-.1.07-.22.12-.34.11.14.24.28.31.44.04.1-.04.24-.1.59Z"/>
      <path class="cls-1" d="m89.49,33.58c-.37.22-.53.36-.58.33-.12-.08-.22-.23-.26-.37-.01-.05.17-.23.26-.22.15.01.29.12.58.26Z"/>
      <path class="cls-1" d="m90.82,171.97c-.22-.29-.43-.59-.72-.98.45.27.89.4.72.98,0,0,0,0,0,0Z"/>
      <path class="cls-1" d="m96.02,114.76c-.02-.32-.03-.64-.05-.96.06,0,.13-.01.19-.02.03.31.06.62.09.93-.08.02-.16.03-.23.05Z"/>
      <path class="cls-1" d="m94.7,169.14c.08.03.14.06.2.08-.06.07-.1.16-.17.2-.03.02-.12-.04-.18-.06.05-.07.1-.15.15-.23Z"/>
      <path class="cls-1" d="m93.24,260.31c.1-.07.19-.14.29-.2,0,0,.04.05.06.08-.12.03-.24.06-.36.1,0,0,0,.02,0,.02Z"/>
      <path class="cls-1" d="m97.88,185.98c.08.08.16.16.24.25,0,0,.03-.03.03-.03l-.24-.24-.02.03Z"/>
      <path class="cls-1" d="m91.15,172.02c-.11-.02-.22-.03-.34-.05,0,0,0,0,0,0,.1.02.21.05.31.07,0,0,.02-.02.02-.02Z"/>
      <path class="cls-1" d="m95.12,113.24c.06-.04.13-.09.19-.13.01.03.03.07.04.1-.08,0-.15.02-.23.03,0,0,0,0,0,0Z"/>
      <path class="cls-1" d="m91.51,172.44c-.12-.14-.24-.28-.36-.42,0,0-.02.02-.02.02.11.13.22.27.33.4h.05Z"/>
      <path class="cls-1" d="m91.46,172.44s.04-.04.06-.06c-.03,0-.07,0-.1,0,.03.02.05.03.08.05,0,0-.05,0-.05,0Z"/>
      <path class="cls-1" d="m92.04,173.09s.05-.01.08-.02c-.01.02-.03.04-.05.05,0,0-.03-.04-.03-.04Z"/>
      <path class="cls-1" d="m92.11,174.91c.13.27-.07.24-.23.25l.03.03c.08-.08.16-.16.24-.24l-.05-.04Z"/>
      <path class="cls-1" d="m91.88,175.16c-.07.08-.15.17-.22.25,0,0,.02.02.02.02-.12-.28.11-.21.24-.24,0,0-.03-.03-.03-.03Z"/>
      <polygon class="cls-1" points="85.99 176.25 86.07 176.24 86 176.26 85.99 176.25"/>
      <path class="cls-1" d="m89.44,170.62s.04.04.06.06c-.01-.01-.02-.02-.04-.03,0,0-.03-.02-.03-.02Z"/>
      <path class="cls-1" d="m95.83,113.35s.06.02.07.04c.01.02,0,.05,0,.08-.05-.01-.11-.03-.16-.04.03-.03.06-.05.09-.08Z"/>
      <path class="cls-1" d="m60.27,157.93c-1.17,1.46-2.86,1.95-4.56,2.31-1.72.36-2.18-1.47-3.32-2.16,0,0,.06-.18.12-.2.73-.22,1.4-.4,2.24-.38,1.79.03,3.53,1.48,5.35.25.05.06.11.12.16.18Z"/>
      <path class="cls-1" d="m76.27,35.29c.09-.23.12-.51.47-.48-.1.22-.2.44-.3.66-.06-.06-.11-.12-.17-.18Z"/>
      <path class="cls-1" d="m68.9,172.04c-.11.23-.1.58-.51.52-.15-.49.37-.31.51-.52Z"/>
      <path class="cls-1" d="m60.86,157.35c-.12.11-.24.22-.36.33-.05-.06-.1-.11-.15-.17.12-.11.25-.22.37-.33.04.06.09.11.14.16Z"/>
      <path class="cls-1" d="m84.73,263.44c-.1.24-.2.48-.52.25.14-.14.19-.5.52-.25Z"/>
      <polygon class="cls-1" points="71.66 260.01 71.63 259.95 71.7 259.95 71.66 260.01"/>
      <path class="cls-1" d="m60.11,157.75c.08-.08.16-.16.24-.24.05.05.1.11.15.17-.08.08-.15.17-.23.25-.05-.06-.11-.12-.16-.18Z"/>
      <path class="cls-1" d="m61.1,157.07c-.08.09-.16.18-.24.27-.05-.05-.09-.11-.14-.16.08-.08.15-.17.23-.25.05.05.1.09.15.14Z"/>
      <path class="cls-1" d="m69.17,185.34h.07s-.03.01-.05.02c0,0-.02-.02-.02-.02Z"/>
      <path class="cls-1" d="m84.8,235.47c-.1.02-.2.04-.3.06.03-.09.05-.18.08-.27.07.07.15.14.22.21Z"/>
      <path class="cls-1" d="m44.02,47.69l.07.06s0-.09-.01-.13c-.02.02-.04.05-.05.07,0,0,0,0,0,0Z"/>
      <path class="cls-1" d="m44.08,47.21c-.02.16-.04.33-.06.49,0,0,0,0,0,0-.04-.11-.08-.22-.12-.32.06-.06.12-.11.17-.17Z"/>
      <path class="cls-1" d="m85.92,158.16c-.09-.09-.18-.18-.28-.27.35-.17.31.05.28.27Z"/>
      <path class="cls-1" d="m86.84,158.12l.22-.17c0,.11-.02.22-.02.33-.07-.05-.13-.11-.2-.16Z"/>
      <path class="cls-1" d="m83.18,151.73s-.01.05-.02.07c.02,0,.04,0,.06-.01-.02-.01-.05-.02-.07-.04,0,0,.03-.02.03-.02Z"/>
      <path class="cls-1" d="m91.33,58.5c-.1.12-.22.23-.29.37-.19.4-.36.81-.54,1.22-.09-.16-.25-.3-.27-.47-.1-.7.29-1.08.91-1.29.06.06.12.12.18.17Z"/>
      <path class="cls-1" d="m93.6,57.15c-.09.17-.17.35-.26.52-.26-.34-.15-.51.26-.52Z"/>
      <path class="cls-1" d="m77.11,28.51c-.02-.1-.03-.2-.05-.3.08.05.15.1.23.15-.06.05-.12.1-.18.15Z"/>
      <path class="cls-1" d="m82.19,50.31c.37.1.74.26,1.11.3.27.02.56-.12.84-.18-.02.14.02.33-.06.41-.3.3-.68.42-1.07.25-.35-.15-.67-.38-1-.57.06-.07.12-.13.18-.2Z"/>
      <path class="cls-1" d="m96.71,60.3c-.25,0-.5,0-.75,0,.25-.3.51-.53.75,0Z"/>
      <path class="cls-1" d="m87.59,113.75c-.1-.6.25-.67.7-.54.13.04.22.21.33.32-.31.28-.66.38-1.05.19,0,0,.02.03.02.03Z"/>
    </g>
  </g>
</svg>